<svg xmlns="http://www.w3.org/2000/svg" xmlns:xlink="http://www.w3.org/1999/xlink" width="300" zoomAndPan="magnify" viewBox="0 0 224.87999 225" height="300" preserveAspectRatio="xMidYMid meet" version="1.0"><defs><clipPath id="id1"><path d="M 0 5.171875 L 224.761719 5.171875 L 224.761719 219.554688 L 0 219.554688 Z M 0 5.171875 " clip-rule="nonzero"/></clipPath></defs><g clip-path="url(#id1)"><path fill="#ffffff" d="M 218.050781 5.226562 C 217.707031 5.230469 217.351562 5.261719 217.011719 5.324219 L 216.992188 5.324219 L 182.671875 11.175781 C 180.488281 11.550781 178.660156 13.046875 177.851562 15.105469 C 177.851562 15.113281 177.851562 15.117188 177.851562 15.125 L 161.925781 55.910156 L 6.496094 59.78125 C 4.707031 59.828125 3.03125 60.632812 1.867188 61.976562 C 0.707031 63.324219 0.148438 65.109375 0.363281 66.886719 L 8.945312 137.773438 C 9.296875 140.746094 11.757812 143.105469 14.746094 143.339844 L 125.554688 152.140625 L 147.515625 169.394531 C 147.542969 169.414062 147.566406 169.433594 147.59375 169.449219 C 147.617188 169.46875 147.648438 169.472656 147.671875 169.488281 C 147.695312 169.503906 147.722656 169.53125 147.75 169.546875 C 151.757812 172.535156 152.75 176.605469 152.183594 178.867188 C 151.859375 180.15625 151.367188 181.105469 150.195312 181.832031 C 149.027344 182.5625 147.003906 183.089844 143.546875 182.890625 C 143.53125 182.890625 143.519531 182.890625 143.507812 182.890625 C 143.394531 182.890625 143.269531 182.890625 143.160156 182.890625 L 143.101562 182.890625 L 10.945312 183.277344 L 10.925781 183.277344 C 7.453125 183.253906 4.53125 186.164062 4.542969 189.632812 C 4.558594 193.097656 7.492188 196 10.964844 195.949219 L 10.984375 195.949219 L 20.644531 195.929688 C 17.054688 198.214844 14.648438 202.210938 14.648438 206.75 C 14.648438 213.8125 20.4375 219.597656 27.507812 219.597656 C 34.578125 219.597656 40.367188 213.8125 40.367188 206.75 C 40.367188 202.1875 37.957031 198.148438 34.332031 195.871094 L 143.160156 195.5625 C 139.238281 197.769531 136.566406 201.960938 136.566406 206.75 C 136.566406 213.8125 142.355469 219.597656 149.425781 219.597656 C 156.496094 219.597656 162.289062 213.8125 162.289062 206.75 C 162.289062 200.617188 157.925781 195.449219 152.144531 194.195312 C 157.609375 192.265625 161.808594 188.285156 164.410156 182.199219 C 164.445312 182.125 164.480469 182.046875 164.503906 181.96875 C 166.496094 174.007812 162.960938 165.355469 155.675781 159.726562 C 155.65625 159.707031 155.636719 159.6875 155.617188 159.667969 C 155.597656 159.652344 155.59375 159.625 155.578125 159.609375 C 155.515625 159.53125 155.441406 159.460938 155.367188 159.398438 L 139.804688 147.207031 L 188.335938 23.058594 L 219.128906 17.820312 L 219.148438 17.820312 C 222.382812 17.300781 224.75 14.289062 224.46875 11.023438 C 224.191406 7.746094 221.335938 5.179688 218.050781 5.226562 Z M 157.238281 65.695312 L 148.292969 88.609375 L 136.628906 88.609375 L 136.628906 66.214844 Z M 132.171875 66.328125 L 132.171875 88.609375 L 110.636719 88.609375 L 110.636719 66.867188 Z M 106.183594 66.964844 L 106.183594 88.609375 L 84.644531 88.609375 L 84.644531 67.503906 Z M 80.191406 67.621094 L 80.191406 88.609375 L 58.652344 88.609375 L 58.652344 68.160156 Z M 54.199219 68.273438 L 54.199219 88.609375 L 32.664062 88.609375 L 32.664062 68.8125 Z M 28.207031 68.910156 L 28.207031 88.609375 L 12.417969 88.609375 L 10.082031 69.371094 Z M 12.957031 93.039062 L 28.207031 93.039062 L 28.207031 113.164062 L 15.386719 113.164062 Z M 32.664062 93.039062 L 54.199219 93.039062 L 54.199219 113.164062 L 32.664062 113.164062 Z M 58.652344 93.039062 L 80.191406 93.039062 L 80.191406 113.164062 L 58.652344 113.164062 Z M 84.644531 93.039062 L 106.183594 93.039062 L 106.183594 113.164062 L 84.644531 113.164062 Z M 110.636719 93.039062 L 132.171875 93.039062 L 132.171875 113.164062 L 110.636719 113.164062 Z M 136.628906 93.039062 L 146.578125 93.039062 L 138.710938 113.164062 L 136.628906 113.164062 Z M 15.929688 117.59375 L 28.210938 117.59375 L 28.210938 132.035156 L 17.566406 131.1875 Z M 32.664062 117.59375 L 54.203125 117.59375 L 54.203125 134.09375 L 32.664062 132.382812 Z M 58.65625 117.59375 L 80.195312 117.59375 L 80.195312 136.15625 L 58.65625 134.460938 Z M 84.648438 117.59375 L 106.183594 117.59375 L 106.183594 138.234375 L 84.648438 136.523438 Z M 110.640625 117.59375 L 132.175781 117.59375 L 132.175781 129.839844 L 128.089844 140.296875 C 127.558594 140.039062 126.980469 139.882812 126.390625 139.835938 L 110.640625 138.582031 Z M 136.628906 117.59375 L 136.957031 117.59375 L 136.628906 118.496094 Z M 27.519531 199.207031 C 31.722656 199.207031 35.078125 202.558594 35.078125 206.753906 C 35.078125 210.953125 31.722656 214.285156 27.519531 214.285156 C 23.316406 214.285156 19.960938 210.953125 19.960938 206.753906 C 19.960938 202.558594 23.316406 199.207031 27.519531 199.207031 Z M 149.433594 199.207031 C 153.636719 199.207031 156.992188 202.558594 156.992188 206.753906 C 156.992188 210.953125 153.636719 214.285156 149.433594 214.285156 C 145.230469 214.285156 141.875 210.953125 141.875 206.753906 C 141.875 202.558594 145.230469 199.207031 149.433594 199.207031 Z M 27.519531 202.789062 C 25.238281 202.789062 23.414062 204.609375 23.414062 206.890625 C 23.414062 209.167969 25.238281 210.972656 27.519531 210.972656 C 29.800781 210.972656 31.625 209.167969 31.625 206.890625 C 31.625 204.609375 29.800781 202.789062 27.519531 202.789062 Z M 149.433594 202.789062 C 147.148438 202.789062 145.324219 204.609375 145.324219 206.890625 C 145.324219 209.167969 147.148438 210.972656 149.433594 210.972656 C 151.714844 210.972656 153.539062 209.167969 153.539062 206.890625 C 153.539062 204.609375 151.714844 202.789062 149.433594 202.789062 Z M 149.433594 202.789062 " fill-opacity="1" fill-rule="nonzero"/></g></svg>