<svg xmlns="http://www.w3.org/2000/svg" xmlns:xlink="http://www.w3.org/1999/xlink" width="300" zoomAndPan="magnify" viewBox="0 0 224.87999 225" height="300" preserveAspectRatio="xMidYMid meet" version="1.0"><defs><clipPath id="id1"><path d="M 22.199219 8.046875 L 224.761719 8.046875 L 224.761719 184.824219 L 22.199219 184.824219 Z M 22.199219 8.046875 " clip-rule="nonzero"/></clipPath><clipPath id="id2"><path d="M 0 17.429688 L 199.234375 17.429688 L 199.234375 217.101562 L 0 217.101562 Z M 0 17.429688 " clip-rule="nonzero"/></clipPath></defs><g clip-path="url(#id1)"><path fill="#299740" d="M 223.800781 10.699219 C 220.59375 9.867188 217.386719 9.035156 214.175781 8.203125 C 213.929688 8.066406 213.621094 8.003906 213.265625 8.074219 C 213.101562 8.089844 212.949219 8.136719 212.816406 8.203125 C 212.191406 8.40625 211.574219 8.628906 210.960938 8.855469 C 208.871094 9.632812 206.8125 10.484375 204.785156 11.386719 C 201.734375 12.75 198.746094 14.234375 195.8125 15.804688 C 191.875 17.914062 188.035156 20.1875 184.300781 22.59375 C 179.636719 25.597656 175.121094 28.808594 170.769531 32.1875 C 165.691406 36.128906 160.832031 40.304688 156.191406 44.679688 C 150.847656 49.71875 145.796875 55.023438 141.042969 60.539062 C 135.648438 66.796875 130.617188 73.3125 125.957031 80.054688 C 120.707031 87.652344 115.929688 95.523438 111.589844 103.59375 C 106.707031 112.679688 102.378906 122.019531 98.554688 131.523438 C 97.8125 133.375 97.089844 135.230469 96.382812 137.09375 C 93.914062 135.167969 91.449219 133.242188 88.980469 131.316406 C 82.511719 126.269531 76.042969 121.222656 69.574219 116.175781 C 63.632812 111.535156 57.6875 106.898438 51.742188 102.257812 C 50.230469 101.078125 48.722656 99.902344 47.210938 98.722656 C 46.824219 98.421875 46.488281 98.132812 46.007812 97.949219 C 44.507812 97.386719 42.957031 96.652344 41.398438 96.257812 C 40.804688 96.105469 40.0625 96.3125 39.460938 96.402344 C 38.417969 96.5625 37.375 96.722656 36.332031 96.882812 C 35.675781 96.984375 34.785156 96.980469 34.238281 97.371094 C 33.933594 97.585938 33.792969 97.859375 33.613281 98.152344 C 31.945312 100.882812 30.28125 103.613281 28.613281 106.339844 C 26.753906 109.382812 24.894531 112.425781 23.039062 115.46875 C 22.605469 116.179688 22.109375 116.769531 22.257812 117.628906 C 22.433594 118.625 22.648438 119.617188 22.84375 120.613281 C 23.589844 124.410156 24.332031 128.214844 25.078125 132.015625 C 25.308594 133.1875 25.488281 134.375 25.769531 135.539062 C 25.933594 136.21875 26.4375 136.574219 27.113281 136.824219 C 27.699219 137.039062 28.285156 137.257812 28.871094 137.480469 C 29.078125 137.558594 29.285156 137.636719 29.496094 137.71875 C 29.609375 137.761719 29.722656 137.804688 29.835938 137.847656 C 29.894531 137.871094 29.953125 137.894531 30.011719 137.917969 C 30.023438 137.921875 30.027344 137.921875 30.035156 137.925781 C 30.625 138.15625 31.214844 138.386719 31.800781 138.617188 C 35.132812 139.941406 38.4375 141.328125 41.71875 142.757812 C 51.5625 147.0625 61.191406 151.804688 70.476562 157.058594 C 81.402344 163.242188 91.9375 170.140625 101.28125 178.246094 C 103.523438 180.1875 105.6875 182.203125 107.761719 184.296875 C 108.480469 185.019531 109.96875 184.671875 110.199219 183.703125 C 110.488281 182.480469 110.816406 181.261719 111.148438 180.046875 C 112.066406 176.667969 113.0625 173.304688 114.109375 169.957031 C 115.707031 164.855469 117.429688 159.789062 119.265625 154.753906 C 121.59375 148.363281 124.101562 142.03125 126.792969 135.761719 C 129.886719 128.554688 133.222656 121.441406 136.820312 114.433594 C 140.769531 106.746094 145.035156 99.191406 149.65625 91.820312 C 154.472656 84.140625 159.675781 76.664062 165.328125 69.484375 C 171.082031 62.179688 177.320312 55.1875 184.09375 48.660156 C 190.878906 42.121094 198.203125 36.027344 206.117188 30.652344 C 210.113281 27.941406 214.25 25.402344 218.527344 23.078125 C 219.507812 22.542969 220.980469 22.070312 221.445312 21.070312 C 221.601562 20.734375 221.714844 20.371094 221.847656 20.023438 C 222.464844 18.441406 223.074219 16.859375 223.6875 15.273438 C 224.066406 14.296875 224.445312 13.324219 224.820312 12.347656 C 225.085938 11.660156 224.519531 10.882812 223.800781 10.699219 " fill-opacity="1" fill-rule="nonzero"/></g><g clip-path="url(#id2)"><path fill="#299740" d="M 179.769531 58.117188 C 175.765625 62.390625 171.867188 66.929688 168.121094 71.6875 C 168.015625 71.824219 167.910156 71.960938 167.800781 72.09375 C 176.402344 85.066406 181.417969 100.621094 181.417969 117.328125 C 181.417969 162.527344 144.710938 199.300781 99.59375 199.300781 C 54.476562 199.300781 17.769531 162.527344 17.769531 117.328125 C 17.769531 72.128906 54.476562 35.355469 99.59375 35.355469 C 116.796875 35.355469 132.78125 40.703125 145.96875 49.824219 C 148.515625 47.160156 151.117188 44.574219 153.757812 42.085938 C 155.492188 40.449219 157.261719 38.839844 159.050781 37.265625 C 152.671875 32.5 145.753906 28.527344 138.363281 25.398438 C 126.078125 20.191406 113.035156 17.554688 99.59375 17.554688 C 86.152344 17.554688 73.109375 20.191406 60.824219 25.398438 C 48.964844 30.421875 38.3125 37.617188 29.171875 46.777344 C 20.027344 55.9375 12.847656 66.605469 7.832031 78.488281 C 2.632812 90.792969 0 103.863281 0 117.328125 C 0 130.792969 2.632812 143.859375 7.832031 156.167969 C 12.847656 168.046875 20.027344 178.71875 29.171875 187.878906 C 38.3125 197.039062 48.964844 204.230469 60.824219 209.257812 C 73.109375 214.460938 86.152344 217.101562 99.59375 217.101562 C 113.035156 217.101562 126.078125 214.460938 138.363281 209.257812 C 150.222656 204.230469 160.875 197.039062 170.019531 187.878906 C 179.160156 178.71875 186.339844 168.046875 191.359375 156.167969 C 196.550781 143.859375 199.1875 130.792969 199.1875 117.328125 C 199.1875 103.863281 196.550781 90.792969 191.359375 78.488281 C 188.289062 71.222656 184.410156 64.410156 179.769531 58.117188 " fill-opacity="1" fill-rule="nonzero"/></g></svg>