<svg xmlns="http://www.w3.org/2000/svg" xmlns:xlink="http://www.w3.org/1999/xlink" width="300" zoomAndPan="magnify" viewBox="0 0 224.87999 225" height="300" preserveAspectRatio="xMidYMid meet" version="1.0"><defs><clipPath id="id1"><path d="M 0.117188 52 L 224.65625 52 L 224.65625 173 L 0.117188 173 Z M 0.117188 52 " clip-rule="nonzero"/></clipPath><clipPath id="id2"><path d="M 20 52 L 224.761719 52 L 224.761719 159 L 20 159 Z M 20 52 " clip-rule="nonzero"/></clipPath><clipPath id="id3"><path d="M 0 75 L 224.761719 75 L 224.761719 173 L 0 173 Z M 0 75 " clip-rule="nonzero"/></clipPath><clipPath id="id4"><path d="M 159 120 L 224.761719 120 L 224.761719 148 L 159 148 Z M 159 120 " clip-rule="nonzero"/></clipPath><clipPath id="id5"><path d="M 167 51.78125 L 196 51.78125 L 196 70 L 167 70 Z M 167 51.78125 " clip-rule="nonzero"/></clipPath><clipPath id="id6"><path d="M 0.117188 74.671875 L 224.65625 74.671875 L 224.65625 173.21875 L 0.117188 173.21875 Z M 0.117188 74.671875 " clip-rule="nonzero"/></clipPath></defs><g clip-path="url(#id1)"><path fill="#4da537" d="M 221.402344 92.910156 C 220.066406 89.972656 218.214844 87.15625 215.769531 84.628906 C 213.558594 82.347656 210.863281 80.300781 207.625 78.621094 C 204.625 77.0625 201.152344 75.820312 197.167969 74.984375 C 197.113281 74.972656 197.058594 74.949219 197.011719 74.914062 L 196.597656 74.597656 L 196.167969 74.28125 C 195.058594 73.488281 193.828125 72.699219 192.492188 71.921875 C 191.125 71.125 189.648438 70.347656 188.09375 69.597656 L 188.046875 69.570312 C 187.90625 69.476562 187.878906 69.308594 187.984375 69.203125 C 188.804688 68.375 189.558594 67.558594 190.242188 66.757812 C 190.925781 65.957031 191.542969 65.167969 192.09375 64.394531 C 192.679688 63.5625 193.191406 62.746094 193.625 61.949219 C 194.050781 61.152344 194.40625 60.371094 194.683594 59.601562 C 194.828125 59.195312 194.980469 58.710938 195.109375 58.195312 C 195.222656 57.746094 195.328125 57.269531 195.398438 56.785156 C 195.460938 56.367188 195.503906 55.941406 195.511719 55.523438 C 195.523438 55.152344 195.503906 54.789062 195.453125 54.449219 C 195.398438 54.070312 195.300781 53.714844 195.152344 53.40625 L 195.144531 53.390625 C 195.007812 53.113281 194.828125 52.871094 194.597656 52.675781 C 194.34375 52.460938 194.039062 52.304688 193.675781 52.222656 L 193.667969 52.21875 C 193.304688 52.140625 192.878906 52.128906 192.382812 52.199219 L 192.359375 52.199219 C 191.023438 52.398438 188.722656 53.578125 185.789062 55.085938 L 185.75 55.109375 C 180.804688 57.648438 174.058594 61.117188 167.21875 62.332031 C 167.167969 62.34375 167.113281 62.34375 167.058594 62.328125 C 166.320312 62.160156 165.585938 62 164.851562 61.851562 C 164.125 61.703125 163.398438 61.5625 162.679688 61.433594 C 161.382812 61.203125 160.085938 61 158.804688 60.832031 C 157.554688 60.667969 156.328125 60.539062 155.136719 60.449219 C 151.800781 60.191406 148.667969 60.402344 145.609375 60.851562 C 142.539062 61.300781 139.542969 61.992188 136.492188 62.695312 L 136.457031 62.707031 C 131.722656 63.796875 126.855469 64.921875 121.378906 65.226562 C 118.464844 65.386719 115.734375 65.410156 113.128906 65.359375 C 110.519531 65.308594 108.039062 65.1875 105.628906 65.074219 C 100.25 64.8125 95.214844 64.574219 89.929688 65.152344 C 84.652344 65.734375 79.113281 67.136719 72.710938 70.164062 C 69.128906 71.859375 65.976562 73.785156 63.179688 75.867188 C 60.382812 77.949219 57.941406 80.1875 55.773438 82.5 C 55.332031 82.964844 54.902344 83.441406 54.484375 83.917969 C 54.070312 84.386719 53.664062 84.867188 53.265625 85.351562 C 53.230469 85.386719 53.183594 85.421875 53.128906 85.4375 C 44.636719 88.109375 37.351562 91.140625 31.160156 94.402344 C 24.390625 97.964844 18.917969 101.800781 14.574219 105.730469 C 9.671875 110.164062 6.207031 114.722656 3.933594 119.144531 C 1.375 124.121094 0.328125 128.933594 0.441406 133.203125 C 0.449219 133.445312 0.460938 133.707031 0.480469 133.96875 C 0.496094 134.222656 0.515625 134.476562 0.542969 134.726562 C 1.144531 140.492188 4.269531 145.835938 9.535156 150.582031 C 14.945312 155.460938 22.613281 159.71875 32.125 163.171875 C 41.65625 166.628906 53.042969 169.285156 65.867188 170.949219 C 78.25 172.558594 91.96875 173.246094 106.652344 172.847656 C 110.703125 172.734375 114.828125 172.542969 119.007812 172.265625 C 123.136719 171.992188 127.324219 171.632812 131.566406 171.191406 C 140.0625 170.300781 148.132812 168.761719 155.707031 166.703125 C 163.710938 164.523438 171.160156 161.761719 177.972656 158.566406 C 185.167969 155.1875 191.65625 151.320312 197.335938 147.144531 C 203.246094 142.800781 208.285156 138.117188 212.351562 133.292969 C 212.367188 133.273438 212.386719 133.257812 212.414062 133.238281 L 213.003906 132.882812 L 213.605469 132.527344 C 214.332031 132.113281 215.136719 131.742188 215.96875 131.394531 C 216.78125 131.058594 217.644531 130.738281 218.484375 130.425781 C 219.355469 130.101562 220.203125 129.785156 220.972656 129.460938 C 221.730469 129.136719 222.410156 128.800781 222.957031 128.441406 C 223.332031 128.191406 223.632812 127.925781 223.855469 127.640625 C 224.074219 127.363281 224.214844 127.0625 224.285156 126.75 C 224.355469 126.441406 224.351562 126.113281 224.277344 125.769531 C 224.199219 125.421875 224.050781 125.066406 223.828125 124.691406 L 223.796875 124.644531 C 223.457031 124.152344 222.984375 123.734375 222.378906 123.382812 C 221.757812 123.023438 221.003906 122.734375 220.105469 122.519531 L 220.054688 122.5 C 219.890625 122.4375 219.8125 122.28125 219.875 122.15625 C 220.699219 120.535156 221.410156 118.917969 222.007812 117.304688 C 222.601562 115.691406 223.078125 114.089844 223.429688 112.511719 C 223.800781 110.863281 224.039062 109.230469 224.144531 107.613281 C 224.25 106.011719 224.226562 104.429688 224.070312 102.871094 C 223.734375 99.558594 222.882812 96.160156 221.402344 92.910156 " fill-opacity="1" fill-rule="evenodd"/></g><g clip-path="url(#id2)"><path fill="#f79310" d="M 187.921875 69.371094 C 187.917969 69.3125 187.933594 69.253906 187.984375 69.203125 C 188.804688 68.375 189.558594 67.558594 190.242188 66.757812 C 190.925781 65.957031 191.542969 65.167969 192.09375 64.394531 C 192.679688 63.5625 193.191406 62.746094 193.625 61.949219 C 194.050781 61.152344 194.40625 60.371094 194.683594 59.601562 C 194.828125 59.195312 194.980469 58.710938 195.109375 58.195312 C 195.222656 57.746094 195.328125 57.269531 195.398438 56.785156 C 195.460938 56.367188 195.503906 55.941406 195.511719 55.523438 C 195.523438 55.152344 195.503906 54.789062 195.453125 54.449219 C 195.398438 54.070312 195.300781 53.714844 195.152344 53.40625 L 195.144531 53.390625 C 195.007812 53.113281 194.828125 52.871094 194.597656 52.675781 C 194.34375 52.460938 194.039062 52.304688 193.675781 52.222656 L 193.667969 52.21875 C 193.304688 52.140625 192.878906 52.128906 192.382812 52.199219 L 192.359375 52.199219 C 191.023438 52.398438 188.722656 53.578125 185.789062 55.085938 L 185.75 55.109375 C 180.804688 57.648438 174.058594 61.117188 167.21875 62.332031 C 167.167969 62.34375 167.113281 62.34375 167.058594 62.328125 C 166.320312 62.160156 165.585938 62 164.851562 61.851562 C 164.125 61.703125 163.398438 61.5625 162.679688 61.433594 C 161.382812 61.203125 160.085938 61 158.804688 60.832031 C 157.554688 60.667969 156.328125 60.539062 155.136719 60.449219 C 151.800781 60.191406 148.667969 60.402344 145.609375 60.851562 C 142.539062 61.300781 139.542969 61.992188 136.492188 62.695312 L 136.457031 62.707031 C 131.722656 63.796875 126.855469 64.921875 121.378906 65.226562 C 118.464844 65.386719 115.734375 65.410156 113.128906 65.359375 C 110.519531 65.308594 108.039062 65.1875 105.628906 65.074219 C 100.25 64.8125 95.214844 64.574219 89.929688 65.152344 C 84.652344 65.734375 79.113281 67.136719 72.710938 70.164062 C 69.128906 71.859375 65.976562 73.785156 63.179688 75.867188 C 60.382812 77.949219 57.941406 80.1875 55.773438 82.5 C 55.332031 82.964844 54.902344 83.441406 54.484375 83.917969 C 54.070312 84.386719 53.664062 84.867188 53.265625 85.351562 C 53.230469 85.386719 53.183594 85.421875 53.128906 85.4375 C 48.558594 86.875 44.339844 88.417969 40.449219 90.042969 L 42.640625 101.335938 C 42.640625 101.335938 36.328125 111.121094 34.550781 113.378906 C 32.773438 115.640625 24.941406 124.226562 24.941406 124.226562 C 24.941406 124.226562 21.277344 129.257812 20.8125 130.464844 C 20.347656 131.667969 19.863281 134.636719 20.332031 136.082031 C 20.796875 137.527344 21.964844 138.617188 21.964844 138.617188 C 21.964844 138.617188 23.5625 140.457031 27.117188 141.722656 C 30.671875 142.984375 32.527344 143.21875 36.125 143.4375 C 39.722656 143.660156 46.054688 142.648438 47.363281 142.382812 C 48.671875 142.117188 48.671875 142.117188 48.671875 142.117188 C 48.671875 142.117188 53.164062 144.191406 55.453125 144.945312 C 57.742188 145.695312 64.085938 147.144531 67.277344 147.59375 C 70.472656 148.046875 80.808594 149.011719 80.808594 149.011719 C 80.808594 149.011719 90.238281 149.945312 93.222656 150.847656 C 96.203125 151.75 102.621094 153.835938 104.050781 154.496094 C 105.484375 155.15625 113.152344 158.03125 115.878906 158.292969 C 118.605469 158.550781 121 158.378906 122.777344 157.929688 C 124.554688 157.476562 129.269531 155.699219 130.898438 154.839844 C 132.523438 153.980469 135.96875 152.136719 135.96875 152.136719 C 135.96875 152.136719 133.15625 150.847656 131.980469 150.003906 C 130.808594 149.164062 130.28125 148.46875 130.28125 148.46875 C 130.28125 148.46875 134.40625 145.832031 137.285156 145.273438 C 140.164062 144.71875 143.277344 144.6875 143.277344 144.6875 C 143.277344 144.6875 141.910156 141.777344 141.457031 139.640625 C 141.007812 137.5 141.367188 129.214844 141.367188 129.214844 C 141.367188 129.214844 146.007812 132.015625 147.167969 132.832031 C 148.328125 133.644531 150.089844 136.160156 150.617188 137.003906 C 151.144531 137.847656 151.972656 140.183594 151.972656 140.183594 C 151.972656 140.183594 154.21875 136 156.792969 134.21875 C 159.371094 132.4375 166.34375 130.449219 166.34375 130.449219 C 166.34375 130.449219 165.714844 135.632812 164.71875 137.800781 C 163.722656 139.972656 162.128906 142.292969 161.617188 142.925781 C 161.101562 143.558594 160.199219 144.519531 160.199219 144.519531 C 160.199219 144.519531 165.230469 145.847656 167.371094 146.175781 C 169.507812 146.511719 174.117188 147.503906 179.332031 147.171875 C 184.542969 146.84375 188.667969 146.101562 192.507812 144.917969 C 196.355469 143.738281 201.71875 140.453125 201.71875 140.453125 L 211.628906 133.585938 C 211.628906 133.585938 212.320312 133.1875 213.464844 132.609375 L 213.605469 132.527344 C 214.332031 132.113281 215.136719 131.742188 215.96875 131.394531 C 216.550781 131.15625 217.15625 130.921875 217.757812 130.695312 L 217.769531 130.691406 L 217.773438 130.691406 C 221.28125 129.324219 222.359375 129.019531 224.121094 127.21875 C 224.136719 127.171875 224.5 125.964844 223.738281 124.960938 C 222.960938 123.9375 221.6875 123.070312 220.488281 122.714844 C 219.292969 122.363281 216.4375 122.144531 215.234375 122.164062 C 214.027344 122.183594 209.226562 122.550781 209.226562 122.550781 C 209.226562 122.550781 200.546875 123.804688 198.664062 123.695312 C 196.78125 123.589844 196.230469 123.730469 193.796875 123.351562 C 191.371094 122.972656 191.027344 122.679688 191.027344 122.679688 L 196.027344 118.167969 C 196.027344 118.167969 199.929688 113.652344 201.796875 110.605469 C 203.664062 107.5625 205.5625 103.585938 206.378906 100.753906 C 207.191406 97.921875 207.28125 94.730469 206.679688 92.316406 C 206.078125 89.910156 205.171875 87.949219 203.847656 86.984375 C 202.523438 86.023438 201.40625 84.996094 201.40625 84.996094 C 201.40625 84.996094 202.519531 83.203125 201.9375 81.039062 C 201.359375 78.882812 196.597656 74.597656 196.597656 74.597656 L 187.511719 69.460938 L 187.921875 69.371094 " fill-opacity="1" fill-rule="evenodd"/></g><path fill="#bb2400" d="M 133.730469 164.113281 C 133.820312 163.902344 135.992188 157.8125 138.386719 155.246094 C 140.78125 152.679688 140.855469 152.542969 140.855469 152.542969 C 140.855469 152.542969 138.695312 152.601562 136.53125 152.105469 C 134.363281 151.609375 132.125 150.105469 131.082031 149.289062 C 130.039062 148.476562 130.28125 148.46875 130.28125 148.46875 C 130.28125 148.46875 132.328125 146.882812 134.808594 146.078125 C 137.285156 145.273438 140.199219 144.847656 141.089844 144.792969 C 141.976562 144.734375 143.277344 144.6875 143.277344 144.6875 C 143.277344 144.6875 141.542969 142.351562 141.296875 138.199219 C 141.050781 134.042969 141.367188 129.214844 141.367188 129.214844 C 141.367188 129.214844 145.4375 131.363281 147.351562 133.09375 C 149.265625 134.824219 150.617188 136.949219 150.808594 137.347656 C 151 137.746094 151.972656 140.183594 151.972656 140.183594 C 151.972656 140.183594 153.144531 136.277344 157.488281 133.789062 C 161.828125 131.300781 166.34375 130.449219 166.34375 130.449219 C 166.34375 130.449219 166.347656 131.835938 165.519531 135.207031 C 164.691406 138.578125 162.6875 141.628906 161.804688 142.679688 C 160.917969 143.734375 157.792969 146.5625 157.792969 146.5625 C 157.792969 146.5625 161.179688 147.796875 163.078125 150.132812 C 164.976562 152.46875 168.597656 158.464844 168.597656 158.464844 C 168.597656 158.464844 166.515625 159.488281 163.304688 159.21875 C 160.097656 158.945312 158.703125 158.242188 157.238281 157.53125 C 155.773438 156.824219 154.617188 155.539062 154.617188 155.539062 C 154.617188 155.539062 153.597656 158.699219 152.410156 160.726562 C 151.222656 162.757812 150.148438 163.988281 150.148438 163.988281 C 150.148438 163.988281 147.636719 162.171875 146.777344 161.324219 C 145.921875 160.480469 145.558594 159.871094 145.558594 159.871094 C 145.558594 159.871094 143.699219 162.515625 140.664062 163.226562 C 137.628906 163.9375 133.730469 164.113281 133.730469 164.113281 " fill-opacity="1" fill-rule="evenodd"/><path fill="#f3be62" d="M 93.363281 89.40625 C 80.191406 93.097656 64.921875 102.742188 47.304688 117.820312 C 66.054688 104.257812 81.433594 95.90625 93.441406 92.773438 C 104.9375 89.773438 108.410156 92.59375 119.0625 93.914062 C 132.390625 95.566406 145.761719 91.65625 159.496094 92.332031 C 144.476562 89.359375 138.988281 92.710938 127.808594 91.207031 C 122.3125 90.464844 117.101562 88.601562 110.386719 87.992188 C 105.675781 87.5625 99.851562 88.117188 93.363281 89.40625 Z M 191.324219 52.746094 C 189.332031 53.410156 186.136719 54.917969 181.742188 57.265625 C 178.652344 59.066406 173.949219 60.835938 167.640625 62.570312 C 168.589844 62.886719 170.226562 63.375 172.558594 64.03125 C 185.507812 62.992188 189.207031 52.304688 194.425781 53.324219 C 193.980469 52.253906 192.945312 52.0625 191.324219 52.746094 " fill-opacity="1" fill-rule="evenodd"/><path fill="#f3be62" d="M 56.320312 82.230469 C 68.71875 69.804688 82.671875 64.167969 98.183594 65.324219 C 73.375 68.472656 59.332031 80.078125 47.589844 96.949219 C 42.386719 104.425781 36.128906 118.417969 30.714844 123.871094 C 28.773438 125.824219 26.363281 127.085938 24.558594 128.949219 C 22.03125 131.558594 20.390625 136.714844 23.554688 139.4375 C 19.898438 137.050781 19.050781 133.921875 21.011719 130.050781 C 22.4375 127.421875 25.039062 124.050781 28.816406 119.945312 C 34.453125 113.5625 38.507812 108.210938 40.984375 103.882812 C 48.066406 92.25 53.175781 85.035156 56.320312 82.230469 " fill-opacity="1" fill-rule="evenodd"/><path fill="#f3be62" d="M 190.089844 122.511719 C 187.242188 122 185.820312 121.746094 185.820312 121.746094 C 180.703125 120.792969 175.914062 120.988281 171.441406 122.332031 C 181.726562 121.335938 185.113281 125.585938 194.207031 126.238281 C 203.945312 126.9375 213.535156 121.5625 221.597656 123.546875 C 218.742188 121.78125 213.570312 121.65625 206.089844 123.175781 C 200.214844 124.046875 194.882812 123.828125 190.089844 122.511719 " fill-opacity="1" fill-rule="evenodd"/><path fill="#f3be62" d="M 202.039062 81.398438 C 202.238281 83 201.855469 84.125 200.890625 84.777344 C 201.996094 82.492188 200.25 79.792969 195.65625 76.683594 C 185.421875 69.753906 168.566406 63.519531 156.097656 62.335938 C 149.535156 61.71875 142.421875 61.976562 134.863281 63.621094 C 144.667969 60.28125 154.863281 59.734375 165.453125 61.976562 C 185.820312 67.136719 198.019531 73.613281 202.039062 81.398438 " fill-opacity="1" fill-rule="evenodd"/><path fill="#f3be62" d="M 179.011719 63.484375 C 181.179688 62.988281 184.667969 61.0625 185.925781 59.25 C 185.5 61.546875 182.019531 63.957031 179.011719 63.484375 Z M 202.332031 116.238281 C 203.34375 115.796875 204.5625 113.726562 205.101562 112.78125 C 205.472656 115.113281 203.5 115.609375 202.332031 116.238281 Z M 205.15625 115.089844 C 205.957031 114.539062 208.035156 111.351562 207.335938 110.296875 C 209.84375 111.429688 206.550781 114.304688 205.15625 115.089844 Z M 208.925781 105.46875 C 209.859375 104.78125 210.65625 103.933594 211.179688 102.980469 C 211.65625 102.113281 211.914062 101.164062 211.855469 100.179688 C 213.015625 102.523438 211.289062 104.796875 208.925781 105.46875 Z M 34.335938 104.777344 C 33.785156 105.390625 32.660156 108.128906 32.636719 109.035156 C 31.625 107.351562 33 105.296875 34.335938 104.777344 Z M 27.039062 131.289062 C 26.734375 132.035156 26.617188 132.695312 26.679688 133.265625 L 26.683594 133.296875 C 26.746094 133.820312 26.972656 134.265625 27.363281 134.636719 C 25.59375 134.617188 25.453125 132.167969 27.039062 131.289062 Z M 221.683594 124.574219 C 218.429688 124.058594 215.054688 124.3125 211.566406 125.335938 C 212.429688 123.910156 219.625 122.957031 221.683594 124.574219 Z M 174.472656 150.503906 C 173.46875 150.460938 172.042969 150.808594 170.71875 151.324219 C 169.664062 151.734375 168.675781 152.25 168.027344 152.761719 C 169.09375 150.03125 172.820312 149.851562 174.472656 150.503906 Z M 141.867188 153.917969 C 140.347656 155.4375 136.699219 160.980469 136.050781 162.855469 C 135.953125 160.832031 139.363281 154.679688 141.867188 153.917969 Z M 143.152344 146.46875 C 141.808594 146.375 139.820312 146.777344 138.210938 147.132812 C 136.585938 147.492188 134.230469 148.113281 132.351562 148.925781 C 134.105469 146.8125 141.503906 145.078125 143.152344 146.46875 Z M 148.835938 149.976562 C 148.722656 149.988281 148.621094 150.011719 148.53125 150.042969 C 146.675781 150.539062 147.917969 155.867188 148.402344 156.984375 C 147.46875 155.59375 147.019531 154.09375 146.828125 152.417969 C 146.738281 151.605469 146.78125 150.949219 146.964844 150.453125 C 147.238281 149.71875 148.238281 149.222656 148.835938 149.976562 Z M 153.421875 155.03125 C 153.757812 152.738281 153.414062 149.746094 153.082031 148.667969 C 152.8125 147.789062 152.304688 147.378906 151.5625 147.445312 C 153.101562 145.34375 154.980469 148.125 153.421875 155.03125 Z M 165.101562 131.957031 C 164.175781 132.226562 156.605469 136.160156 155.589844 136.984375 C 157.765625 134.773438 161.339844 133.050781 164.300781 132.140625 C 164.367188 132.121094 164.4375 132.097656 164.503906 132.082031 Z M 142.519531 130.898438 C 142.324219 134.707031 144.148438 143.171875 146.085938 146.5625 C 143.300781 143.84375 141.230469 134.832031 142.519531 130.898438 Z M 99.9375 159.726562 C 99.390625 159.832031 98.917969 159.992188 98.515625 160.214844 C 98.121094 160.429688 97.476562 160.945312 97.222656 161.277344 C 96.953125 160.058594 99.074219 159.058594 99.9375 159.726562 Z M 70.828125 157.039062 C 71.695312 156.917969 74.945312 156.109375 76.3125 155.316406 C 75.503906 156.792969 72.339844 157.457031 70.828125 157.039062 Z M 67.417969 158.621094 C 69.703125 158.453125 74.109375 157.628906 75.394531 156.875 C 73.03125 158.308594 70.160156 159.410156 67.417969 158.621094 Z M 8.957031 131.515625 C 8.242188 132.800781 7.804688 134.917969 8.203125 136.371094 C 6.820312 136.074219 7.289062 132.46875 8.957031 131.515625 Z M 11.796875 140.800781 C 12.425781 142.117188 14.746094 142.097656 16.042969 141.707031 C 17.335938 141.316406 17.984375 141.011719 19.226562 141.570312 C 18.617188 141.523438 17.175781 142.214844 16.441406 142.441406 C 14.6875 142.96875 12.964844 143.488281 11.964844 141.386719 Z M 26.828125 113.730469 C 25.445312 113.894531 21.9375 115.65625 21.457031 117.105469 C 21.355469 115.996094 22.054688 115.1875 22.96875 114.613281 C 24.148438 113.878906 25.46875 113.65625 26.828125 113.730469 Z M 182.4375 94.214844 C 183.785156 94.164062 186.847656 93.457031 188.320312 93.117188 C 189.960938 92.742188 192.382812 92.066406 193.472656 91.589844 C 191.199219 94.484375 184.125 94.953125 182.4375 94.214844 Z M 38.742188 133.75 C 37.230469 133.65625 35.445312 134.050781 34.648438 134.550781 C 34.863281 133.113281 38.140625 132.714844 38.742188 133.75 Z M 44.496094 136.734375 C 42.984375 135.972656 41.550781 135.476562 40.195312 135.242188 C 38.855469 135.007812 37.589844 135.027344 36.386719 135.304688 C 37.375 133.789062 44.152344 134.660156 44.496094 136.734375 Z M 67.292969 78.496094 C 65.359375 79.925781 59.277344 85.480469 57.367188 87.457031 C 59.273438 84.308594 64.046875 80.226562 67.292969 78.496094 Z M 164.578125 94.394531 C 161.160156 93.84375 155.390625 93.882812 151.886719 94.160156 C 152.796875 93.21875 162.546875 92.816406 164.578125 94.394531 Z M 176.53125 92.484375 C 180.507812 92.09375 184.160156 91.554688 187.492188 90.863281 C 190.816406 90.175781 193.804688 89.339844 196.460938 88.355469 C 195.296875 90.453125 180.308594 93.402344 176.53125 92.484375 Z M 141.640625 65.777344 C 139.710938 65.882812 136.539062 66.136719 134.722656 66.535156 C 135.667969 65.351562 140.4375 65.144531 141.640625 65.777344 Z M 154 63.730469 C 147.699219 63.253906 139.636719 64.097656 133.183594 65.410156 C 135.050781 63.699219 151.753906 62.257812 154 63.730469 Z M 173.675781 124.953125 C 172.40625 125.007812 167.203125 125.507812 166.234375 126 C 167.316406 124.796875 171.765625 124.28125 173.675781 124.953125 Z M 180.289062 124.296875 C 178.726562 123.996094 176.316406 123.835938 174.421875 123.820312 C 172.738281 123.808594 170.179688 123.960938 168.378906 124.269531 C 170.777344 122.59375 178.621094 122.992188 180.289062 124.296875 Z M 123.355469 139.46875 C 121.117188 138.492188 119.257812 138.179688 116.832031 138.007812 C 118.703125 137.234375 122.34375 137.914062 123.355469 139.46875 Z M 123.402344 137.757812 C 121.210938 136.871094 118.242188 136.195312 115.832031 135.898438 C 113.410156 135.601562 110.878906 135.601562 108.230469 135.898438 C 110.84375 134.289062 120.925781 135.007812 123.402344 137.757812 Z M 28.378906 127.839844 C 27.34375 128.320312 24.359375 131.917969 23.941406 133.089844 C 24.097656 131.671875 24.425781 130.8125 25.40625 129.695312 C 26.316406 128.660156 27.132812 128.265625 28.378906 127.839844 Z M 108.847656 95.753906 C 107.636719 95.664062 105.839844 95.808594 104.613281 95.875 C 103.390625 95.941406 102.15625 96.089844 100.914062 96.316406 C 101.761719 95.214844 107.023438 94.375 108.847656 95.753906 Z M 105.625 93.707031 C 103.65625 93.667969 100.71875 94.023438 98.65625 94.34375 C 96.707031 94.648438 94 95.265625 92.230469 95.90625 C 94.066406 93.859375 103.589844 92.136719 105.625 93.707031 Z M 104.425781 68.398438 C 101 68.523438 95.8125 69.289062 92.78125 70.210938 C 94.75 68.699219 102.667969 66.925781 104.425781 68.398438 Z M 100.914062 66.734375 C 95.523438 67.410156 88.765625 68.820312 82.699219 70.839844 C 85.523438 68.421875 97.953125 65.894531 100.914062 66.734375 " fill-opacity="1" fill-rule="nonzero"/><g clip-path="url(#id3)"><path fill="#431c16" d="M 30.945312 106.445312 C 30.742188 106.984375 30.644531 107.539062 30.644531 108.066406 L 30.652344 108.289062 L 30.667969 108.503906 C 30.71875 108.984375 30.566406 109.445312 30.269531 109.878906 C 29.953125 110.332031 29.476562 110.753906 28.902344 111.136719 C 28.214844 111.59375 27.390625 111.992188 26.554688 112.3125 C 25.613281 112.671875 24.636719 112.9375 23.796875 113.082031 C 23.535156 113.128906 23.273438 113.203125 23.023438 113.296875 L 22.992188 113.3125 C 22.714844 113.421875 22.453125 113.554688 22.207031 113.707031 L 22.183594 113.722656 C 22.066406 113.796875 21.957031 113.875 21.847656 113.957031 C 21.746094 114.027344 21.636719 114.113281 21.515625 114.214844 C 21.421875 114.292969 19.703125 115.765625 17.472656 115.945312 C 16.765625 115.996094 15.898438 116.1875 14.996094 116.546875 C 14.222656 116.855469 13.425781 117.285156 12.679688 117.859375 C 12.039062 118.347656 11.433594 118.945312 10.90625 119.664062 C 10.429688 120.3125 10.015625 121.058594 9.699219 121.910156 C 9.339844 122.875 9.117188 123.710938 8.964844 124.449219 C 8.816406 125.183594 8.734375 125.84375 8.660156 126.441406 C 8.574219 127.132812 8.5 127.742188 8.332031 128.339844 C 8.15625 128.953125 7.882812 129.542969 7.410156 130.164062 C 7.3125 130.296875 7.191406 130.457031 7.113281 130.597656 C 6.75 131.179688 6.464844 131.867188 6.28125 132.597656 C 6.101562 133.3125 6.015625 134.070312 6.046875 134.816406 C 6.085938 135.613281 6.257812 136.398438 6.59375 137.101562 C 6.894531 137.722656 7.320312 138.277344 7.898438 138.71875 C 8.019531 138.808594 8.128906 138.882812 8.253906 138.960938 C 8.945312 139.394531 9.398438 139.835938 9.722656 140.273438 C 10.039062 140.699219 10.230469 141.105469 10.40625 141.5 L 10.421875 141.539062 C 10.640625 142.023438 10.855469 142.496094 11.222656 142.902344 C 11.59375 143.308594 12.144531 143.683594 13.074219 144.023438 C 13.835938 144.304688 14.550781 144.328125 15.257812 144.222656 C 16.007812 144.109375 16.765625 143.84375 17.558594 143.570312 C 18.46875 143.253906 19.429688 142.917969 20.507812 142.792969 C 21.613281 142.660156 22.8125 142.75 24.160156 143.300781 C 25.738281 143.945312 27.011719 144.125 28.011719 144.078125 C 29.59375 144 30.5 143.339844 30.851562 143.019531 C 30.953125 142.921875 31.117188 142.875 31.289062 142.910156 C 32.203125 143.078125 33.152344 143.210938 34.132812 143.300781 C 35.105469 143.394531 36.117188 143.449219 37.148438 143.46875 C 37.273438 143.472656 37.402344 143.515625 37.5 143.59375 C 37.9375 143.941406 39.214844 145.023438 39.914062 146.171875 C 40.359375 146.902344 40.578125 147.667969 40.246094 148.332031 C 39.859375 149.105469 40.078125 149.777344 40.554688 150.367188 C 41.066406 151 41.894531 151.574219 42.628906 152.085938 L 42.65625 152.101562 C 42.980469 152.324219 43.28125 152.535156 43.53125 152.730469 C 43.804688 152.949219 44.019531 153.179688 44.214844 153.394531 L 44.222656 153.402344 C 44.601562 153.8125 44.9375 154.175781 45.496094 154.328125 C 46.121094 154.5 47.078125 154.46875 48.742188 154.089844 C 49.726562 153.863281 50.53125 153.765625 51.191406 153.769531 C 51.902344 153.773438 52.453125 153.894531 52.894531 154.101562 C 53.324219 154.304688 53.648438 154.597656 53.90625 154.949219 C 54.140625 155.269531 54.316406 155.636719 54.46875 156.015625 C 54.648438 156.472656 54.914062 156.863281 55.277344 157.148438 C 55.601562 157.402344 56.015625 157.582031 56.539062 157.664062 C 57.007812 157.738281 57.570312 157.722656 58.234375 157.605469 C 58.882812 157.492188 59.625 157.277344 60.464844 156.949219 C 61.347656 156.601562 62.054688 156.40625 62.628906 156.328125 C 63.257812 156.246094 63.746094 156.300781 64.140625 156.449219 L 64.160156 156.460938 C 64.550781 156.613281 64.84375 156.867188 65.085938 157.179688 C 65.304688 157.453125 65.476562 157.769531 65.644531 158.09375 C 65.71875 158.238281 65.800781 158.375 65.882812 158.511719 C 65.96875 158.640625 66.054688 158.765625 66.136719 158.875 L 66.15625 158.898438 C 66.25 159.019531 66.347656 159.136719 66.449219 159.246094 C 66.550781 159.355469 66.65625 159.457031 66.757812 159.546875 C 67.085938 159.832031 67.609375 160.011719 68.242188 160.089844 C 69.007812 160.1875 69.929688 160.148438 70.878906 160.003906 L 71.453125 159.90625 C 71.582031 159.882812 71.734375 159.90625 71.859375 159.984375 C 72.476562 160.367188 72.921875 160.992188 73.375 161.625 L 73.378906 161.628906 C 73.769531 162.179688 74.171875 162.742188 74.675781 163.15625 C 75.144531 163.546875 75.722656 163.828125 76.523438 163.878906 C 77.609375 163.949219 78.449219 163.878906 79.101562 163.820312 L 79.152344 163.816406 C 79.546875 163.777344 79.859375 163.75 80.136719 163.769531 C 80.535156 163.796875 80.832031 163.910156 81.042969 164.179688 C 81.21875 164.40625 81.636719 164.632812 82.21875 164.808594 L 82.230469 164.816406 C 82.820312 164.992188 83.550781 165.109375 84.347656 165.117188 C 85 165.121094 85.710938 165.054688 86.4375 164.898438 C 87.085938 164.757812 87.746094 164.546875 88.394531 164.242188 C 90.945312 163.039062 92.652344 163.640625 94.339844 164.242188 C 94.765625 164.390625 95.191406 164.542969 95.625 164.664062 C 96.132812 164.804688 96.488281 164.691406 96.761719 164.445312 C 97.105469 164.132812 97.382812 163.609375 97.667969 163.0625 C 97.929688 162.566406 98.203125 162.046875 98.574219 161.632812 C 98.992188 161.167969 99.527344 160.851562 100.265625 160.867188 C 100.859375 160.878906 101.417969 160.820312 101.933594 160.707031 C 102.5 160.582031 103.011719 160.394531 103.449219 160.171875 C 103.953125 159.914062 104.363281 159.601562 104.667969 159.28125 C 104.96875 158.957031 105.15625 158.625 105.207031 158.335938 C 105.304688 157.753906 106.828125 157.550781 108.4375 157.5 C 109.855469 157.453125 111.351562 157.5 111.777344 157.511719 C 111.832031 157.511719 111.886719 157.519531 111.941406 157.535156 C 115.230469 158.496094 118.480469 158.898438 122.257812 158.195312 C 126.078125 157.488281 130.457031 155.652344 135.96875 152.136719 C 136.082031 152.054688 136.25 152.027344 136.414062 152.074219 C 136.988281 152.234375 137.570312 152.347656 138.15625 152.414062 C 138.726562 152.472656 139.300781 152.492188 139.875 152.464844 C 140.019531 152.445312 140.183594 152.488281 140.300781 152.582031 C 140.5 152.738281 140.519531 152.984375 140.34375 153.128906 C 139.082031 154.203125 137.960938 155.648438 136.988281 157.46875 C 136.007812 159.304688 135.171875 161.523438 134.484375 164.117188 C 135.882812 164.113281 137.160156 164.019531 138.316406 163.839844 C 139.472656 163.664062 140.515625 163.398438 141.441406 163.050781 C 142.261719 162.742188 142.992188 162.363281 143.632812 161.917969 C 144.265625 161.480469 144.808594 160.976562 145.265625 160.410156 C 145.296875 160.367188 145.339844 160.328125 145.394531 160.296875 C 145.605469 160.179688 145.90625 160.234375 146.066406 160.417969 C 146.632812 161.058594 147.277344 161.699219 148.003906 162.328125 C 148.691406 162.925781 149.464844 163.523438 150.320312 164.105469 L 150.335938 164.117188 C 151.292969 162.710938 152.09375 161.363281 152.75 160.082031 C 153.453125 158.710938 154 157.40625 154.410156 156.1875 C 154.425781 156.125 154.46875 156.070312 154.523438 156.027344 C 154.710938 155.886719 155.011719 155.902344 155.199219 156.066406 C 157.074219 157.664062 159.125 158.675781 161.359375 159.105469 C 163.59375 159.539062 166.023438 159.386719 168.644531 158.652344 L 168.710938 158.632812 C 168.472656 158.273438 168.226562 157.886719 167.96875 157.472656 L 166.445312 154.996094 C 166.40625 154.9375 166.390625 154.875 166.390625 154.8125 C 166.390625 154.597656 166.605469 154.441406 166.871094 154.460938 C 167.710938 154.519531 168.304688 154.398438 168.777344 154.179688 C 169.265625 153.957031 169.65625 153.617188 170.050781 153.273438 C 170.304688 153.050781 170.5625 152.832031 170.867188 152.625 C 171.175781 152.421875 171.527344 152.242188 171.949219 152.121094 L 171.980469 152.113281 C 173.410156 151.71875 174.84375 151.722656 176.246094 151.730469 L 176.28125 151.730469 C 179.550781 151.746094 182.675781 151.761719 185.296875 146.792969 C 185.351562 146.691406 185.460938 146.613281 185.609375 146.589844 C 187.773438 146.242188 189.886719 145.742188 191.945312 145.097656 C 194.007812 144.453125 196.027344 143.660156 197.988281 142.71875 C 201.511719 141.023438 204.226562 138.976562 206.921875 136.945312 L 206.933594 136.9375 C 207.695312 136.363281 208.453125 135.789062 209.234375 135.21875 C 209.394531 135.105469 209.652344 135.101562 209.839844 135.222656 C 210.058594 135.363281 210.109375 135.609375 209.957031 135.769531 C 205.957031 140.097656 201.167969 144.277344 195.675781 148.164062 C 190.378906 151.90625 184.425781 155.378906 177.882812 158.449219 C 171.078125 161.644531 163.636719 164.40625 155.640625 166.578125 C 148.082031 168.636719 140.023438 170.171875 131.535156 171.058594 C 127.296875 171.503906 123.113281 171.859375 118.992188 172.136719 C 114.792969 172.414062 110.667969 172.605469 106.632812 172.71875 C 91.972656 173.117188 78.273438 172.429688 65.914062 170.828125 C 53.097656 169.167969 41.710938 166.515625 32.179688 163.054688 C 22.738281 159.628906 15.117188 155.40625 9.730469 150.570312 C 4.441406 145.824219 1.304688 140.488281 0.703125 134.726562 C 0.671875 134.460938 0.652344 134.207031 0.636719 133.96875 C 0.621094 133.742188 0.609375 133.492188 0.605469 133.226562 L 0.601562 133.210938 C 0.488281 128.941406 1.535156 124.140625 4.09375 119.171875 C 6.363281 114.769531 9.816406 110.238281 14.699219 105.820312 C 18.921875 102 24.21875 98.265625 30.738281 94.785156 C 36.695312 91.609375 43.683594 88.636719 51.816406 86 C 51.960938 85.941406 52.148438 85.949219 52.304688 86.039062 C 52.53125 86.164062 52.601562 86.40625 52.46875 86.582031 C 51.125 88.277344 49.90625 89.984375 48.78125 91.679688 C 47.652344 93.375 46.613281 95.0625 45.636719 96.707031 L 44.65625 98.34375 L 43.71875 99.890625 C 43.699219 99.917969 43.679688 99.941406 43.65625 99.964844 C 43.480469 100.128906 42.589844 100.933594 41.277344 101.695312 C 39.945312 102.464844 38.167969 103.195312 36.222656 103.199219 L 36.191406 103.199219 C 36.058594 103.199219 35.921875 103.203125 35.789062 103.210938 C 35.660156 103.214844 35.535156 103.226562 35.410156 103.238281 L 35.375 103.242188 C 34.597656 103.328125 33.925781 103.53125 33.351562 103.8125 C 32.726562 104.121094 32.214844 104.527344 31.808594 104.992188 L 31.792969 105.011719 C 31.417969 105.453125 31.136719 105.941406 30.945312 106.445312 Z M 203.820312 118.890625 C 204.101562 118.125 204.371094 117.402344 204.9375 116.828125 C 205.164062 116.597656 205.421875 116.394531 205.699219 116.203125 C 205.972656 116.015625 206.25 115.84375 206.535156 115.671875 L 206.5625 115.652344 C 207.589844 115.027344 208.703125 114.34375 209.433594 112.980469 C 209.875 112.15625 209.921875 111.585938 209.789062 111.15625 C 209.660156 110.746094 209.34375 110.429688 209.058594 110.140625 C 208.824219 109.910156 208.621094 109.703125 208.582031 109.375 C 208.546875 109.078125 208.6875 108.746094 209.148438 108.324219 C 209.359375 108.132812 209.628906 107.921875 209.960938 107.691406 C 210.285156 107.460938 210.675781 107.207031 211.128906 106.921875 C 211.5625 106.652344 212.085938 106.335938 212.691406 105.976562 L 214.753906 104.761719 C 215.574219 104.285156 216.082031 103.742188 216.363281 103.175781 C 216.648438 102.609375 216.707031 102.007812 216.625 101.40625 C 216.539062 100.808594 216.316406 100.210938 216.03125 99.644531 C 215.742188 99.074219 215.398438 98.535156 215.066406 98.058594 L 215.046875 98.035156 C 213.882812 96.367188 212.558594 95.242188 211.539062 94.378906 L 211.484375 94.332031 C 211.089844 94 210.746094 93.707031 210.472656 93.433594 C 209.488281 92.453125 209.539062 90.734375 209.59375 89.085938 L 209.59375 89.0625 C 209.632812 87.898438 209.667969 86.765625 209.363281 85.953125 C 209.101562 85.257812 208.546875 84.789062 207.402344 84.757812 C 206.039062 84.714844 204.988281 84.328125 204.1875 83.828125 C 202.71875 82.902344 202.125 81.597656 202.039062 81.398438 L 202.019531 81.324219 C 201.925781 80.953125 201.789062 80.582031 201.613281 80.207031 C 201.433594 79.824219 201.207031 79.433594 200.945312 79.046875 C 200.621094 78.570312 200.238281 78.089844 199.800781 77.609375 L 199.777344 77.585938 C 199.320312 77.085938 198.796875 76.582031 198.21875 76.074219 C 198.105469 75.976562 198.050781 75.839844 198.085938 75.707031 C 198.140625 75.503906 198.394531 75.386719 198.652344 75.449219 C 202.25 76.328125 205.402344 77.554688 208.148438 79.046875 C 211.105469 80.65625 213.589844 82.578125 215.648438 84.703125 C 218.085938 87.222656 219.929688 90.035156 221.261719 92.964844 C 222.730469 96.199219 223.578125 99.578125 223.910156 102.871094 C 224.066406 104.425781 224.089844 106.007812 223.984375 107.605469 C 223.878906 109.210938 223.640625 110.835938 223.273438 112.476562 C 222.914062 114.082031 222.429688 115.703125 221.824219 117.332031 C 221.222656 118.960938 220.496094 120.597656 219.65625 122.234375 C 219.582031 122.394531 219.375 122.492188 219.148438 122.453125 C 217.679688 122.207031 215.90625 122.113281 213.828125 122.1875 C 211.730469 122.261719 209.328125 122.496094 206.625 122.894531 L 206.609375 122.898438 C 205.925781 122.996094 205.257812 123.085938 204.609375 123.164062 C 203.988281 123.238281 203.378906 123.308594 202.777344 123.371094 C 202.433594 123.410156 202.085938 123.4375 201.742188 123.46875 L 200.8125 123.542969 C 200.621094 123.570312 200.410156 123.496094 200.296875 123.34375 C 200.148438 123.15625 200.210938 122.917969 200.433594 122.816406 C 201.59375 122.285156 202.308594 121.648438 202.796875 120.984375 C 203.289062 120.304688 203.5625 119.582031 203.820312 118.890625 " fill-opacity="1" fill-rule="evenodd"/></g><path fill="#431c16" d="M 36.945312 124.6875 C 39.554688 123.089844 44.429688 118.859375 49.023438 115.367188 C 61.894531 105.582031 80.792969 91.210938 96.535156 87.71875 C 107.699219 85.238281 114.265625 86.378906 120.945312 87.539062 C 125.492188 88.328125 131.152344 89.429688 137.328125 89.0625 C 134.273438 90.664062 124.484375 88.933594 120.824219 88.300781 C 114.261719 87.160156 107.808594 86.039062 96.855469 88.472656 C 81.324219 91.917969 62.515625 106.21875 49.707031 115.953125 C 46.042969 118.742188 41.15625 122.949219 36.945312 124.6875 " fill-opacity="1" fill-rule="nonzero"/><path fill="#431c16" d="M 48.847656 142.492188 C 47.699219 142.777344 46.53125 143.023438 45.363281 143.222656 C 39.417969 144.230469 33.503906 144.03125 28.859375 142.746094 C 24.121094 141.4375 20.6875 139 19.824219 135.558594 C 19.78125 135.394531 19.746094 135.21875 19.714844 135.035156 C 19.402344 133.207031 19.894531 131.316406 20.871094 129.425781 C 21.835938 127.566406 23.265625 125.703125 24.851562 123.898438 C 29.515625 118.605469 32.738281 114.902344 35.714844 110.960938 C 38.699219 107.019531 41.457031 102.820312 45.203125 96.511719 C 47.941406 91.902344 51.171875 86.964844 55.515625 82.332031 C 59.867188 77.6875 65.332031 73.34375 72.535156 69.9375 C 85.417969 63.84375 94.824219 64.296875 105.621094 64.8125 C 110.4375 65.046875 115.53125 65.292969 121.332031 64.96875 C 126.78125 64.664062 131.636719 63.542969 136.355469 62.453125 C 142.496094 61.035156 148.40625 59.675781 155.136719 60.191406 C 157.570312 60.375 160.121094 60.714844 162.726562 61.183594 C 165.421875 61.667969 168.160156 62.285156 170.867188 63.011719 C 180.738281 65.660156 190.367188 69.777344 196.363281 74.097656 C 198.5625 75.679688 200.28125 77.296875 201.359375 78.882812 C 202.464844 80.511719 202.898438 82.113281 202.492188 83.628906 C 202.375 84.066406 202.1875 84.5 201.925781 84.914062 C 203.308594 85.835938 204.414062 86.878906 205.269531 88.019531 C 207.570312 91.089844 208.046875 94.847656 207.347656 98.785156 C 206.65625 102.679688 204.8125 106.753906 202.453125 110.515625 C 199.191406 115.703125 194.941406 120.296875 191.371094 122.972656 L 190.691406 122.382812 C 194.203125 119.75 198.382812 115.226562 201.59375 110.117188 C 203.914062 106.417969 205.726562 102.417969 206.402344 98.609375 C 207.070312 94.84375 206.628906 91.269531 204.464844 88.382812 C 203.609375 87.238281 202.480469 86.199219 201.039062 85.296875 C 200.835938 85.171875 200.773438 84.941406 200.890625 84.777344 C 201.210938 84.332031 201.433594 83.871094 201.558594 83.402344 C 201.910156 82.085938 201.519531 80.667969 200.53125 79.210938 C 199.519531 77.714844 197.875 76.175781 195.769531 74.65625 C 189.875 70.417969 180.390625 66.367188 170.644531 63.75 C 167.949219 63.027344 165.242188 62.414062 162.597656 61.9375 C 160.046875 61.480469 157.535156 61.148438 155.128906 60.964844 C 148.5625 60.460938 142.738281 61.804688 136.6875 63.203125 C 131.921875 64.300781 127.015625 65.433594 121.472656 65.742188 C 115.613281 66.070312 110.488281 65.824219 105.644531 65.59375 C 94.992188 65.078125 85.722656 64.632812 73.070312 70.617188 C 65.972656 73.976562 60.582031 78.253906 56.292969 82.832031 C 51.992188 87.421875 48.789062 92.320312 46.070312 96.894531 C 42.316406 103.21875 39.546875 107.4375 36.539062 111.410156 C 33.535156 115.382812 30.3125 119.089844 25.644531 124.386719 C 24.089844 126.15625 22.691406 127.972656 21.757812 129.78125 C 20.839844 131.558594 20.375 133.320312 20.660156 134.996094 C 20.683594 135.148438 20.71875 135.304688 20.757812 135.46875 C 21.539062 138.578125 24.710938 140.800781 29.09375 142.015625 C 33.578125 143.253906 39.308594 143.441406 45.089844 142.460938 C 46.21875 142.269531 47.359375 142.03125 48.5 141.746094 L 48.847656 142.492188 " fill-opacity="1" fill-rule="nonzero"/><g clip-path="url(#id4)"><path fill="#431c16" d="M 188.777344 121.703125 C 192.132812 122.585938 195.355469 123.433594 199.3125 123.242188 C 200.332031 123.195312 201.4375 123.109375 202.625 122.988281 L 202.652344 122.988281 C 203.828125 122.867188 205.109375 122.710938 206.492188 122.515625 L 206.5 122.511719 C 216.28125 121.066406 222.140625 121.742188 224.078125 124.539062 L 224.101562 124.574219 C 224.585938 125.386719 224.753906 126.132812 224.601562 126.816406 C 224.445312 127.507812 223.96875 128.117188 223.171875 128.644531 C 222.042969 129.394531 220.386719 130.011719 218.636719 130.664062 C 216.980469 131.28125 215.230469 131.933594 213.804688 132.746094 C 211.398438 134.117188 209.335938 135.671875 207.261719 137.238281 C 204.550781 139.285156 201.820312 141.34375 198.257812 143.058594 C 192.625 145.757812 186.589844 147.253906 180.152344 147.539062 C 173.71875 147.824219 166.890625 146.902344 159.664062 144.773438 L 159.917969 144.046875 C 167.019531 146.136719 173.71875 147.042969 180.019531 146.761719 C 186.3125 146.484375 192.210938 145.023438 197.722656 142.378906 C 201.207031 140.703125 203.902344 138.667969 206.582031 136.644531 C 208.675781 135.066406 210.761719 133.492188 213.210938 132.09375 C 214.699219 131.246094 216.484375 130.582031 218.179688 129.949219 C 219.878906 129.316406 221.484375 128.71875 222.53125 128.027344 C 223.167969 127.605469 223.542969 127.136719 223.660156 126.617188 C 223.777344 126.101562 223.640625 125.519531 223.25 124.871094 C 221.558594 122.433594 216.054688 121.902344 206.746094 123.277344 L 206.730469 123.28125 C 205.359375 123.472656 204.066406 123.632812 202.851562 123.757812 L 202.824219 123.761719 C 201.601562 123.886719 200.476562 123.972656 199.449219 124.019531 C 195.308594 124.21875 192 123.347656 188.558594 122.441406 C 184.460938 121.363281 180.164062 120.234375 174.050781 120.871094 C 177.121094 119.113281 186.972656 121.226562 188.777344 121.703125 " fill-opacity="1" fill-rule="nonzero"/></g><path fill="#431c16" d="M 46.257812 140.101562 C 47.144531 140.648438 48.070312 141.21875 49.082031 141.777344 C 57.597656 146.5 67.960938 147.445312 77.703125 148.335938 C 84.144531 148.921875 90.3125 149.480469 95.554688 151.085938 C 99.125 152.179688 102.167969 153.414062 104.957031 154.542969 C 114.625 158.464844 121.171875 161.117188 135.855469 151.691406 L 136.488281 152.316406 C 121.355469 162.03125 114.585938 159.289062 104.589844 155.238281 C 101.824219 154.113281 98.804688 152.890625 95.289062 151.8125 C 90.15625 150.242188 84.050781 149.6875 77.675781 149.105469 C 67.816406 148.210938 57.324219 147.25 48.59375 142.410156 C 47.542969 141.828125 46.613281 141.257812 45.726562 140.710938 C 43.054688 139.0625 40.746094 137.640625 36.941406 137.082031 C 40.179688 136.269531 45.007812 139.332031 46.257812 140.101562 " fill-opacity="1" fill-rule="nonzero"/><path fill="#431c16" d="M 142.324219 142.214844 L 142.3125 142.992188 C 131.671875 142.386719 125.121094 135.023438 115.21875 134.007812 C 111.996094 133.675781 108.5 133.960938 104.5625 135.253906 C 121.746094 128.210938 128.085938 141.132812 142.324219 142.214844 " fill-opacity="1" fill-rule="nonzero"/><path fill="#431c16" d="M 152.503906 151.808594 C 152.21875 153.460938 151.199219 155.855469 149.445312 159 C 149.339844 159.1875 149.058594 159.257812 148.816406 159.15625 C 148.765625 159.132812 148.714844 159.101562 148.675781 159.070312 C 147.386719 157.972656 146.300781 156.15625 145.734375 154.308594 C 145.375 153.148438 145.21875 151.96875 145.339844 150.941406 C 145.464844 149.871094 145.890625 148.953125 146.703125 148.367188 C 146.882812 148.238281 147.074219 148.125 147.289062 148.027344 C 146.398438 147.832031 145.589844 147.988281 144.9375 148.414062 C 144.34375 148.800781 143.863281 149.402344 143.539062 150.167969 C 143.207031 150.953125 143.046875 151.910156 143.101562 152.96875 C 143.261719 156.042969 145.238281 160.003906 150.171875 163.515625 C 154.542969 156.960938 155.414062 151.710938 154.652344 148.652344 C 154.429688 147.753906 154.066406 147.0625 153.617188 146.597656 C 153.222656 146.191406 152.757812 145.972656 152.269531 145.96875 C 151.320312 145.957031 150.21875 146.679688 149.210938 148.269531 C 149.144531 148.382812 149.015625 148.464844 148.847656 148.476562 C 148.234375 148.519531 147.746094 148.695312 147.371094 148.964844 C 146.734375 149.425781 146.394531 150.183594 146.292969 151.085938 C 146.183594 152.023438 146.324219 153.109375 146.65625 154.183594 C 147.109375 155.65625 147.90625 157.097656 148.863281 158.101562 C 150.402344 155.28125 151.300781 153.125 151.5625 151.636719 C 151.792969 150.296875 151.496094 149.585938 150.671875 149.5 C 151.492188 148.949219 152.894531 149.566406 152.503906 151.808594 Z M 148.511719 147.625 C 149.652344 145.945312 150.980469 145.175781 152.199219 145.191406 C 153.003906 145.199219 153.746094 145.527344 154.347656 146.148438 C 154.894531 146.714844 155.332031 147.535156 155.589844 148.566406 C 156.398438 151.824219 155.46875 157.417969 150.753906 164.328125 C 150.632812 164.507812 150.34375 164.558594 150.109375 164.445312 L 150.03125 164.398438 C 144.515625 160.632812 142.324219 156.292969 142.148438 152.9375 C 142.089844 151.777344 142.265625 150.730469 142.632812 149.863281 C 143.007812 148.972656 143.582031 148.261719 144.296875 147.792969 C 145.4375 147.046875 146.914062 146.914062 148.511719 147.625 " fill-opacity="1" fill-rule="nonzero"/><path fill="#431c16" d="M 151.46875 145.492188 C 152.191406 142.300781 151.695312 139.375 149.976562 136.722656 C 148.339844 134.199219 145.589844 131.898438 141.722656 129.835938 C 141.410156 134.253906 141.597656 137.921875 142.289062 140.835938 C 143 143.828125 144.238281 146.007812 145.996094 147.375 L 145.367188 147.914062 C 143.445312 146.417969 142.101562 144.089844 141.351562 140.921875 C 140.613281 137.816406 140.4375 133.886719 140.816406 129.128906 C 140.816406 129.066406 140.835938 129.007812 140.875 128.953125 C 141 128.773438 141.289062 128.722656 141.523438 128.84375 C 145.894531 131.078125 148.992188 133.601562 150.8125 136.410156 C 152.640625 139.230469 153.171875 142.324219 152.40625 145.695312 L 151.46875 145.492188 " fill-opacity="1" fill-rule="nonzero"/><path fill="#431c16" d="M 151.605469 140.597656 C 152.050781 138.25 153.503906 136.191406 155.960938 134.417969 C 158.386719 132.667969 161.792969 131.195312 166.175781 130 C 166.417969 129.9375 166.699219 130.046875 166.800781 130.253906 C 166.828125 130.3125 166.84375 130.367188 166.839844 130.425781 C 166.597656 134.480469 165.511719 138.011719 163.585938 141.015625 C 161.652344 144.027344 158.882812 146.507812 155.269531 148.453125 L 154.695312 147.796875 C 158.1875 145.914062 160.867188 143.519531 162.726562 140.613281 C 164.496094 137.851562 165.53125 134.628906 165.839844 130.941406 C 161.90625 132.066406 158.835938 133.425781 156.625 135.019531 C 154.324219 136.683594 152.960938 138.601562 152.546875 140.78125 L 151.605469 140.597656 " fill-opacity="1" fill-rule="nonzero"/><path fill="#431c16" d="M 157.5625 146.214844 C 162.148438 147.136719 165.128906 152.003906 167.640625 156.101562 C 168.148438 156.9375 168.640625 157.734375 169.128906 158.472656 C 169.257812 158.667969 169.175781 158.898438 168.945312 158.988281 L 168.867188 159.011719 C 163.144531 160.617188 158.277344 159.542969 154.265625 155.777344 L 154.964844 155.296875 C 158.566406 158.675781 162.921875 159.707031 168.039062 158.398438 C 167.636719 157.773438 167.222656 157.097656 166.792969 156.398438 C 164.382812 152.464844 161.523438 147.796875 157.414062 146.96875 L 157.5625 146.214844 " fill-opacity="1" fill-rule="nonzero"/><path fill="#431c16" d="M 142.917969 152 C 139.4375 153.554688 136.824219 157.464844 135.089844 163.71875 C 137.515625 163.660156 139.558594 163.316406 141.210938 162.695312 C 142.984375 162.023438 144.316406 161.027344 145.210938 159.699219 L 146.058594 160.121094 C 145.074219 161.574219 143.613281 162.671875 141.671875 163.402344 C 139.753906 164.128906 137.371094 164.496094 134.527344 164.507812 C 134.480469 164.507812 134.433594 164.503906 134.386719 164.492188 C 134.128906 164.429688 133.964844 164.214844 134.015625 164.007812 C 135.808594 157.242188 138.601562 153.011719 142.410156 151.3125 L 142.917969 152 " fill-opacity="1" fill-rule="nonzero"/><path fill="#431c16" d="M 143.257812 145.160156 C 141.117188 144.949219 139 145.148438 136.910156 145.753906 C 134.921875 146.324219 132.960938 147.265625 131.015625 148.570312 C 132.65625 149.992188 134.3125 150.980469 135.988281 151.539062 C 137.753906 152.128906 139.554688 152.242188 141.390625 151.875 L 141.691406 152.632812 C 139.664062 153.039062 137.664062 152.914062 135.695312 152.253906 C 133.746094 151.605469 131.84375 150.441406 129.984375 148.757812 L 129.980469 148.75 C 129.796875 148.585938 129.808594 148.339844 130 148.207031 C 132.140625 146.71875 134.3125 145.65625 136.519531 145.019531 C 138.746094 144.375 141 144.164062 143.289062 144.386719 L 143.257812 145.160156 " fill-opacity="1" fill-rule="nonzero"/><g clip-path="url(#id5)"><path fill="#431c16" d="M 167.003906 62.097656 C 173.839844 60.910156 180.617188 57.429688 185.574219 54.878906 C 188.546875 53.351562 190.878906 52.152344 192.277344 51.945312 L 192.300781 51.945312 C 193.425781 51.78125 194.242188 52.015625 194.816406 52.503906 C 195.367188 52.96875 195.65625 53.65625 195.773438 54.441406 C 195.878906 55.179688 195.835938 56.019531 195.714844 56.84375 C 195.554688 57.90625 195.257812 58.941406 194.992188 59.695312 C 194.429688 61.246094 193.558594 62.859375 192.371094 64.535156 C 191.191406 66.203125 189.695312 67.933594 187.890625 69.726562 L 187.132812 69.199219 C 188.90625 67.4375 190.375 65.738281 191.53125 64.105469 C 192.683594 62.480469 193.53125 60.917969 194.070312 59.417969 C 194.328125 58.691406 194.613281 57.695312 194.765625 56.679688 C 194.882812 55.917969 194.921875 55.140625 194.824219 54.46875 C 194.730469 53.851562 194.527344 53.332031 194.15625 53.015625 C 193.820312 52.730469 193.300781 52.601562 192.546875 52.707031 L 192.519531 52.714844 C 191.285156 52.898438 189.019531 54.066406 186.128906 55.546875 C 181.117188 58.125 174.265625 61.644531 167.277344 62.859375 L 167.003906 62.097656 " fill-opacity="1" fill-rule="nonzero"/></g><path fill="#431c16" d="M 176.867188 90.722656 C 170.46875 91.113281 153.46875 91.203125 147.914062 89.34375 C 158.246094 90.40625 168.875 90.425781 176.714844 89.941406 C 184.535156 89.464844 192.378906 88.222656 197.707031 86.210938 C 194.457031 89.078125 181.296875 90.449219 176.867188 90.722656 " fill-opacity="1" fill-rule="nonzero"/><g clip-path="url(#id6)"><path fill="#431c16" d="M 53.527344 85.882812 C 35.769531 91.453125 23.347656 98.605469 15.066406 106.09375 C 4.753906 115.425781 0.863281 125.273438 1.078125 133.238281 C 1.09375 133.734375 1.125 134.230469 1.179688 134.726562 C 2.378906 146.195312 13.8125 155.972656 32.34375 162.699219 C 50.988281 169.46875 76.785156 173.136719 106.578125 172.328125 C 114.601562 172.109375 122.910156 171.566406 131.4375 170.675781 C 148.832031 168.851562 164.421875 164.304688 177.621094 158.109375 C 192.246094 151.242188 203.925781 142.359375 211.855469 132.929688 L 212.660156 133.40625 C 204.660156 142.914062 192.886719 151.871094 178.148438 158.792969 C 164.863281 165.027344 149.160156 169.609375 131.632812 171.445312 C 123.066406 172.34375 114.730469 172.890625 106.6875 173.105469 C 76.75 173.921875 50.796875 170.226562 32.019531 163.40625 C 13.125 156.550781 1.460938 146.523438 0.226562 134.726562 C 0.171875 134.21875 0.140625 133.707031 0.125 133.1875 C -0.09375 125.0625 3.855469 115.023438 14.332031 105.550781 C 22.695312 97.984375 35.222656 90.765625 53.121094 85.152344 Z M 219.074219 122.332031 C 220.816406 118.984375 222.070312 115.648438 222.804688 112.378906 C 223.527344 109.136719 223.746094 105.957031 223.433594 102.871094 C 222.804688 96.660156 220.339844 90.152344 215.285156 84.925781 C 211.097656 80.605469 205.125 77.152344 196.933594 75.457031 L 197.085938 74.707031 C 205.53125 76.449219 211.691406 80.015625 216.011719 84.480469 C 221.210938 89.851562 223.742188 96.515625 224.386719 102.875 C 224.707031 106.023438 224.484375 109.273438 223.742188 112.578125 C 222.996094 115.910156 221.726562 119.292969 219.957031 122.6875 L 219.074219 122.332031 " fill-opacity="1" fill-rule="nonzero"/></g><path fill="#431c16" d="M 202.484375 81.277344 C 202.484375 81.285156 203.644531 84.257812 207.378906 84.367188 C 210.222656 84.453125 210.148438 86.710938 210.070312 89.105469 C 210.023438 90.6875 209.96875 92.339844 210.832031 93.207031 C 211.089844 93.464844 211.445312 93.761719 211.84375 94.101562 C 212.886719 94.980469 214.25 96.136719 215.457031 97.867188 C 216.152344 98.863281 216.921875 100.117188 217.097656 101.394531 C 217.28125 102.722656 216.832031 104.042969 215.054688 105.085938 C 213.542969 105.96875 212.351562 106.667969 211.441406 107.238281 C 210.539062 107.804688 209.910156 108.238281 209.515625 108.597656 C 208.777344 109.269531 209.058594 109.554688 209.417969 109.914062 C 210.058594 110.554688 210.847656 111.34375 209.875 113.160156 C 209.097656 114.613281 207.929688 115.324219 206.859375 115.980469 C 206.28125 116.332031 205.730469 116.667969 205.324219 117.082031 C 204.804688 117.609375 204.546875 118.300781 204.277344 119.035156 C 203.589844 120.871094 202.816406 122.957031 197.984375 124.035156 L 197.660156 123.28125 C 202.039062 122.308594 202.742188 120.417969 203.359375 118.753906 C 203.65625 117.953125 203.9375 117.195312 204.554688 116.566406 C 205.035156 116.078125 205.625 115.71875 206.246094 115.339844 C 207.234375 114.738281 208.304688 114.085938 208.996094 112.796875 C 209.738281 111.410156 209.164062 110.835938 208.699219 110.371094 C 208.042969 109.714844 207.527344 109.195312 208.78125 108.054688 C 209.214844 107.65625 209.882812 107.191406 210.820312 106.605469 C 211.75 106.023438 212.945312 105.320312 214.453125 104.441406 C 215.925781 103.578125 216.296875 102.496094 216.148438 101.414062 C 215.992188 100.285156 215.28125 99.128906 214.636719 98.207031 C 213.496094 96.566406 212.183594 95.460938 211.183594 94.613281 C 210.773438 94.265625 210.410156 93.957031 210.113281 93.664062 C 209.003906 92.554688 209.0625 90.746094 209.117188 89.015625 C 209.179688 87.050781 209.238281 85.199219 207.425781 85.148438 C 202.960938 85.015625 201.578125 81.464844 201.578125 81.457031 L 202.484375 81.277344 " fill-opacity="1" fill-rule="nonzero"/><path fill="#431c16" d="M 37.660156 143.199219 C 37.671875 143.210938 41.777344 146.328125 40.691406 148.503906 C 40.039062 149.804688 41.65625 150.925781 42.9375 151.808594 C 43.269531 152.039062 43.582031 152.253906 43.847656 152.464844 C 44.15625 152.710938 44.386719 152.957031 44.597656 153.1875 C 45.21875 153.863281 45.691406 154.375 48.578125 153.710938 C 50.75 153.210938 52.148438 153.316406 53.105469 153.769531 C 54.097656 154.242188 54.570312 155.042969 54.921875 155.925781 C 55.199219 156.636719 55.722656 157.148438 56.59375 157.28125 C 57.4375 157.414062 58.617188 157.230469 60.226562 156.597656 C 62.210938 155.816406 63.460938 155.765625 64.335938 156.113281 C 65.253906 156.472656 65.679688 157.195312 66.082031 157.96875 C 66.226562 158.242188 66.382812 158.492188 66.554688 158.714844 C 66.726562 158.9375 66.90625 159.128906 67.09375 159.292969 C 67.703125 159.824219 69.15625 159.859375 70.75 159.621094 C 72.746094 159.320312 74.898438 158.578125 76 157.800781 C 76.5625 157.398438 77.199219 157.140625 77.898438 157.171875 C 78.605469 157.203125 79.335938 157.527344 80.054688 158.296875 C 81.253906 159.578125 82.589844 160.324219 83.847656 160.589844 C 85.148438 160.859375 86.371094 160.605469 87.257812 159.886719 C 87.679688 159.542969 88.046875 159.191406 88.390625 158.859375 C 89.707031 157.597656 90.796875 156.546875 93.589844 156.804688 C 95.054688 156.941406 96.394531 156.867188 97.523438 156.667969 L 97.558594 156.664062 C 98.8125 156.4375 99.792969 156.050781 100.382812 155.625 C 101.691406 154.675781 104.511719 154.445312 104.519531 154.445312 L 104.730469 155.214844 C 104.722656 155.214844 102.152344 155.425781 101.050781 156.226562 C 100.359375 156.722656 99.246094 157.167969 97.839844 157.421875 L 97.800781 157.429688 C 96.585938 157.644531 95.144531 157.722656 93.5625 157.574219 C 91.253906 157.363281 90.296875 158.28125 89.140625 159.390625 C 88.78125 159.738281 88.402344 160.101562 87.960938 160.460938 C 86.851562 161.363281 85.316406 161.679688 83.6875 161.339844 C 82.214844 161.03125 80.671875 160.179688 79.3125 158.734375 C 78.8125 158.195312 78.347656 157.96875 77.929688 157.949219 C 77.5 157.929688 77.070312 158.117188 76.660156 158.40625 C 75.453125 159.257812 73.136719 160.066406 71 160.386719 C 69.105469 160.671875 67.308594 160.570312 66.421875 159.796875 C 66.183594 159.59375 65.960938 159.351562 65.753906 159.082031 C 65.550781 158.816406 65.367188 158.523438 65.207031 158.21875 C 64.890625 157.605469 64.558594 157.03125 63.984375 156.804688 C 63.371094 156.566406 62.390625 156.636719 60.699219 157.300781 C 58.902344 158.011719 57.527344 158.207031 56.488281 158.046875 C 55.179688 157.84375 54.414062 157.109375 54.015625 156.101562 C 53.730469 155.394531 53.375 154.761719 52.679688 154.433594 C 51.949219 154.089844 50.800781 154.027344 48.90625 154.464844 C 45.375 155.273438 44.71875 154.558594 43.847656 153.617188 C 43.664062 153.414062 43.460938 153.195312 43.210938 152.996094 C 42.976562 152.8125 42.675781 152.601562 42.355469 152.382812 C 40.824219 151.324219 38.886719 149.988281 39.800781 148.160156 C 40.640625 146.480469 37.046875 143.75 37.039062 143.742188 L 37.660156 143.199219 " fill-opacity="1" fill-rule="nonzero"/><path fill="#431c16" d="M 111.917969 157.90625 C 111.902344 157.90625 105.804688 157.660156 105.679688 158.421875 C 105.5625 159.109375 104.851562 159.929688 103.726562 160.503906 C 102.824219 160.96875 101.644531 161.28125 100.292969 161.253906 C 99.167969 161.230469 98.613281 162.285156 98.113281 163.238281 C 97.507812 164.394531 96.960938 165.433594 95.507812 165.027344 C 95.050781 164.902344 94.617188 164.75 94.183594 164.59375 C 92.605469 164.035156 91.011719 163.46875 88.660156 164.578125 C 87.207031 165.265625 85.695312 165.515625 84.382812 165.503906 C 82.578125 165.488281 81.105469 164.953125 80.648438 164.371094 C 80.433594 164.097656 79.984375 164.136719 79.21875 164.203125 C 78.546875 164.265625 77.675781 164.34375 76.523438 164.265625 C 74.636719 164.140625 73.792969 162.953125 72.972656 161.804688 C 72.5 161.144531 72.042969 160.5 71.425781 160.195312 L 71.871094 159.539062 C 72.71875 159.960938 73.246094 160.699219 73.785156 161.457031 C 74.464844 162.414062 75.171875 163.402344 76.523438 163.492188 C 77.574219 163.5625 78.398438 163.488281 79.035156 163.429688 C 80.1875 163.328125 80.867188 163.265625 81.4375 163.992188 C 81.730469 164.367188 82.851562 164.714844 84.3125 164.726562 C 85.476562 164.738281 86.828125 164.515625 88.128906 163.898438 C 90.878906 162.601562 92.699219 163.246094 94.5 163.886719 C 94.914062 164.035156 95.328125 164.179688 95.742188 164.296875 C 96.390625 164.476562 96.789062 163.71875 97.226562 162.882812 C 97.835938 161.722656 98.507812 160.441406 100.238281 160.476562 C 101.390625 160.503906 102.398438 160.230469 103.167969 159.839844 C 104.078125 159.371094 104.652344 158.75 104.734375 158.25 C 104.96875 156.84375 111.859375 157.125 111.878906 157.125 L 111.917969 157.90625 " fill-opacity="1" fill-rule="nonzero"/><path fill="#431c16" d="M 44.070312 100.195312 C 44.0625 100.203125 40.554688 103.585938 36.25 103.585938 L 36.230469 103.585938 C 35.980469 103.585938 35.738281 103.601562 35.5 103.625 L 35.480469 103.628906 C 33.992188 103.789062 32.90625 104.425781 32.195312 105.253906 C 31.46875 106.101562 31.121094 107.144531 31.121094 108.101562 C 31.121094 108.234375 31.128906 108.367188 31.144531 108.503906 C 31.261719 109.632812 30.441406 110.632812 29.226562 111.441406 C 27.710938 112.453125 25.5625 113.179688 23.933594 113.460938 C 23.425781 113.550781 22.941406 113.757812 22.492188 114.039062 C 21.972656 114.367188 21.507812 114.796875 21.113281 115.265625 C 19.945312 116.660156 19.875 117.507812 19.816406 118.261719 C 19.722656 119.46875 19.640625 120.46875 16.277344 122.582031 C 15.0625 123.34375 13.800781 123.855469 12.796875 124.261719 C 11.929688 124.609375 11.261719 124.882812 11.066406 125.121094 C 10.816406 125.433594 11.09375 125.710938 11.464844 126.082031 C 12.144531 126.761719 13.042969 127.664062 12.824219 129.425781 C 12.65625 130.761719 12.640625 131.46875 12.957031 131.792969 C 13.242188 132.09375 13.992188 132.164062 15.34375 132.214844 C 16.136719 132.246094 16.789062 132.226562 17.34375 132.210938 C 19.222656 132.15625 20.148438 132.128906 20.566406 133.671875 L 19.636719 133.777344 C 19.40625 132.929688 18.765625 132.949219 17.460938 132.988281 C 16.871094 133.007812 16.171875 133.023438 15.378906 132.992188 C 13.71875 132.925781 12.78125 132.816406 12.222656 132.242188 C 11.695312 131.691406 11.679688 130.832031 11.871094 129.277344 C 12.054688 127.851562 11.304688 127.105469 10.742188 126.539062 C 10.105469 125.898438 9.636719 125.433594 10.253906 124.660156 C 10.574219 124.261719 11.332031 123.957031 12.3125 123.558594 C 13.285156 123.167969 14.496094 122.679688 15.65625 121.949219 C 18.714844 120.027344 18.785156 119.175781 18.863281 118.144531 C 18.933594 117.296875 19.007812 116.34375 20.308594 114.789062 C 20.746094 114.269531 21.273438 113.785156 21.871094 113.410156 C 22.414062 113.066406 23.019531 112.8125 23.660156 112.699219 C 25.179688 112.4375 27.183594 111.761719 28.585938 110.828125 C 29.59375 110.152344 30.28125 109.351562 30.191406 108.5 C 30.175781 108.351562 30.167969 108.195312 30.167969 108.035156 C 30.167969 106.9375 30.5625 105.738281 31.394531 104.769531 C 32.234375 103.796875 33.511719 103.050781 35.273438 102.859375 L 35.300781 102.855469 C 35.570312 102.824219 35.851562 102.808594 36.148438 102.808594 L 36.167969 102.808594 C 40.0625 102.808594 43.308594 99.675781 43.316406 99.664062 L 44.070312 100.195312 " fill-opacity="1" fill-rule="nonzero"/><path fill="#431c16" d="M 31.410156 143.09375 C 31.402344 143.101562 29.230469 145.785156 23.976562 143.644531 C 21.496094 142.636719 19.550781 143.3125 17.773438 143.933594 C 16.148438 144.496094 14.648438 145.019531 12.910156 144.375 C 10.867188 143.625 10.441406 142.675781 9.972656 141.644531 L 9.964844 141.617188 C 9.625 140.859375 9.25 140.046875 7.988281 139.265625 C 7.847656 139.179688 7.714844 139.085938 7.589844 138.992188 C 6.246094 137.96875 5.640625 136.402344 5.570312 134.792969 C 5.5 133.226562 5.9375 131.597656 6.679688 130.398438 C 6.78125 130.238281 6.886719 130.085938 6.996094 129.941406 C 7.890625 128.769531 8.019531 127.722656 8.1875 126.367188 C 8.332031 125.167969 8.511719 123.738281 9.242188 121.769531 C 9.933594 119.902344 11.074219 118.535156 12.335938 117.566406 C 14.046875 116.253906 15.996094 115.664062 17.386719 115.558594 C 19.507812 115.390625 21.152344 113.9375 21.160156 113.933594 L 21.886719 114.488281 C 21.878906 114.492188 20.015625 116.136719 17.558594 116.332031 C 16.320312 116.429688 14.574219 116.960938 13.019531 118.152344 C 11.855469 119.046875 10.800781 120.316406 10.15625 122.050781 C 9.453125 123.945312 9.28125 125.34375 9.136719 126.515625 C 8.957031 127.960938 8.820312 129.082031 7.820312 130.390625 C 7.722656 130.515625 7.628906 130.65625 7.542969 130.796875 C 6.863281 131.894531 6.460938 133.390625 6.527344 134.835938 C 6.589844 136.242188 7.09375 137.59375 8.210938 138.445312 C 8.308594 138.519531 8.410156 138.59375 8.519531 138.660156 C 10.035156 139.601562 10.464844 140.535156 10.859375 141.410156 L 10.871094 141.433594 C 11.253906 142.289062 11.609375 143.070312 13.238281 143.671875 C 14.585938 144.167969 15.90625 143.710938 17.339844 143.210938 C 19.300781 142.527344 21.453125 141.777344 24.34375 142.957031 C 28.851562 144.792969 30.605469 142.625 30.613281 142.617188 L 31.410156 143.09375 " fill-opacity="1" fill-rule="nonzero"/><path fill="#431c16" d="M 53.867188 127.675781 C 54.449219 128.378906 56.976562 129.816406 58.257812 130.296875 C 56.507812 130.6875 54.546875 129.285156 53.867188 127.675781 " fill-opacity="1" fill-rule="nonzero"/><path fill="#431c16" d="M 61.023438 129.046875 C 62.476562 129.820312 65.261719 131.335938 66.835938 131.3125 C 63.25 131.960938 62.160156 130.679688 61.023438 129.046875 " fill-opacity="1" fill-rule="nonzero"/><path fill="#431c16" d="M 48.304688 136.425781 C 49.113281 137.472656 52.632812 139.566406 53.972656 139.820312 C 52.800781 140.394531 51.621094 139.769531 50.546875 139.109375 C 49.519531 138.472656 48.4375 137.664062 48.304688 136.425781 " fill-opacity="1" fill-rule="nonzero"/><path fill="#431c16" d="M 53.203125 137.300781 C 53.722656 137.644531 56.054688 138.246094 56.792969 138.257812 C 55.476562 139.023438 53.972656 138.566406 53.203125 137.300781 " fill-opacity="1" fill-rule="nonzero"/><path fill="#431c16" d="M 59.417969 140.894531 C 60.09375 141.992188 60.910156 142.84375 61.863281 143.4375 C 62.804688 144.027344 63.890625 144.375 65.121094 144.484375 C 62.355469 145.085938 59.414062 143.269531 59.417969 140.894531 " fill-opacity="1" fill-rule="nonzero"/><path fill="#431c16" d="M 62.554688 141.9375 C 63.160156 142.152344 65.566406 142.507812 66.179688 142.503906 C 64.996094 143.515625 63.640625 143.152344 62.554688 141.9375 " fill-opacity="1" fill-rule="nonzero"/><path fill="#431c16" d="M 59.449219 137.585938 C 59.507812 137.617188 62.199219 138.277344 62.539062 138.324219 C 61.203125 139.066406 60.296875 138.777344 59.449219 137.585938 " fill-opacity="1" fill-rule="nonzero"/><path fill="#431c16" d="M 76.335938 138.398438 C 76.84375 138.664062 77.347656 138.855469 77.851562 138.972656 C 78.347656 139.089844 78.851562 139.140625 79.355469 139.117188 C 78.582031 140.328125 77.238281 139.738281 76.335938 138.398438 " fill-opacity="1" fill-rule="nonzero"/><path fill="#431c16" d="M 79.511719 127.648438 C 79.523438 127.65625 83.84375 128.238281 84.152344 128.242188 C 83.125 128.761719 83.039062 128.980469 81.859375 128.695312 C 81.488281 128.609375 81.128906 128.484375 80.777344 128.3125 L 79.511719 127.648438 " fill-opacity="1" fill-rule="nonzero"/><path fill="#431c16" d="M 95.902344 136.125 C 96.800781 136.253906 100.023438 136.355469 101.0625 136.285156 C 99.554688 137.738281 97.539062 136.84375 95.902344 136.125 " fill-opacity="1" fill-rule="nonzero"/><path fill="#431c16" d="M 90.421875 143.230469 L 94.339844 143.050781 C 92.460938 144.097656 92.371094 144.074219 90.421875 143.230469 " fill-opacity="1" fill-rule="nonzero"/><path fill="#431c16" d="M 115.148438 153.71875 C 115.757812 153.644531 116.976562 153.113281 117.480469 152.910156 C 117.980469 152.703125 119.03125 152.074219 119.421875 151.742188 C 119.660156 153.738281 116.742188 154.402344 115.148438 153.71875 " fill-opacity="1" fill-rule="nonzero"/><path fill="#431c16" d="M 123.101562 153.339844 C 123.578125 153.171875 125.140625 151.527344 125.429688 151.246094 C 125.25 152.738281 124.65625 153.082031 123.101562 153.339844 " fill-opacity="1" fill-rule="nonzero"/><path fill="#431c16" d="M 122.476562 146.5 C 122.828125 146.507812 125.496094 146.003906 125.640625 145.941406 C 124.597656 147.273438 123.984375 147.214844 122.476562 146.5 " fill-opacity="1" fill-rule="nonzero"/><path fill="#431c16" d="M 107.164062 141.5625 C 107.171875 141.566406 111.078125 142.222656 111.101562 142.222656 C 109.207031 142.953125 108.808594 142.867188 107.164062 141.5625 " fill-opacity="1" fill-rule="nonzero"/><path fill="#431c16" d="M 99.542969 150.25 C 100.375 150.410156 101.949219 150.703125 102.730469 150.765625 C 101.5 151.527344 100.355469 151.722656 99.542969 150.25 " fill-opacity="1" fill-rule="nonzero"/><path fill="#431c16" d="M 25.488281 134.335938 C 25.644531 134.824219 25.902344 135.238281 26.269531 135.566406 C 26.636719 135.894531 27.121094 136.148438 27.714844 136.324219 C 26.632812 137.171875 24.878906 135.667969 25.488281 134.335938 " fill-opacity="1" fill-rule="nonzero"/><path fill="#431c16" d="M 30.855469 138.640625 C 30.640625 138.734375 33.550781 139.722656 34.320312 139.941406 C 33.015625 140.46875 31.601562 139.847656 30.855469 138.640625 " fill-opacity="1" fill-rule="nonzero"/><path fill="#431c16" d="M 41.648438 112.277344 C 41.636719 112.28125 39.0625 114.109375 38.761719 114.296875 C 39.105469 112.855469 40.445312 112.167969 41.648438 112.277344 " fill-opacity="1" fill-rule="nonzero"/><path fill="#431c16" d="M 47.007812 106.960938 C 46.640625 106.992188 44.136719 107.589844 43.714844 107.722656 C 44.972656 106.515625 45.390625 106.242188 47.007812 106.960938 " fill-opacity="1" fill-rule="nonzero"/><path fill="#431c16" d="M 58.265625 89.328125 C 57.339844 89.726562 55.328125 91.492188 54.90625 92.332031 C 54.644531 90.183594 56.097656 88.84375 58.265625 89.328125 " fill-opacity="1" fill-rule="nonzero"/><path fill="#431c16" d="M 54.011719 91.265625 C 53.644531 91.464844 51.714844 92.484375 51.457031 92.832031 C 51.898438 91.273438 52.898438 90.859375 54.011719 91.265625 " fill-opacity="1" fill-rule="nonzero"/><path fill="#431c16" d="M 172.347656 137.058594 C 173.113281 137.152344 178.429688 136.710938 179.164062 136.488281 C 177.808594 137.949219 174.011719 138.035156 172.347656 137.058594 " fill-opacity="1" fill-rule="nonzero"/><path fill="#431c16" d="M 185.570312 133.257812 L 189.574219 132.984375 C 187.925781 133.816406 187.335938 134.109375 185.570312 133.257812 " fill-opacity="1" fill-rule="nonzero"/><path fill="#431c16" d="M 194.394531 138.527344 C 195.128906 138.519531 198.828125 137.738281 199.210938 137.523438 C 197.660156 138.707031 196.335938 139.34375 194.394531 138.527344 " fill-opacity="1" fill-rule="nonzero"/><path fill="#431c16" d="M 192.292969 140.824219 C 193.4375 140.667969 194.09375 139.800781 194.976562 139.453125 C 195.085938 140.796875 193.285156 141.265625 192.292969 140.824219 " fill-opacity="1" fill-rule="nonzero"/><path fill="#431c16" d="M 202.207031 134.925781 C 202.738281 134.699219 204.585938 132.234375 204.703125 131.800781 C 204.980469 133.8125 204.105469 134.648438 202.207031 134.925781 " fill-opacity="1" fill-rule="nonzero"/><path fill="#431c16" d="M 205.578125 133.175781 C 206.457031 133.222656 207.023438 131.789062 207.050781 131.675781 C 207.539062 133.007812 206.855469 133.976562 205.578125 133.175781 " fill-opacity="1" fill-rule="nonzero"/><path fill="#431c16" d="M 201.929688 104.484375 C 202.394531 103.609375 203.082031 100.136719 203.039062 99.285156 C 203.921875 100.84375 203.859375 103.835938 201.929688 104.484375 " fill-opacity="1" fill-rule="nonzero"/><path fill="#431c16" d="M 195.921875 109.628906 C 196.207031 109.3125 196.46875 108.945312 196.703125 108.53125 C 196.9375 108.109375 197.570312 106.917969 197.75 106.394531 C 198.347656 107.140625 197.601562 110.277344 195.921875 109.628906 " fill-opacity="1" fill-rule="nonzero"/><path fill="#431c16" d="M 194.9375 102.292969 C 195.476562 101.75 196.566406 99.527344 196.871094 98.515625 C 197.929688 100.253906 196.757812 101.894531 194.9375 102.292969 " fill-opacity="1" fill-rule="nonzero"/><path fill="#431c16" d="M 194.734375 105.140625 C 194.90625 105.03125 195.878906 103.917969 196.035156 103.734375 L 196.046875 103.71875 C 196.210938 103.515625 196.875 102.855469 197.015625 102.570312 C 197.574219 103.691406 196.113281 105.449219 194.734375 105.140625 " fill-opacity="1" fill-rule="nonzero"/><path fill="#431c16" d="M 199.851562 94.359375 C 198.652344 93.265625 199.875 92.570312 200.257812 91 C 200.480469 91.886719 200.683594 93.765625 199.851562 94.359375 " fill-opacity="1" fill-rule="nonzero"/><path fill="#431c16" d="M 190.351562 77.511719 L 186.113281 77.453125 C 187.402344 76.78125 188.800781 76.289062 190.351562 77.511719 " fill-opacity="1" fill-rule="nonzero"/><path fill="#431c16" d="M 176.390625 69.511719 C 175.714844 69.457031 174.34375 69.53125 173.664062 69.589844 L 173.640625 69.59375 C 172.96875 69.648438 171.402344 69.792969 170.714844 69.964844 C 171.441406 68.398438 175.476562 68.570312 176.390625 69.511719 " fill-opacity="1" fill-rule="nonzero"/><path fill="#431c16" d="M 170.550781 68.625 C 169.789062 68.648438 168.105469 68.882812 167.480469 69.285156 C 167.585938 67.546875 170.042969 67.707031 170.550781 68.625 " fill-opacity="1" fill-rule="nonzero"/><path fill="#431c16" d="M 169.769531 67.003906 C 169 66.683594 166.964844 66.507812 166.511719 66.621094 C 167.59375 65.832031 169.09375 65.6875 169.769531 67.003906 " fill-opacity="1" fill-rule="nonzero"/><path fill="#431c16" d="M 185.0625 65.046875 C 185.589844 64.761719 186.0625 64.402344 186.480469 63.964844 C 186.902344 63.515625 187.753906 62.53125 188.070312 61.917969 C 188.210938 63.089844 187.144531 65.585938 185.0625 65.046875 " fill-opacity="1" fill-rule="nonzero"/><path fill="#431c16" d="M 190.925781 61.851562 C 191.351562 61.402344 192.386719 59.054688 192.535156 58.535156 C 192.808594 59.921875 192.816406 61.273438 190.925781 61.851562 " fill-opacity="1" fill-rule="nonzero"/><path fill="#431c16" d="M 124.644531 73.921875 C 124.472656 73.949219 119.703125 75.019531 119.65625 75.039062 C 121.621094 73.75 122.1875 73.246094 124.644531 73.921875 " fill-opacity="1" fill-rule="nonzero"/><path fill="#431c16" d="M 146.789062 111.4375 C 147.84375 111.609375 149.988281 111.980469 150.667969 112.832031 C 148.613281 112.480469 148.574219 112.507812 146.789062 111.4375 " fill-opacity="1" fill-rule="nonzero"/><path fill="#431c16" d="M 113.542969 110.066406 L 117.160156 110.519531 C 115.335938 111.105469 115.136719 111.058594 113.542969 110.066406 " fill-opacity="1" fill-rule="nonzero"/><path fill="#431c16" d="M 89.597656 102.367188 L 93.949219 102.832031 C 91.824219 103.199219 91.566406 103.464844 89.597656 102.367188 " fill-opacity="1" fill-rule="nonzero"/><path fill="#431c16" d="M 185.828125 146.796875 C 183.078125 152.152344 179.777344 152.136719 176.320312 152.117188 C 174.945312 152.113281 173.542969 152.105469 172.167969 152.480469 C 171.402344 152.691406 170.902344 153.125 170.414062 153.550781 C 169.453125 154.386719 168.53125 155.1875 165.976562 154.730469 L 166.105469 153.972656 C 168.144531 154.339844 168.902344 153.679688 169.691406 152.992188 C 170.25 152.507812 170.824219 152.011719 171.792969 151.742188 C 173.304688 151.328125 174.792969 151.335938 176.246094 151.339844 C 179.402344 151.355469 182.410156 151.371094 184.945312 146.449219 L 185.828125 146.796875 " fill-opacity="1" fill-rule="nonzero"/><path fill="#431c16" d="M 150.195312 139.3125 C 150.636719 140.496094 151.476562 144.109375 150.578125 145.101562 C 150.777344 143.230469 150.203125 141.078125 149.585938 139.421875 C 148.964844 137.773438 147.484375 135.351562 146.046875 133.910156 C 148.007812 135.105469 149.394531 137.183594 150.195312 139.3125 " fill-opacity="1" fill-rule="nonzero"/><path fill="#431c16" d="M 156.789062 155.492188 C 157.878906 156.191406 160.167969 156.890625 161.507812 157.199219 C 162.753906 157.488281 164.113281 157.613281 165.582031 157.570312 C 165.058594 156.296875 163.363281 152.945312 162.539062 152.074219 C 164.46875 153.699219 165.390625 155.441406 166.304688 157.746094 L 166.320312 157.800781 C 166.347656 157.945312 166.226562 158.066406 166.050781 158.074219 C 164.367188 158.152344 162.8125 158.027344 161.386719 157.699219 C 159.605469 157.289062 158.179688 156.667969 156.789062 155.492188 " fill-opacity="1" fill-rule="nonzero"/><path fill="#431c16" d="M 144.722656 158.46875 C 144.234375 159.425781 143.375 160.261719 142.148438 160.960938 C 140.5625 161.871094 138.546875 162.503906 136.738281 162.773438 C 138.601562 162.34375 140.597656 161.195312 141.75 160.53125 C 142.890625 159.878906 143.683594 159.113281 144.132812 158.234375 L 144.722656 158.46875 " fill-opacity="1" fill-rule="nonzero"/><path fill="#431c16" d="M 160.515625 142 C 158.925781 144.015625 156.953125 145.644531 154.59375 146.882812 L 154.214844 146.441406 C 156.503906 145.238281 158.425781 143.652344 159.96875 141.695312 C 161.519531 139.726562 163.371094 136.972656 164.171875 134.242188 C 163.9375 136.554688 161.949219 140.175781 160.515625 142 " fill-opacity="1" fill-rule="nonzero"/><path fill="#431c16" d="M 40.019531 143.222656 C 43.1875 144.800781 42.851562 146.195312 42.550781 147.441406 C 42.351562 148.285156 42.167969 149.050781 43.542969 149.730469 C 42.449219 149.804688 41.511719 149.039062 41.925781 147.300781 C 42.183594 146.230469 42.472656 145.027344 39.722656 143.660156 L 40.019531 143.222656 " fill-opacity="1" fill-rule="nonzero"/><path fill="#431c16" d="M 55.40625 152.546875 C 56.539062 154.019531 56.484375 153.699219 57.832031 154.214844 C 56.097656 154.386719 55.507812 153.617188 54.875 152.796875 C 54.128906 151.828125 53.308594 150.769531 49.601562 151.730469 C 51.191406 150.890625 53.519531 150.105469 55.40625 152.546875 " fill-opacity="1" fill-rule="nonzero"/><path fill="#431c16" d="M 53.601562 149.914062 C 53.214844 149.671875 52.800781 149.53125 52.355469 149.5 C 51.898438 149.464844 51.402344 149.542969 50.871094 149.726562 C 51.273438 148.976562 53.441406 148.867188 53.601562 149.914062 " fill-opacity="1" fill-rule="nonzero"/><path fill="#431c16" d="M 89.152344 155.304688 C 90.585938 154.683594 92.222656 154.828125 93.878906 154.972656 C 94.828125 155.058594 96.609375 155.339844 97.507812 155.273438 C 96.246094 155.832031 95.226562 155.609375 93.863281 155.492188 C 92.304688 155.351562 90.757812 155.214844 89.488281 155.765625 C 88.996094 155.980469 88.515625 156.277344 88.058594 156.652344 C 87.597656 157.035156 87.152344 157.5 86.730469 158.046875 C 87.023438 156.671875 88.476562 155.597656 89.152344 155.304688 " fill-opacity="1" fill-rule="nonzero"/><path fill="#431c16" d="M 81.238281 162.789062 C 80.894531 162.648438 80.011719 162.554688 79.648438 162.511719 C 79.277344 162.46875 78.886719 162.472656 78.484375 162.527344 C 79.023438 162.066406 80.625 161.78125 81.238281 162.789062 " fill-opacity="1" fill-rule="nonzero"/><path fill="#431c16" d="M 120.550781 131 C 120.058594 130.851562 118.910156 130.757812 118.375 130.710938 C 117.835938 130.660156 116.734375 130.707031 116.148438 130.757812 C 117.257812 130.070312 119.722656 130.15625 120.550781 131 " fill-opacity="1" fill-rule="nonzero"/><path fill="#431c16" d="M 130.925781 134.601562 C 132.15625 135.300781 134.113281 136.019531 135.316406 136.492188 C 136.515625 136.960938 138.183594 137.648438 139.351562 137.890625 C 137.691406 138.371094 131.933594 135.96875 130.925781 134.601562 " fill-opacity="1" fill-rule="nonzero"/><path fill="#431c16" d="M 128.9375 132.15625 C 129.480469 132.5 131.59375 133.53125 132.304688 133.703125 C 131.246094 134.171875 129.390625 133.132812 128.9375 132.15625 " fill-opacity="1" fill-rule="nonzero"/><path fill="#431c16" d="M 182.0625 147.316406 C 181.625 148.109375 180.238281 149.496094 178.058594 149.195312 C 179.636719 149.039062 180.777344 148.328125 181.476562 147.070312 L 182.0625 147.316406 " fill-opacity="1" fill-rule="nonzero"/><path fill="#431c16" d="M 9.339844 133.710938 C 9.269531 136.269531 10.144531 136.6875 10.933594 137.058594 C 11.808594 137.476562 12.800781 138.53125 12.078125 139.679688 C 12.09375 138.394531 11.261719 137.792969 10.648438 137.503906 C 8.953125 136.695312 8.917969 135.675781 9.339844 133.710938 " fill-opacity="1" fill-rule="nonzero"/><path fill="#431c16" d="M 13.136719 137.347656 C 12.980469 136.976562 12.75 136.664062 12.460938 136.414062 C 12.171875 136.164062 11.8125 135.96875 11.386719 135.835938 C 12.933594 135.625 13.957031 136.800781 13.136719 137.347656 " fill-opacity="1" fill-rule="nonzero"/><path fill="#431c16" d="M 15.925781 124.335938 C 14.4375 124.667969 13.691406 125.261719 14.738281 126.449219 L 14.75 126.46875 C 15.105469 126.871094 15.460938 127.285156 15.507812 127.71875 C 15.546875 128.082031 15.445312 128.507812 15.34375 128.9375 C 15.257812 129.296875 15.171875 129.664062 15.183594 129.960938 C 15.195312 130.339844 16.03125 130.960938 16.800781 130.9375 C 15.859375 131.234375 14.585938 131.199219 14.546875 129.929688 C 14.535156 129.578125 14.628906 129.1875 14.71875 128.796875 C 14.8125 128.40625 14.90625 128.011719 14.871094 127.71875 C 14.84375 127.429688 14.542969 127.085938 14.246094 126.746094 L 14.230469 126.730469 C 13.914062 126.367188 13.601562 126.015625 13.519531 125.648438 C 13.261719 124.492188 15.132812 124.347656 15.925781 124.335938 " fill-opacity="1" fill-rule="nonzero"/><path fill="#431c16" d="M 19.4375 121.34375 C 19.96875 121.160156 20.8125 120.363281 21.03125 119.945312 C 21.261719 119.507812 21.4375 118.339844 21.34375 117.640625 C 22.792969 119.261719 21.53125 121.296875 19.4375 121.34375 " fill-opacity="1" fill-rule="nonzero"/><path fill="#f3be62" d="M 45.089844 91.523438 C 39.1875 93.707031 33.210938 96.882812 28.125 100.058594 C 23.039062 103.230469 16.945312 107.714844 12.679688 111.875 C 16.023438 107.609375 23.089844 102.515625 27.710938 99.636719 C 30.777344 97.71875 40.636719 92.160156 45.089844 91.523438 " fill-opacity="1" fill-rule="nonzero"/><path fill="#f3be62" d="M 14.125 148.773438 C 21.792969 154.695312 32.921875 159.546875 46.597656 163.066406 C 60.25 166.578125 79.085938 169.125 96.882812 169.726562 C 72.367188 170.613281 28.027344 163.132812 14.125 148.773438 " fill-opacity="1" fill-rule="nonzero"/><path fill="#431c16" d="M 213.78125 99.011719 C 214.441406 100.300781 214.433594 101.496094 213.753906 102.597656 L 213.179688 103.117188 C 213.773438 102.152344 213.78125 100.3125 213.195312 99.175781 C 212.59375 98 211.371094 96.726562 209.527344 95.359375 C 211.789062 96.15625 213.273438 98.011719 213.78125 99.011719 " fill-opacity="1" fill-rule="nonzero"/><path fill="#f3be62" d="M 219.925781 95.125 C 221.3125 98.835938 222.679688 106.542969 220.667969 111.582031 C 221.660156 105.882812 221.058594 99.886719 219.3125 95.234375 C 217.574219 90.589844 213.65625 85.5625 209.183594 81.957031 C 213.582031 84.425781 218.25 90.652344 219.925781 95.125 " fill-opacity="1" fill-rule="nonzero"/></svg>