<svg xmlns="http://www.w3.org/2000/svg" xmlns:xlink="http://www.w3.org/1999/xlink" width="300" zoomAndPan="magnify" viewBox="0 0 224.87999 225" height="300" preserveAspectRatio="xMidYMid meet" version="1.0"><defs><clipPath id="id1"><path d="M 48.34375 27.324219 L 176.109375 27.324219 L 176.109375 197.675781 L 48.34375 197.675781 Z M 48.34375 27.324219 " clip-rule="nonzero"/></clipPath><clipPath id="id2"><path d="M 0 0.0585938 L 224.296875 0.0585938 L 224.296875 224.359375 L 0 224.359375 Z M 0 0.0585938 " clip-rule="nonzero"/></clipPath></defs><g clip-path="url(#id1)"><path fill="#bb2400" d="M 176.109375 44.757812 C 174.007812 46.539062 171.90625 48.164062 169.800781 49.785156 C 168.023438 51.246094 166.40625 52.707031 164.789062 54.328125 C 163.171875 55.789062 161.390625 57.414062 159.773438 59.035156 C 158.644531 60.171875 157.671875 61.46875 156.539062 62.605469 C 155.894531 63.253906 155.246094 64.066406 154.601562 64.714844 C 152.335938 66.335938 151.042969 68.769531 149.425781 70.878906 C 148.777344 71.691406 147.96875 72.503906 147.160156 73.3125 C 144.894531 75.585938 142.632812 77.855469 140.367188 80.292969 C 137.292969 83.859375 134.382812 87.429688 131.3125 91.164062 C 129.855469 92.949219 128.398438 94.894531 126.945312 96.679688 C 126.78125 97.003906 126.460938 97.167969 126.136719 97.328125 C 125.003906 97.976562 124.519531 98.953125 123.871094 99.925781 C 123.222656 101.222656 122.09375 102.359375 121.285156 103.496094 C 120.636719 104.46875 119.828125 105.441406 119.179688 106.578125 C 119.019531 107.0625 119.179688 107.714844 119.34375 108.199219 C 120.3125 111.121094 121.121094 114.203125 122.253906 116.960938 C 123.546875 120.695312 125.003906 124.425781 126.621094 128.160156 C 127.429688 130.105469 128.398438 131.890625 129.207031 133.835938 C 130.339844 136.269531 131.3125 138.707031 132.605469 141.140625 C 134.058594 144.222656 135.839844 147.304688 137.292969 150.386719 C 138.101562 152.011719 138.75 153.632812 139.398438 155.257812 C 140.042969 156.714844 140.851562 158.015625 141.660156 159.3125 C 143.117188 161.910156 144.734375 164.503906 146.191406 167.101562 C 146.511719 167.585938 147 168.074219 147.484375 168.5625 C 148.777344 169.535156 150.234375 170.347656 151.527344 171.320312 C 151.851562 171.480469 152.011719 171.96875 152.335938 172.292969 C 152.660156 172.78125 152.984375 173.265625 153.304688 173.589844 C 154.113281 174.402344 154.4375 175.214844 154.761719 176.351562 C 155.570312 179.757812 153.792969 181.867188 151.6875 183.8125 C 151.363281 184.136719 150.71875 184.464844 150.554688 184.949219 C 149.910156 187.058594 148.128906 187.058594 146.511719 187.546875 C 144.894531 188.03125 143.277344 187.382812 141.824219 187.382812 L 141.660156 187.382812 C 140.207031 185.761719 137.617188 185.761719 136.484375 183.8125 C 134.867188 180.894531 132.765625 178.460938 132.441406 175.050781 C 132.441406 174.890625 132.28125 174.726562 132.28125 174.566406 C 132.605469 171.804688 131.148438 169.535156 130.015625 167.101562 C 128.722656 164.34375 127.105469 161.746094 125.972656 158.988281 C 124.195312 155.257812 122.578125 151.363281 120.960938 147.628906 C 119.988281 145.359375 118.695312 143.085938 117.726562 140.816406 C 116.753906 138.378906 115.785156 135.945312 114.816406 133.351562 C 114.492188 132.539062 114.007812 131.890625 113.84375 131.242188 C 113.035156 129.132812 112.226562 127.023438 111.257812 124.914062 C 110.609375 123.289062 109.960938 121.832031 109.316406 120.53125 C 107.859375 120.371094 107.535156 121.179688 107.214844 121.832031 C 105.757812 125.074219 103.332031 127.832031 101.390625 130.917969 C 99.613281 133.675781 97.347656 135.945312 95.40625 138.542969 C 93.628906 141.140625 92.171875 143.898438 90.230469 146.167969 C 86.511719 150.550781 84.085938 155.742188 81.011719 160.449219 C 79.394531 162.882812 77.292969 164.828125 76 167.261719 C 75.515625 168.074219 75.191406 168.722656 74.707031 169.535156 C 74.382812 170.023438 74.222656 170.507812 73.898438 170.832031 C 71.632812 172.78125 70.664062 175.699219 68.398438 177.808594 C 67.75 178.296875 67.75 179.433594 67.429688 180.242188 C 66.457031 182.027344 65.972656 183.976562 64.515625 185.4375 C 64.03125 185.921875 63.871094 187.058594 63.707031 187.871094 C 63.0625 190.304688 62.253906 192.574219 60.3125 194.199219 C 59.988281 194.523438 59.664062 195.011719 59.34375 195.496094 C 58.535156 196.632812 56.429688 197.28125 54.976562 196.957031 C 54.167969 196.632812 53.359375 196.46875 52.386719 196.308594 C 50.769531 195.984375 48.992188 194.523438 48.828125 192.902344 C 48.34375 189.980469 48.34375 187.222656 50.125 184.625 C 52.710938 180.894531 55.136719 177 57.726562 173.265625 C 60.796875 168.722656 64.03125 164.179688 67.105469 159.636719 C 68.5625 157.691406 70.015625 155.742188 71.472656 153.796875 C 72.605469 152.171875 73.574219 150.386719 74.707031 148.765625 C 77.777344 144.222656 81.011719 139.839844 84.085938 135.460938 C 86.996094 131.402344 89.910156 127.347656 92.820312 123.289062 C 92.980469 123.128906 93.144531 122.804688 93.304688 122.640625 C 95.246094 120.855469 96.539062 118.746094 97.832031 116.476562 C 99.128906 114.367188 100.746094 112.417969 102.363281 110.472656 C 102.847656 109.824219 103.332031 109.171875 103.65625 108.363281 C 104.140625 107.390625 104.300781 106.414062 103.980469 105.441406 C 103.171875 103.332031 102.523438 101.222656 101.714844 99.113281 C 100.582031 96.03125 99.613281 92.785156 98.640625 89.703125 C 96.703125 83.535156 94.761719 77.371094 92.820312 71.367188 C 92.171875 69.257812 91.363281 67.148438 90.71875 65.039062 C 89.746094 61.957031 88.777344 58.710938 87.644531 55.628906 C 86.511719 52.21875 85.21875 48.976562 84.085938 45.730469 C 83.761719 44.757812 83.441406 43.78125 83.117188 42.808594 C 82.953125 42.320312 82.792969 41.835938 82.46875 41.511719 C 80.527344 39.886719 80.527344 37.292969 80.367188 35.183594 C 80.203125 32.585938 81.5 29.992188 84.085938 28.367188 C 85.058594 27.71875 86.027344 28.042969 86.835938 28.367188 C 88.613281 28.367188 90.394531 29.179688 92.011719 29.992188 C 93.953125 30.964844 95.40625 32.261719 95.570312 34.695312 C 95.570312 35.34375 95.890625 36.15625 96.214844 36.804688 C 96.703125 38.265625 97.511719 39.402344 97.347656 41.023438 L 97.347656 41.1875 C 99.128906 44.105469 99.289062 47.515625 100.257812 50.597656 C 101.066406 52.707031 101.554688 54.816406 102.199219 56.925781 C 103.65625 61.308594 104.789062 65.851562 106.40625 70.230469 C 107.699219 73.800781 108.667969 77.371094 109.800781 80.941406 C 110.125 82.074219 110.609375 83.210938 111.09375 84.511719 C 111.902344 86.945312 112.710938 89.214844 113.519531 91.648438 C 114.007812 92.949219 114.328125 92.949219 115.460938 92.460938 C 116.753906 91.972656 117.5625 91 118.210938 89.703125 C 118.695312 88.890625 118.859375 87.917969 120.152344 87.917969 C 120.3125 87.917969 120.636719 87.59375 120.796875 87.269531 C 122.253906 84.996094 123.710938 82.5625 125.328125 80.453125 C 126.460938 78.832031 127.914062 77.371094 129.371094 75.746094 C 129.695312 75.261719 130.015625 74.773438 130.339844 74.289062 C 130.824219 73.800781 131.148438 73.152344 131.632812 72.828125 C 133.25 71.855469 134.546875 70.394531 135.675781 68.769531 C 137.457031 66.335938 139.558594 64.226562 141.660156 61.957031 C 143.117188 60.171875 144.894531 58.710938 146.351562 57.089844 C 148.292969 55.140625 150.394531 53.195312 152.011719 50.921875 C 153.953125 48.324219 156.054688 45.730469 158.804688 43.78125 C 160.421875 42.648438 161.878906 41.023438 163.171875 39.402344 C 165.433594 36.644531 170.125 36.480469 172.550781 38.589844 C 173.683594 39.5625 174.492188 40.863281 175.300781 42.160156 C 175.460938 42.972656 175.625 43.621094 176.109375 44.757812 Z M 176.109375 44.757812 " fill-opacity="1" fill-rule="nonzero"/></g><g clip-path="url(#id2)"><path fill="#bb2400" d="M 112.148438 224.339844 C 50.316406 224.339844 0.0195312 174.042969 0.0195312 112.210938 C 0.0195312 50.375 50.316406 0.078125 112.148438 0.078125 C 173.984375 0.078125 224.277344 50.375 224.277344 112.210938 C 224.277344 174.042969 173.984375 224.339844 112.148438 224.339844 Z M 112.148438 1.988281 C 51.363281 1.988281 1.925781 51.421875 1.925781 112.210938 C 1.925781 172.996094 51.363281 222.433594 112.148438 222.433594 C 172.933594 222.433594 222.371094 172.996094 222.371094 112.210938 C 222.371094 51.421875 172.933594 1.988281 112.148438 1.988281 Z M 112.148438 1.988281 " fill-opacity="1" fill-rule="nonzero"/></g></svg>