<svg xmlns="http://www.w3.org/2000/svg" xmlns:xlink="http://www.w3.org/1999/xlink" width="300" zoomAndPan="magnify" viewBox="0 0 224.87999 225" height="300" preserveAspectRatio="xMidYMid meet" version="1.0"><defs><clipPath id="id1"><path d="M 15 0.0585938 L 212 0.0585938 L 212 224.9375 L 15 224.9375 Z M 15 0.0585938 " clip-rule="nonzero"/></clipPath><clipPath id="id2"><path d="M 110.054688 82.722656 L 209.664062 82.722656 L 209.664062 224.9375 L 110.054688 224.9375 Z M 110.054688 82.722656 " clip-rule="nonzero"/></clipPath><clipPath id="id3"><path d="M 109.425781 66 L 212.1875 66 L 212.1875 224.9375 L 109.425781 224.9375 Z M 109.425781 66 " clip-rule="nonzero"/></clipPath><clipPath id="id4"><path d="M 45 0.0585938 L 66 0.0585938 L 66 5 L 45 5 Z M 45 0.0585938 " clip-rule="nonzero"/></clipPath><clipPath id="id5"><path d="M 116 71 L 212.273438 71 L 212.273438 96 L 116 96 Z M 116 71 " clip-rule="nonzero"/></clipPath></defs><g clip-path="url(#id1)"><path fill="#f3be62" d="M 27.441406 103.433594 L 18.652344 66.898438 C 21.894531 78.699219 24.738281 90.980469 27.441406 103.433594 Z M 117.503906 56.292969 L 116.375 40.644531 C 116.375 40.597656 116.378906 40.546875 116.386719 40.5 C 116.402344 40.421875 116.414062 40.339844 116.414062 40.261719 C 116.421875 40.1875 116.414062 40.109375 116.40625 40.035156 C 116.347656 39.523438 116.007812 39.035156 115.402344 38.589844 C 114.714844 38.085938 113.703125 37.625 112.355469 37.230469 C 109.226562 36.308594 104.308594 35.710938 97.617188 35.601562 C 91.5 35.503906 83.933594 35.808594 74.933594 36.644531 L 74.917969 36.644531 C 74.46875 36.695312 74.019531 36.4375 73.917969 36.066406 C 70.746094 24.632812 67.234375 13 64.34375 1.539062 C 64.328125 1.503906 64.296875 1.472656 64.25 1.4375 C 64.140625 1.359375 63.976562 1.28125 63.753906 1.21875 C 63.148438 1.039062 62.117188 0.933594 60.675781 0.933594 C 59.335938 0.933594 57.660156 1.039062 55.660156 1.269531 C 53.492188 1.519531 51.714844 1.808594 50.320312 2.113281 C 48.796875 2.4375 47.734375 2.773438 47.121094 3.085938 C 46.875 3.207031 46.703125 3.332031 46.601562 3.445312 C 46.554688 3.507812 46.527344 3.554688 46.53125 3.597656 C 47.964844 11.648438 53.304688 30.171875 56.097656 38.179688 C 56.210938 38.550781 55.945312 38.902344 55.5 38.96875 C 46.621094 40.246094 39.230469 41.640625 33.328125 43.058594 C 26.929688 44.597656 22.277344 46.15625 19.367188 47.625 C 18.027344 48.300781 17.046875 48.964844 16.433594 49.597656 C 15.894531 50.160156 15.652344 50.683594 15.699219 51.160156 L 15.730469 51.328125 L 15.808594 51.566406 L 49.683594 192.414062 C 49.953125 193.054688 51.074219 193.644531 53.03125 194.132812 C 55.175781 194.671875 58.207031 195.035156 62.121094 195.171875 C 65.648438 195.296875 69.929688 195.25 74.964844 194.996094 C 79.648438 194.761719 84.960938 194.34375 90.886719 193.714844 C 94.097656 193.375 97.320312 192.976562 100.527344 192.496094 C 103.730469 192.011719 106.910156 191.445312 110.039062 190.765625 C 110.148438 190.738281 110.269531 190.730469 110.390625 190.742188 C 110.855469 190.796875 111.210938 191.140625 111.183594 191.511719 L 110.988281 194.613281 C 110.742188 198.289062 110.316406 204.691406 110.515625 206.582031 C 110.613281 207.550781 111.363281 208.578125 112.644531 209.628906 C 114.101562 210.820312 116.21875 212.019531 118.839844 213.199219 C 121.578125 214.425781 124.863281 215.636719 128.515625 216.785156 C 132.335938 217.988281 136.554688 219.132812 140.972656 220.167969 C 145.816406 221.308594 150.972656 222.351562 155.867188 223.097656 C 160.105469 223.75 164.136719 224.179688 167.589844 224.253906 C 170.699219 224.324219 173.34375 224.101562 175.253906 223.5 C 176.855469 222.992188 177.917969 222.214844 178.261719 221.105469 C 189.21875 179.390625 199.777344 137.28125 211.207031 95.730469 C 211.609375 94.097656 211.160156 92.230469 209.941406 90.238281 C 208.675781 88.179688 206.585938 85.996094 203.753906 83.820312 C 200.851562 81.589844 197.167969 79.359375 192.785156 77.265625 C 188.660156 75.292969 183.914062 73.4375 178.621094 71.8125 L 176.660156 71.226562 C 176.25 71.132812 175.960938 70.800781 176 70.460938 L 180.347656 27.835938 C 179.75 27.03125 178.710938 26.410156 177.53125 25.945312 L 177.511719 25.9375 C 175.738281 25.242188 173.675781 24.890625 172.21875 24.761719 C 170.722656 24.628906 169.238281 24.644531 167.96875 24.828125 C 166.84375 24.992188 165.902344 25.277344 165.308594 25.699219 C 165.21875 25.761719 165.074219 25.871094 164.96875 25.992188 C 164.941406 26.019531 164.929688 26.011719 164.921875 26.019531 L 160.730469 67.109375 C 160.691406 67.484375 160.285156 67.734375 159.824219 67.671875 C 155.714844 67.125 151.628906 66.804688 147.710938 66.71875 C 143.808594 66.632812 140.046875 66.777344 136.566406 67.15625 C 132.914062 67.554688 129.589844 68.214844 126.746094 69.140625 C 124.050781 70.011719 121.785156 71.125 120.097656 72.472656 C 119.953125 72.585938 119.757812 72.652344 119.535156 72.652344 C 119.074219 72.640625 118.675781 72.328125 118.648438 71.953125 L 117.503906 56.292969 " fill-opacity="1" fill-rule="evenodd"/></g><path fill="#97532d" d="M 96.472656 49.296875 C 89.4375 50.847656 80.535156 52.277344 69.753906 53.417969 C 57.683594 54.699219 47.609375 55.3125 39.554688 55.40625 C 30.535156 55.511719 24.023438 54.964844 20.0625 53.976562 C 17.136719 53.25 15.621094 52.304688 15.5 51.125 C 15.386719 50.007812 16.636719 48.792969 19.246094 47.476562 C 22.199219 45.988281 26.890625 44.414062 33.320312 42.875 C 39.210938 41.464844 46.566406 40.078125 55.40625 38.804688 L 55.425781 38.800781 C 55.765625 38.765625 56.101562 38.960938 56.179688 39.238281 L 58.222656 46.65625 L 58.238281 46.738281 L 58.238281 46.804688 C 59.492188 46.914062 60.730469 46.96875 61.949219 46.972656 C 63.902344 46.980469 65.8125 46.851562 67.679688 46.59375 C 69.4375 46.351562 71.730469 45.957031 73.898438 45.304688 C 74.820312 45.027344 75.722656 44.703125 76.542969 44.324219 C 76.445312 44.25 76.375 44.152344 76.34375 44.039062 L 74.398438 37.042969 C 74.332031 36.761719 74.550781 36.507812 74.890625 36.476562 C 83.875 35.640625 91.40625 35.328125 97.480469 35.421875 C 104.234375 35.523438 109.21875 36.128906 112.410156 37.070312 C 113.519531 37.398438 114.402344 37.757812 115.0625 38.148438 C 115.777344 38.570312 116.246094 39.042969 116.472656 39.554688 C 116.5 39.609375 116.515625 39.667969 116.523438 39.730469 L 116.582031 40.5625 C 116.582031 40.605469 116.578125 40.648438 116.566406 40.6875 C 116.441406 41.203125 116.082031 41.730469 115.496094 42.265625 C 114.949219 42.769531 114.1875 43.296875 113.230469 43.832031 C 109.972656 45.65625 104.394531 47.558594 96.472656 49.296875 Z M 136.773438 71.800781 C 129.800781 72.253906 123.933594 73.542969 120.113281 75.769531 L 120.085938 75.789062 C 119.722656 76.003906 119.386719 76.214844 119.082031 76.429688 C 118.789062 76.636719 118.5 76.859375 118.226562 77.085938 C 118.109375 77.207031 117.917969 77.273438 117.707031 77.25 C 117.359375 77.214844 117.089844 76.960938 117.101562 76.679688 L 117.132812 75.867188 C 117.140625 75.8125 117.152344 75.761719 117.175781 75.710938 C 118.269531 73.371094 120.59375 71.492188 123.804688 70.054688 C 127.183594 68.550781 131.558594 67.527344 136.519531 66.988281 C 141.785156 66.414062 147.714844 66.378906 153.828125 66.863281 C 159.851562 67.339844 166.0625 68.328125 171.992188 69.800781 C 173.125 70.082031 174.257812 70.382812 175.386719 70.695312 C 176.507812 71.003906 177.605469 71.324219 178.679688 71.65625 C 183.949219 73.269531 188.675781 75.117188 192.792969 77.078125 L 192.839844 77.101562 C 197.25 79.203125 200.960938 81.453125 203.890625 83.703125 C 206.09375 85.394531 207.847656 87.085938 209.117188 88.710938 C 210.414062 90.378906 211.210938 91.992188 211.46875 93.484375 C 211.5 93.675781 211.398438 93.867188 211.1875 93.960938 C 210.894531 94.09375 210.507812 93.996094 210.320312 93.75 C 209.757812 93 209.125 92.261719 208.425781 91.542969 C 207.707031 90.804688 206.925781 90.085938 206.085938 89.386719 C 201.527344 85.589844 195.144531 82.300781 187.855469 79.617188 C 179.863281 76.675781 170.800781 74.46875 161.851562 73.125 C 153 71.796875 144.257812 71.316406 136.773438 71.800781 " fill-opacity="1" fill-rule="evenodd"/><path fill="#bb2400" d="M 52.738281 26.792969 L 46.628906 4.71875 C 46.617188 4.652344 46.609375 4.585938 46.625 4.523438 C 46.679688 4.25 47.003906 4.085938 47.34375 4.152344 C 48.085938 4.304688 49.242188 4.382812 50.8125 4.359375 C 52.25 4.339844 54.019531 4.230469 56.113281 4.007812 C 58.035156 3.804688 59.632812 3.546875 60.910156 3.269531 C 62.296875 2.960938 63.289062 2.632812 63.882812 2.320312 C 63.949219 2.28125 64.03125 2.253906 64.121094 2.25 C 64.460938 2.207031 64.796875 2.40625 64.875 2.683594 L 71.238281 25.660156 L 76.402344 44.257812 C 76.46875 44.496094 76.324219 44.730469 76.050781 44.808594 C 74.707031 45.207031 73.3125 45.550781 71.964844 45.839844 C 70.453125 46.160156 68.972656 46.417969 67.679688 46.59375 C 66.386719 46.773438 64.847656 46.941406 63.226562 47.0625 C 61.847656 47.164062 60.398438 47.234375 58.976562 47.242188 C 58.652344 47.261719 58.339844 47.070312 58.265625 46.800781 Z M 158.371094 88.125 L 159.878906 73.355469 C 159.910156 73.074219 160.21875 72.890625 160.5625 72.9375 L 161.851562 73.125 C 164.074219 73.457031 166.3125 73.847656 168.554688 74.292969 C 170.761719 74.726562 172.949219 75.210938 175.09375 75.738281 C 175.410156 75.804688 175.636719 76.058594 175.609375 76.320312 L 174.972656 82.542969 C 174.914062 82.816406 174.589844 82.980469 174.25 82.910156 L 173.804688 82.820312 L 174.320312 82.929688 C 174.65625 82.984375 174.90625 83.246094 174.875 83.519531 L 174.746094 84.777344 L 174.738281 84.832031 C 174.679688 85.058594 174.4375 85.203125 174.164062 85.199219 C 174.460938 85.277344 174.671875 85.519531 174.644531 85.773438 L 174.421875 87.96875 C 174.390625 88.25 174.085938 88.433594 173.738281 88.386719 C 171.460938 88.0625 169.320312 88 167.242188 88.066406 C 165.15625 88.132812 163.105469 88.332031 161.039062 88.535156 L 159.164062 88.710938 C 159.097656 88.726562 159.023438 88.726562 158.945312 88.714844 C 158.597656 88.667969 158.34375 88.402344 158.371094 88.125 Z M 172.667969 84.886719 L 172.9375 84.941406 Z M 160.519531 67.085938 L 164.703125 26.109375 C 164.710938 26.019531 164.75 25.933594 164.820312 25.859375 C 165.421875 25.230469 166.476562 24.875 167.640625 24.691406 C 169.28125 24.429688 171.175781 24.496094 172.226562 24.589844 C 173.5625 24.710938 175.539062 25.03125 177.269531 25.65625 C 178.550781 26.121094 179.703125 26.757812 180.410156 27.609375 C 180.507812 27.714844 180.558594 27.847656 180.542969 27.980469 L 176.222656 70.3125 L 176.207031 70.394531 C 176.117188 70.660156 175.777344 70.800781 175.441406 70.707031 L 173.726562 70.242188 L 171.992188 69.800781 C 170.214844 69.359375 168.417969 68.960938 166.621094 68.609375 C 164.804688 68.257812 162.960938 67.945312 161.105469 67.679688 L 161.09375 67.675781 C 160.746094 67.628906 160.492188 67.363281 160.519531 67.085938 Z M 79.757812 56.316406 C 79.808594 56.492188 79.742188 56.660156 79.601562 56.773438 C 79.792969 56.84375 79.945312 56.984375 79.996094 57.164062 L 82.078125 64.644531 C 82.136719 64.863281 82.019531 65.074219 81.792969 65.171875 C 82.054688 65.210938 82.28125 65.378906 82.347656 65.601562 L 84.640625 73.824219 C 84.699219 74.042969 84.582031 74.265625 84.328125 74.363281 C 83.699219 74.59375 83.027344 74.867188 82.34375 75.144531 L 82.320312 75.15625 C 81.257812 75.585938 80.164062 76.03125 78.953125 76.421875 C 77.746094 76.8125 76.464844 77.132812 75.066406 77.296875 C 73.246094 77.511719 71.730469 77.433594 70.363281 77.191406 C 69.003906 76.953125 67.820312 76.554688 66.636719 76.125 C 66.441406 76.050781 66.289062 75.910156 66.238281 75.730469 C 65.101562 71.601562 62.203125 63.117188 61.785156 59.554688 C 61.738281 59.367188 61.824219 59.1875 61.988281 59.082031 C 61.773438 59.019531 61.59375 58.867188 61.542969 58.671875 L 60.480469 54.824219 C 60.417969 54.542969 60.636719 54.292969 60.976562 54.265625 C 62.375 54.144531 63.820312 54.011719 65.308594 53.871094 C 66.738281 53.730469 68.21875 53.582031 69.753906 53.417969 C 71.171875 53.269531 72.574219 53.109375 73.964844 52.945312 C 75.375 52.78125 76.722656 52.609375 78.007812 52.445312 L 78.046875 52.4375 C 78.386719 52.398438 78.722656 52.589844 78.800781 52.871094 L 79.757812 56.316406 " fill-opacity="1" fill-rule="nonzero"/><path fill="#f79310" d="M 39.542969 70.765625 C 39.464844 70.835938 39.359375 70.886719 39.238281 70.90625 L 40.691406 70.96875 C 40.597656 70.941406 40.511719 70.890625 40.4375 70.828125 C 40.203125 70.621094 40.195312 70.316406 40.410156 70.128906 Z M 45.453125 66.417969 L 45.199219 66.605469 C 45.355469 66.5 45.578125 66.464844 45.796875 66.53125 Z M 54.550781 69.453125 L 54.347656 69.382812 L 54.433594 69.417969 C 54.738281 69.574219 54.851562 69.890625 54.683594 70.125 L 54.140625 70.910156 C 54.511719 70.375 55.25 69.425781 55.566406 68.882812 L 55.300781 69.25 C 55.164062 69.460938 54.847656 69.550781 54.550781 69.453125 Z M 54.304688 69.367188 L 50.5625 68.121094 Z M 55.636719 68.785156 L 55.585938 68.851562 C 55.613281 68.820312 55.640625 68.792969 55.671875 68.765625 C 55.910156 68.582031 56.296875 68.601562 56.546875 68.800781 L 55.972656 68.316406 L 55.964844 68.320312 C 55.960938 68.324219 55.972656 68.316406 55.972656 68.316406 Z M 63.984375 75.117188 L 62.136719 73.546875 L 62.347656 73.726562 C 62.492188 73.851562 62.570312 74.027344 62.527344 74.199219 C 62.464844 74.472656 62.136719 74.628906 61.796875 74.554688 C 61.433594 74.472656 61.054688 74.398438 60.664062 74.332031 L 60.65625 74.332031 C 60.269531 74.265625 59.855469 74.210938 59.414062 74.164062 C 58.246094 74.046875 57.148438 74.027344 56.105469 74.078125 L 56.050781 74.082031 C 54.992188 74.136719 53.984375 74.261719 53.015625 74.441406 C 52.851562 74.484375 52.65625 74.464844 52.484375 74.382812 C 52.1875 74.230469 52.070312 73.933594 52.207031 73.703125 L 51.582031 74.609375 C 51.511719 74.707031 51.398438 74.785156 51.253906 74.824219 C 50.492188 75.007812 49.742188 75.222656 48.996094 75.445312 C 48.316406 75.652344 47.523438 75.90625 46.726562 76.160156 L 46.339844 76.285156 C 46.1875 76.332031 46.011719 76.332031 45.84375 76.265625 L 44.746094 75.851562 C 44.882812 75.910156 45 76.003906 45.066406 76.128906 C 45.214844 76.390625 45.074219 76.6875 44.761719 76.78125 C 43.921875 77.039062 43.054688 77.292969 42.148438 77.519531 C 41.25 77.75 40.324219 77.953125 39.363281 78.113281 C 37.5 78.421875 35.714844 78.574219 34.015625 78.566406 C 32.3125 78.5625 30.6875 78.390625 29.15625 78.0625 C 28.78125 77.980469 28.429688 77.890625 28.097656 77.804688 C 27.773438 77.714844 27.433594 77.613281 27.082031 77.492188 C 26.949219 77.457031 26.832031 77.382812 26.746094 77.28125 C 26.542969 77.039062 26.601562 76.726562 26.882812 76.582031 L 34.898438 72.394531 C 35.058594 72.300781 35.28125 72.28125 35.484375 72.351562 L 35.191406 72.242188 L 26.222656 76.921875 C 26.050781 77.015625 25.816406 77.023438 25.601562 76.933594 C 24.804688 76.59375 24.039062 76.199219 23.304688 75.757812 C 22.566406 75.316406 21.859375 74.816406 21.179688 74.273438 C 21.085938 74.195312 21.015625 74.09375 20.988281 73.980469 L 20.167969 70.578125 C 20.136719 70.441406 20.171875 70.296875 20.277344 70.1875 C 20.5625 69.890625 20.867188 69.605469 21.195312 69.328125 C 21.519531 69.054688 21.855469 68.796875 22.199219 68.554688 C 22.355469 68.445312 22.578125 68.410156 22.796875 68.472656 L 23.625 68.703125 C 23.5 68.667969 23.382812 68.601562 23.296875 68.503906 C 23.082031 68.269531 23.128906 67.953125 23.402344 67.800781 C 26.90625 65.808594 31.542969 64.898438 36.597656 64.527344 C 41.609375 64.160156 47.003906 64.316406 52.109375 64.464844 L 52.117188 64.464844 C 55.855469 64.574219 59.441406 64.679688 62.597656 64.570312 C 62.914062 64.558594 63.214844 64.75 63.289062 65.011719 L 66.058594 75.074219 C 66.082031 75.164062 66.078125 75.261719 66.035156 75.355469 C 65.921875 75.609375 65.5625 75.722656 65.234375 75.605469 L 64.230469 75.25 C 64.140625 75.222656 64.054688 75.175781 63.984375 75.117188 Z M 33.386719 70.453125 C 30.65625 70.171875 28.089844 69.757812 25.675781 69.214844 C 26.390625 69.375 27.117188 69.527344 27.855469 69.664062 C 29.609375 69.988281 31.453125 70.253906 33.386719 70.453125 Z M 97.675781 73.945312 C 95.167969 73.601562 92.738281 73.261719 90.511719 73.238281 C 90.363281 73.238281 90.21875 73.195312 90.09375 73.109375 C 89.8125 72.925781 89.753906 72.605469 89.957031 72.394531 L 91.152344 71.167969 L 92.296875 70.015625 C 91.847656 70.460938 91.359375 70.953125 90.832031 71.492188 C 90.285156 72.054688 89.761719 72.59375 89.265625 73.109375 C 89.175781 73.207031 89.039062 73.269531 88.871094 73.285156 L 88.558594 73.308594 C 88.019531 73.363281 87.492188 73.449219 86.976562 73.558594 C 86.472656 73.667969 85.976562 73.808594 85.488281 73.960938 C 85.433594 73.980469 85.378906 73.996094 85.320312 74 C 84.980469 74.039062 84.644531 73.847656 84.566406 73.570312 L 82.3125 65.488281 C 82.253906 65.277344 82.363281 65.070312 82.574219 64.972656 C 82.324219 64.925781 82.109375 64.757812 82.046875 64.542969 L 81.1875 61.449219 C 81.113281 61.207031 81.253906 60.96875 81.539062 60.882812 L 85.019531 59.855469 C 96.078125 56.566406 107.320312 53.230469 117.15625 56.101562 C 117.421875 56.167969 117.628906 56.375 117.640625 56.605469 L 117.949219 61.640625 C 117.960938 61.726562 117.941406 61.8125 117.894531 61.894531 C 117.753906 62.132812 117.394531 62.21875 117.085938 62.09375 C 117.289062 62.183594 117.488281 62.28125 117.6875 62.378906 C 117.878906 62.476562 118.011719 62.640625 118.023438 62.828125 L 118.410156 69.332031 C 118.414062 69.433594 118.386719 69.53125 118.316406 69.617188 C 116.890625 71.363281 115.25 72.558594 113.472656 73.351562 C 111.691406 74.144531 109.773438 74.53125 107.792969 74.667969 C 107.636719 74.675781 107.476562 74.640625 107.335938 74.554688 L 106.160156 73.828125 C 106.304688 73.921875 106.40625 74.058594 106.417969 74.21875 C 106.445312 74.496094 106.1875 74.726562 105.84375 74.722656 C 103.132812 74.703125 100.367188 74.320312 97.695312 73.949219 Z M 94.75 67.671875 C 94.929688 67.503906 95.25 67.46875 95.515625 67.59375 L 95.082031 67.367188 L 94.253906 68.132812 Z M 114.1875 61.167969 C 115.046875 61.339844 115.890625 61.597656 116.714844 61.9375 C 115.863281 61.585938 114.996094 61.320312 114.117188 61.148438 C 113.132812 60.957031 112.125 60.875 111.089844 60.90625 C 111.035156 60.910156 110.984375 60.910156 110.925781 60.902344 C 109.667969 60.734375 108.457031 60.636719 107.292969 60.609375 C 107.523438 60.625 107.746094 60.746094 107.855469 60.933594 C 107.9375 61.074219 107.9375 61.226562 107.867188 61.351562 C 108.761719 61.136719 109.640625 60.996094 110.503906 60.933594 C 111.753906 60.847656 112.984375 60.925781 114.1875 61.167969 Z M 54.125 70.929688 L 54.140625 70.910156 L 53.265625 72.164062 Z M 54.125 70.929688 " fill-opacity="1" fill-rule="evenodd"/><g clip-path="url(#id2)"><path fill="#f79310" d="M 169.089844 88.046875 C 171.875 88.074219 174.804688 88.390625 178.03125 89.277344 C 183.441406 90.769531 187.609375 93.46875 191.621094 96.074219 L 191.632812 96.085938 C 196.753906 99.40625 201.640625 102.578125 208.574219 102.890625 C 208.625 102.890625 208.679688 102.902344 208.734375 102.914062 C 209.074219 102.996094 209.285156 103.285156 209.210938 103.554688 C 202.195312 128.59375 195.683594 154.097656 189.199219 179.5 C 185.636719 193.46875 182.078125 207.410156 178.476562 221.117188 L 178.464844 221.160156 C 178.082031 222.402344 176.871094 223.246094 175.039062 223.765625 C 173.160156 224.300781 170.59375 224.488281 167.597656 224.425781 C 164.113281 224.347656 160.058594 223.914062 155.800781 223.261719 C 150.925781 222.515625 145.777344 221.472656 140.929688 220.332031 C 136.515625 219.296875 132.300781 218.152344 128.492188 216.957031 C 124.804688 215.796875 121.5 214.578125 118.753906 213.347656 C 116.214844 212.207031 114.148438 211.054688 112.703125 209.925781 C 111.261719 208.800781 110.417969 207.675781 110.304688 206.582031 C 110.109375 204.675781 110.539062 198.242188 110.78125 194.5625 C 110.796875 193.949219 110.863281 193.292969 110.902344 192.667969 L 111.414062 184.363281 C 112.574219 165.5625 114.535156 133.808594 116.621094 87.523438 C 116.628906 87.402344 116.691406 87.285156 116.808594 87.199219 C 121.40625 83.769531 125.164062 82.667969 128.589844 82.773438 C 132.011719 82.875 135.019531 84.171875 138.207031 85.546875 L 138.21875 85.550781 C 141.511719 86.972656 145.007812 88.480469 149.265625 88.871094 C 153.546875 89.265625 157.320312 88.898438 161.039062 88.535156 C 163.691406 88.277344 166.324219 88.019531 169.089844 88.046875 " fill-opacity="1" fill-rule="evenodd"/></g><path fill="#f3be62" d="M 113.953125 39.863281 C 114.363281 40.433594 114.304688 41.097656 113.421875 41.84375 C 113.972656 40.585938 111.4375 38.972656 107.078125 38.421875 C 102.234375 37.808594 93.890625 37.15625 83.402344 37.574219 C 86.800781 36.597656 111.042969 35.8125 113.953125 39.863281 " fill-opacity="1" fill-rule="nonzero"/><path fill="#f3be62" d="M 52.277344 13.734375 L 59.761719 39.644531 L 60.003906 45.839844 L 48.632812 6.238281 L 52.277344 13.734375 " fill-opacity="1" fill-rule="nonzero"/><path fill="#f3be62" d="M 167.230469 34.679688 L 165.027344 60.121094 L 163.128906 65.675781 L 166.566406 26.820312 L 167.230469 34.679688 " fill-opacity="1" fill-rule="nonzero"/><path fill="#431c16" d="M 69.886719 53.925781 C 44.21875 56.648438 27.484375 56.347656 19.925781 54.464844 C 13.769531 52.933594 12.980469 50.015625 18.878906 47.039062 C 24.667969 44.121094 37.058594 40.878906 56.167969 38.171875 C 56.148438 38.550781 56.320312 38.949219 56.71875 39.144531 C 37.640625 41.832031 25.316406 45.042969 19.609375 47.917969 C 14.78125 50.351562 14.949219 52.183594 20.199219 53.488281 C 27.605469 55.332031 44.144531 55.617188 69.621094 52.914062 C 92.417969 50.492188 106.773438 46.800781 112.84375 43.40625 C 117.203125 40.964844 117.074219 38.972656 112.242188 37.546875 C 106.21875 35.773438 93.597656 35.222656 74.464844 37.035156 C 74.453125 36.84375 74.367188 36.625 74.179688 36.390625 C 74.125 36.269531 74.050781 36.152344 73.964844 36.046875 C 93.457031 34.1875 106.367188 34.761719 112.578125 36.589844 C 118.261719 38.265625 118.949219 41.277344 113.617188 44.261719 C 107.417969 47.730469 92.882812 51.488281 69.886719 53.925781 " fill-opacity="1" fill-rule="nonzero"/><path fill="#431c16" d="M 111.195312 191.230469 C 104.59375 192.714844 97.800781 193.675781 91.066406 194.386719 C 78.703125 195.703125 69.050781 196.097656 62.15625 195.855469 C 53.992188 195.5625 49.535156 194.296875 48.867188 192.523438 L 14.976562 51.609375 L 16.214844 51.5 L 50.078125 192.332031 C 50.605469 193.621094 54.628906 194.570312 62.101562 194.832031 C 68.925781 195.078125 78.503906 194.679688 90.796875 193.378906 C 97.609375 192.652344 104.488281 191.683594 111.164062 190.15625 C 111.164062 190.488281 111.1875 190.851562 111.195312 191.230469 " fill-opacity="1" fill-rule="nonzero"/><path fill="#431c16" d="M 117.140625 39.648438 C 117.929688 50.695312 118.734375 61.75 119.546875 72.808594 C 119.300781 73.023438 119.035156 73.308594 118.757812 73.679688 C 118.707031 73.742188 118.421875 73.957031 118.070312 74.25 C 117.390625 62.523438 116.6875 50.929688 115.886719 39.617188 L 117.140625 39.648438 " fill-opacity="1" fill-rule="nonzero"/><g clip-path="url(#id3)"><path fill="#431c16" d="M 211.945312 96.226562 L 179.078125 221.320312 C 178.222656 224.097656 173.78125 225.070312 167.636719 224.933594 C 160.105469 224.769531 149.917969 222.960938 140.804688 220.820312 C 132.074219 218.769531 124.128906 216.320312 118.488281 213.789062 C 113.242188 211.433594 109.925781 208.957031 109.679688 206.578125 C 109.476562 204.632812 109.910156 198.136719 110.15625 194.453125 L 110.277344 192.601562 L 110.785156 184.296875 C 112.042969 163.960938 114.234375 128.464844 116.511719 75.726562 C 116.515625 75.660156 116.535156 75.59375 116.566406 75.539062 C 118.875 70.542969 126.492188 67.558594 136.382812 66.480469 C 146.921875 65.332031 160.09375 66.320312 172.128906 69.3125 C 174.445312 69.890625 176.691406 70.515625 178.855469 71.179688 C 189.894531 74.570312 198.582031 78.953125 204.300781 83.347656 C 210.132812 87.828125 212.914062 92.359375 212.023438 95.929688 Z M 177.851562 220.996094 C 188.761719 179.492188 199.03125 136.800781 210.792969 95.648438 C 211.59375 92.441406 208.960938 88.265625 203.480469 84.058594 C 197.886719 79.761719 189.363281 75.464844 178.503906 72.128906 C 176.390625 71.480469 174.171875 70.863281 171.859375 70.289062 C 160 67.339844 147.03125 66.363281 136.652344 67.496094 C 127.191406 68.53125 119.925781 71.304688 117.765625 75.929688 C 115.496094 128.523438 113.296875 164.070312 112.039062 184.433594 L 111.53125 192.742188 L 111.410156 194.597656 C 111.164062 198.257812 110.738281 204.703125 110.929688 206.582031 C 111.132812 208.546875 114.183594 210.730469 119.019531 212.902344 C 124.574219 215.398438 132.421875 217.816406 141.050781 219.84375 C 150.082031 221.964844 160.15625 223.75 167.5625 223.914062 C 173.152344 224.039062 177.160156 223.253906 177.851562 220.996094 " fill-opacity="1" fill-rule="nonzero"/></g><g clip-path="url(#id4)"><path fill="#431c16" d="M 56.246094 4.515625 C 51.539062 5.015625 48.4375 4.949219 47.011719 4.597656 C 46.195312 4.394531 45.753906 4.054688 45.695312 3.613281 C 45.648438 3.222656 45.960938 2.839844 46.636719 2.496094 C 47.910156 1.855469 50.851562 1.132812 55.472656 0.59375 C 59.800781 0.0898438 62.65625 0.191406 63.976562 0.578125 C 64.734375 0.800781 65.140625 1.152344 65.195312 1.589844 C 65.242188 1.980469 64.957031 2.363281 64.34375 2.707031 C 63.175781 3.363281 60.476562 4.066406 56.246094 4.515625 Z M 47.28125 3.621094 C 48.554688 3.9375 51.460938 3.980469 55.980469 3.503906 C 60.011719 3.074219 62.527344 2.433594 63.570312 1.851562 C 63.820312 1.710938 63.949219 1.625 63.941406 1.597656 C 63.941406 1.578125 63.847656 1.597656 63.644531 1.539062 C 62.492188 1.199219 59.863281 1.128906 55.753906 1.605469 C 51.300781 2.121094 48.519531 2.792969 47.363281 3.378906 C 47.085938 3.515625 46.949219 3.589844 46.949219 3.597656 C 46.953125 3.636719 47.054688 3.5625 47.28125 3.621094 " fill-opacity="1" fill-rule="nonzero"/></g><path fill="#431c16" d="M 46.953125 3.601562 C 51.847656 21.285156 55.851562 35.761719 58.949219 46.996094 C 58.515625 46.988281 58.085938 47.019531 57.714844 47.09375 C 54.617188 35.867188 50.621094 21.402344 45.730469 3.742188 Z M 60.941406 54.210938 C 64.914062 68.609375 66.917969 75.898438 66.925781 75.9375 L 65.703125 76.078125 C 65.691406 76.039062 63.675781 68.695312 59.675781 54.195312 C 60.082031 54.261719 60.554688 54.398438 60.941406 54.210938 " fill-opacity="1" fill-rule="nonzero"/><path fill="#431c16" d="M 65.160156 1.453125 C 70.011719 18.960938 74.011719 33.371094 77.136719 44.621094 C 77.035156 44.648438 76.949219 44.6875 76.871094 44.726562 C 76.535156 44.5625 76.175781 44.609375 75.945312 44.882812 C 72.8125 33.617188 68.804688 19.164062 63.9375 1.589844 Z M 79.230469 52.144531 C 83.273438 66.683594 85.347656 74.101562 85.359375 74.140625 L 84.132812 74.28125 C 84.125 74.238281 82.042969 66.796875 77.984375 52.210938 L 78.585938 52.230469 C 78.789062 52.285156 79.019531 52.246094 79.230469 52.144531 " fill-opacity="1" fill-rule="nonzero"/><path fill="#431c16" d="M 173.71875 88.644531 L 175.046875 75.628906 C 175.429688 75.820312 175.859375 75.980469 176.265625 76.128906 L 174.996094 88.570312 C 174.539062 88.433594 174.160156 88.554688 173.71875 88.644531 Z M 175.539062 70.8125 L 179.917969 27.890625 C 178.429688 26.058594 174.417969 25.296875 172.207031 25.097656 C 170.527344 24.945312 166.601562 24.867188 165.328125 26.195312 L 161.085938 67.738281 C 160.660156 67.621094 160.207031 67.582031 159.824219 67.652344 L 164.089844 25.894531 C 164.125 25.632812 164.53125 25.3125 164.730469 25.167969 C 166.175781 24.144531 169.179688 23.808594 172.238281 24.082031 C 174.878906 24.320312 179.414062 25.246094 181.082031 27.558594 C 181.160156 27.65625 181.203125 27.773438 181.191406 27.894531 L 176.75 71.359375 C 176.382812 71.152344 175.933594 70.902344 175.539062 70.8125 Z M 160.546875 73.042969 L 158.945312 88.738281 C 158.527344 88.726562 158.085938 88.746094 157.667969 88.785156 L 159.289062 72.914062 C 159.683594 73.023438 160.136719 73.0625 160.546875 73.042969 " fill-opacity="1" fill-rule="nonzero"/><path fill="#431c16" d="M 67.835938 47.097656 C 64.027344 47.625 60.054688 47.609375 55.914062 47.0625 L 54.230469 46.488281 C 58.234375 47.019531 63.855469 46.597656 67.523438 46.089844 C 71.191406 45.585938 76.410156 44.4375 79.761719 42.886719 C 77.164062 45.492188 71.402344 46.605469 67.835938 47.097656 " fill-opacity="1" fill-rule="nonzero"/><path fill="#431c16" d="M 21.457031 73.804688 C 23.730469 75.679688 26.335938 76.933594 29.269531 77.566406 C 32.226562 78.207031 35.53125 78.222656 39.1875 77.613281 C 41.808594 77.171875 44.160156 76.417969 46.453125 75.683594 C 50.496094 74.386719 54.375 73.144531 59.441406 73.660156 C 62.21875 73.941406 64.238281 74.691406 66.171875 75.410156 C 68.714844 76.355469 71.101562 77.238281 74.925781 76.789062 C 77.632812 76.46875 79.875 75.558594 82.003906 74.691406 C 84.109375 73.835938 86.113281 73.023438 88.433594 72.804688 C 91.246094 72.539062 94.429688 72.984375 97.742188 73.445312 C 105.046875 74.460938 113.011719 75.566406 118.074219 68.945312 L 119.15625 69.535156 C 113.695312 76.683594 105.316406 75.519531 97.628906 74.453125 C 94.402344 74.003906 91.304688 73.574219 88.679688 73.816406 C 86.578125 74.011719 84.65625 74.796875 82.640625 75.613281 C 80.429688 76.515625 78.105469 77.457031 75.207031 77.800781 C 71.015625 78.296875 68.457031 77.347656 65.734375 76.335938 C 63.890625 75.652344 61.964844 74.9375 59.390625 74.675781 C 54.640625 74.191406 50.898438 75.390625 47 76.640625 C 44.664062 77.386719 42.269531 78.15625 39.539062 78.613281 C 35.699219 79.253906 32.199219 79.234375 29.046875 78.554688 C 25.871094 77.863281 23.054688 76.511719 20.601562 74.488281 L 21.457031 73.804688 " fill-opacity="1" fill-rule="nonzero"/><path fill="#431c16" d="M 17.410156 57.476562 C 21.464844 59.46875 31.253906 60.328125 44.332031 59.871094 C 56.597656 59.449219 71.707031 57.851562 87.671875 54.945312 C 80.992188 58.476562 49.328125 60.722656 44.492188 60.894531 C 31.167969 61.355469 21.113281 60.441406 16.832031 58.339844 L 17.410156 57.476562 " fill-opacity="1" fill-rule="nonzero"/><g clip-path="url(#id5)"><path fill="#431c16" d="M 116.5 77.972656 C 117.320312 76.992188 118.394531 76.125 119.6875 75.367188 C 127.75 70.640625 144.644531 70.03125 161.914062 72.625 C 179.15625 75.210938 196.835938 80.992188 206.511719 89.046875 C 208.859375 90.996094 210.738281 93.085938 212.039062 95.292969 L 210.914062 95.664062 C 209.683594 93.570312 207.894531 91.585938 205.65625 89.726562 C 196.1875 81.847656 178.792969 76.179688 161.789062 73.628906 C 144.8125 71.078125 128.277344 71.640625 120.480469 76.210938 C 119.285156 76.910156 118.300781 77.703125 117.5625 78.59375 L 116.5 77.972656 " fill-opacity="1" fill-rule="nonzero"/></g><path fill="#431c16" d="M 19.601562 70.03125 C 25.910156 63.191406 39.8125 63.597656 52.078125 63.957031 C 55.964844 64.070312 59.691406 64.175781 62.921875 64.046875 C 62.957031 64.273438 63.078125 64.519531 63.320312 64.75 C 63.355469 64.851562 63.402344 64.953125 63.46875 65.050781 C 60.089844 65.207031 56.203125 65.09375 52.140625 64.976562 C 40.164062 64.628906 26.585938 64.234375 20.632812 70.6875 Z M 80.816406 60.539062 C 82.109375 60.164062 83.410156 59.777344 84.714844 59.386719 C 96.101562 56.003906 107.675781 52.558594 117.878906 55.792969 L 117.511719 56.738281 C 107.761719 53.648438 96.40625 57.027344 85.234375 60.351562 C 83.84375 60.765625 82.453125 61.179688 81.070312 61.578125 C 81.078125 61.105469 80.976562 60.769531 80.816406 60.539062 " fill-opacity="1" fill-rule="nonzero"/><path fill="#431c16" d="M 116.183594 86.9375 C 125.84375 79.65625 131.765625 82.210938 138.472656 85.105469 C 141.714844 86.503906 145.152344 87.988281 149.28125 88.367188 C 153.488281 88.75 157.226562 88.386719 160.910156 88.027344 C 166.316406 87.5 171.601562 86.984375 178.183594 88.796875 C 183.722656 90.324219 187.933594 93.054688 192 95.695312 C 197.257812 99.109375 202.261719 102.355469 209.484375 102.40625 L 209.578125 103.429688 C 201.898438 103.371094 196.714844 100.003906 191.265625 96.472656 C 187.292969 93.890625 183.175781 91.21875 177.878906 89.761719 C 171.582031 88.027344 166.429688 88.527344 161.164062 89.042969 C 157.414062 89.410156 153.605469 89.78125 149.246094 89.378906 C 144.863281 88.976562 141.3125 87.445312 137.960938 85.996094 C 131.675781 83.289062 126.125 80.890625 117.078125 87.714844 L 116.183594 86.9375 " fill-opacity="1" fill-rule="nonzero"/><path fill="#431c16" d="M 182.355469 114.074219 C 184.035156 114.074219 185.40625 114.734375 186.367188 115.8125 C 187.324219 116.886719 187.859375 118.386719 187.859375 120.042969 C 187.859375 121.660156 187.207031 123.125 186.15625 124.1875 C 185.074219 125.277344 183.570312 125.953125 181.894531 125.953125 C 180.195312 125.953125 178.664062 125.261719 177.558594 124.144531 C 176.492188 123.066406 175.828125 121.582031 175.828125 119.953125 C 175.828125 118.367188 176.589844 116.933594 177.746094 115.882812 C 178.976562 114.765625 180.65625 114.074219 182.355469 114.074219 Z M 185.371094 116.363281 C 184.667969 115.578125 183.675781 115.09375 182.460938 115.09375 C 181.101562 115.09375 179.730469 115.671875 178.710938 116.597656 C 177.730469 117.492188 177.082031 118.703125 177.082031 120.042969 C 177.082031 121.417969 177.628906 122.65625 178.511719 123.546875 C 179.355469 124.402344 180.515625 124.929688 181.789062 124.929688 C 183.089844 124.929688 184.28125 124.386719 185.148438 123.503906 C 186.046875 122.601562 186.601562 121.34375 186.601562 119.953125 C 186.601562 118.523438 186.164062 117.25 185.371094 116.363281 " fill-opacity="1" fill-rule="nonzero"/><path fill="#431c16" d="M 198.890625 119.523438 C 198.464844 119.523438 198.105469 119.695312 197.851562 119.988281 C 197.539062 120.335938 197.363281 120.84375 197.363281 121.410156 C 197.363281 121.9375 197.570312 122.410156 197.902344 122.742188 C 198.195312 123.042969 198.59375 123.226562 199.03125 123.226562 C 199.488281 123.226562 199.917969 123.027344 200.238281 122.703125 C 200.585938 122.351562 200.800781 121.867188 200.800781 121.320312 C 200.800781 120.824219 200.5625 120.378906 200.207031 120.054688 C 199.84375 119.726562 199.363281 119.523438 198.890625 119.523438 Z M 196.8125 119.34375 C 197.277344 118.820312 197.949219 118.5 198.785156 118.5 C 199.640625 118.5 200.488281 118.847656 201.109375 119.410156 C 201.679688 119.929688 202.054688 120.636719 202.054688 121.410156 C 202.054688 122.179688 201.746094 122.875 201.246094 123.382812 C 200.714844 123.917969 199.96875 124.25 199.136719 124.25 C 198.277344 124.25 197.503906 123.902344 196.949219 123.339844 C 196.429688 122.816406 196.109375 122.105469 196.109375 121.320312 C 196.109375 120.550781 196.359375 119.847656 196.8125 119.34375 " fill-opacity="1" fill-rule="nonzero"/><path fill="#431c16" d="M 128.800781 90.371094 C 128.058594 90.371094 127.449219 90.671875 127.011719 91.160156 C 126.511719 91.722656 126.234375 92.527344 126.234375 93.429688 C 126.234375 94.28125 126.570312 95.042969 127.109375 95.59375 C 127.613281 96.101562 128.304688 96.417969 129.058594 96.417969 C 129.84375 96.417969 130.5625 96.085938 131.089844 95.550781 C 131.648438 94.988281 131.992188 94.207031 131.992188 93.339844 C 131.992188 92.527344 131.601562 91.796875 131.015625 91.261719 C 130.410156 90.714844 129.601562 90.371094 128.800781 90.371094 Z M 125.976562 90.519531 C 126.617188 89.792969 127.546875 89.351562 128.691406 89.351562 C 129.875 89.351562 131.054688 89.835938 131.914062 90.617188 C 132.714844 91.347656 133.246094 92.335938 133.246094 93.429688 C 133.246094 94.519531 132.808594 95.511719 132.09375 96.230469 C 131.355469 96.976562 130.324219 97.441406 129.167969 97.441406 C 127.984375 97.441406 126.921875 96.960938 126.15625 96.1875 C 125.429688 95.453125 124.980469 94.445312 124.980469 93.339844 C 124.980469 92.238281 125.335938 91.234375 125.976562 90.519531 " fill-opacity="1" fill-rule="nonzero"/><path fill="#431c16" d="M 91.292969 172.484375 C 89.921875 172.484375 88.796875 173.03125 88 173.925781 C 87.121094 174.914062 86.628906 176.324219 86.628906 177.898438 C 86.628906 179.402344 87.226562 180.761719 88.191406 181.734375 C 89.117188 182.675781 90.398438 183.253906 91.796875 183.253906 C 93.226562 183.253906 94.53125 182.65625 95.488281 181.695312 C 96.46875 180.703125 97.074219 179.328125 97.074219 177.808594 C 97.074219 176.359375 96.382812 175.054688 95.328125 174.09375 C 94.234375 173.101562 92.757812 172.484375 91.292969 172.484375 Z M 86.960938 173.285156 C 87.96875 172.15625 89.410156 171.464844 91.183594 171.464844 C 93.035156 171.464844 94.878906 172.222656 96.230469 173.453125 C 97.496094 174.601562 98.332031 176.171875 98.332031 177.898438 C 98.332031 179.640625 97.628906 181.226562 96.492188 182.375 C 95.328125 183.546875 93.707031 184.277344 91.90625 184.277344 C 90.078125 184.277344 88.425781 183.53125 87.238281 182.332031 C 86.085938 181.167969 85.375 179.570312 85.375 177.808594 C 85.375 176.035156 85.941406 174.429688 86.960938 173.285156 " fill-opacity="1" fill-rule="nonzero"/><path fill="#431c16" d="M 64.5 176.679688 C 63.128906 176.679688 62.003906 177.226562 61.207031 178.121094 C 60.324219 179.109375 59.835938 180.519531 59.835938 182.09375 C 59.835938 183.597656 60.433594 184.957031 61.398438 185.929688 C 62.328125 186.867188 63.605469 187.449219 65.007812 187.449219 C 66.433594 187.449219 67.742188 186.851562 68.695312 185.890625 C 69.679688 184.898438 70.285156 183.523438 70.285156 182.003906 C 70.285156 180.554688 69.589844 179.246094 68.535156 178.289062 C 67.441406 177.296875 65.96875 176.679688 64.5 176.679688 Z M 60.171875 177.480469 C 61.175781 176.347656 62.617188 175.660156 64.394531 175.660156 C 66.242188 175.660156 68.085938 176.417969 69.4375 177.644531 C 70.703125 178.796875 71.539062 180.363281 71.539062 182.09375 C 71.539062 183.835938 70.835938 185.421875 69.699219 186.566406 C 68.539062 187.742188 66.914062 188.472656 65.113281 188.472656 C 63.289062 188.472656 61.636719 187.726562 60.445312 186.527344 C 59.296875 185.363281 58.582031 183.765625 58.582031 182.003906 C 58.582031 180.226562 59.152344 178.625 60.171875 177.480469 " fill-opacity="1" fill-rule="nonzero"/><path fill="#431c16" d="M 134.09375 196.351562 C 132.722656 196.351562 131.597656 196.902344 130.800781 197.796875 C 129.917969 198.785156 129.429688 200.195312 129.429688 201.769531 C 129.429688 203.273438 130.027344 204.628906 130.992188 205.605469 C 131.921875 206.542969 133.195312 207.121094 134.601562 207.121094 C 136.027344 207.121094 137.332031 206.527344 138.289062 205.5625 C 139.273438 204.570312 139.878906 203.195312 139.878906 201.675781 C 139.878906 200.230469 139.179688 198.921875 138.125 197.964844 C 137.035156 196.96875 135.5625 196.351562 134.09375 196.351562 Z M 129.761719 197.15625 C 130.769531 196.027344 132.210938 195.332031 133.988281 195.332031 C 135.835938 195.332031 137.679688 196.09375 139.03125 197.320312 C 140.296875 198.472656 141.132812 200.039062 141.132812 201.769531 C 141.132812 203.511719 140.429688 205.09375 139.292969 206.242188 C 138.128906 207.417969 136.507812 208.144531 134.707031 208.144531 C 132.878906 208.144531 131.230469 207.402344 130.039062 206.203125 C 128.886719 205.035156 128.175781 203.4375 128.175781 201.675781 C 128.175781 199.902344 128.742188 198.296875 129.761719 197.15625 " fill-opacity="1" fill-rule="nonzero"/><path fill="#431c16" d="M 171.980469 208.46875 C 170.867188 208.46875 169.949219 208.914062 169.300781 209.644531 C 168.574219 210.460938 168.167969 211.621094 168.167969 212.921875 C 168.167969 214.164062 168.660156 215.277344 169.453125 216.082031 C 170.207031 216.84375 171.246094 217.316406 172.386719 217.316406 C 173.554688 217.316406 174.621094 216.828125 175.402344 216.039062 C 176.210938 215.21875 176.710938 214.085938 176.710938 212.835938 C 176.710938 211.644531 176.140625 210.570312 175.277344 209.78125 C 174.382812 208.972656 173.179688 208.46875 171.980469 208.46875 Z M 168.261719 209 C 169.121094 208.035156 170.355469 207.445312 171.875 207.445312 C 173.453125 207.445312 175.027344 208.09375 176.179688 209.140625 C 177.257812 210.121094 177.96875 211.449219 177.96875 212.921875 C 177.96875 214.402344 177.371094 215.746094 176.40625 216.71875 C 175.417969 217.722656 174.03125 218.339844 172.492188 218.339844 C 170.929688 218.339844 169.515625 217.703125 168.5 216.675781 C 167.523438 215.6875 166.914062 214.328125 166.914062 212.835938 C 166.914062 211.328125 167.394531 209.972656 168.261719 209 " fill-opacity="1" fill-rule="nonzero"/><path fill="#431c16" d="M 40.792969 85.453125 C 39.9375 85.453125 39.226562 85.796875 38.722656 86.359375 C 38.152344 87.003906 37.832031 87.921875 37.832031 88.949219 C 37.832031 89.925781 38.21875 90.800781 38.839844 91.425781 C 39.421875 92.015625 40.222656 92.382812 41.097656 92.382812 C 42.003906 92.382812 42.832031 92.003906 43.441406 91.386719 C 44.078125 90.742188 44.476562 89.847656 44.476562 88.863281 C 44.476562 87.929688 44.027344 87.089844 43.351562 86.472656 C 42.65625 85.84375 41.71875 85.453125 40.792969 85.453125 Z M 37.683594 85.71875 C 38.398438 84.917969 39.421875 84.429688 40.683594 84.429688 C 41.996094 84.429688 43.300781 84.964844 44.253906 85.832031 C 45.140625 86.640625 45.730469 87.738281 45.730469 88.949219 C 45.730469 90.164062 45.238281 91.265625 44.449219 92.066406 C 43.628906 92.894531 42.484375 93.40625 41.207031 93.40625 C 39.90625 93.40625 38.730469 92.878906 37.886719 92.023438 C 37.078125 91.207031 36.578125 90.089844 36.578125 88.863281 C 36.578125 87.628906 36.976562 86.515625 37.683594 85.71875 " fill-opacity="1" fill-rule="nonzero"/><path fill="#431c16" d="M 105.3125 85.566406 C 104.710938 85.566406 104.214844 85.8125 103.855469 86.214844 C 103.441406 86.679688 103.207031 87.355469 103.207031 88.109375 C 103.207031 88.820312 103.484375 89.453125 103.933594 89.90625 C 104.34375 90.324219 104.90625 90.582031 105.519531 90.582031 C 106.160156 90.582031 106.753906 90.308594 107.191406 89.867188 C 107.65625 89.394531 107.945312 88.746094 107.945312 88.019531 C 107.945312 87.351562 107.621094 86.742188 107.132812 86.300781 C 106.636719 85.847656 105.972656 85.566406 105.3125 85.566406 Z M 102.820312 85.570312 C 103.386719 84.933594 104.199219 84.546875 105.207031 84.546875 C 106.246094 84.546875 107.28125 84.972656 108.035156 85.65625 C 108.734375 86.292969 109.199219 87.15625 109.199219 88.109375 C 109.199219 89.058594 108.8125 89.921875 108.195312 90.546875 C 107.550781 91.199219 106.644531 91.605469 105.628906 91.605469 C 104.589844 91.605469 103.652344 91.183594 102.980469 90.503906 C 102.347656 89.863281 101.953125 88.984375 101.953125 88.019531 C 101.953125 87.066406 102.261719 86.195312 102.820312 85.570312 " fill-opacity="1" fill-rule="nonzero"/><path fill="#431c16" d="M 162.492188 103.867188 C 162.144531 103.867188 161.851562 104.011719 161.640625 104.246094 C 161.378906 104.539062 161.234375 104.96875 161.234375 105.453125 C 161.234375 105.894531 161.40625 106.289062 161.679688 106.570312 C 161.921875 106.8125 162.242188 106.960938 162.597656 106.960938 C 162.972656 106.960938 163.328125 106.796875 163.59375 106.527344 C 163.882812 106.230469 164.066406 105.820312 164.066406 105.363281 C 164.066406 104.949219 163.871094 104.578125 163.570312 104.304688 C 163.273438 104.035156 162.878906 103.867188 162.492188 103.867188 Z M 160.605469 103.605469 C 161.023438 103.132812 161.632812 102.84375 162.382812 102.84375 C 163.15625 102.84375 163.917969 103.15625 164.46875 103.660156 C 164.984375 104.125 165.320312 104.757812 165.320312 105.453125 C 165.320312 106.136719 165.042969 106.757812 164.597656 107.207031 C 164.125 107.6875 163.453125 107.984375 162.703125 107.984375 C 161.925781 107.984375 161.230469 107.671875 160.730469 107.167969 C 160.265625 106.699219 159.976562 106.058594 159.976562 105.363281 C 159.976562 104.675781 160.203125 104.054688 160.605469 103.605469 " fill-opacity="1" fill-rule="nonzero"/><path fill="#431c16" d="M 142.054688 101.714844 C 141.1875 101.714844 140.472656 102.046875 139.964844 102.59375 C 139.398438 103.203125 139.078125 104.078125 139.078125 105.054688 C 139.078125 105.980469 139.460938 106.816406 140.078125 107.410156 C 140.664062 107.976562 141.472656 108.328125 142.359375 108.328125 C 143.269531 108.328125 144.109375 107.964844 144.71875 107.371094 C 145.355469 106.757812 145.75 105.90625 145.75 104.96875 C 145.75 104.082031 145.304688 103.285156 144.632812 102.699219 C 143.929688 102.09375 142.988281 101.714844 142.054688 101.714844 Z M 138.941406 101.929688 C 139.660156 101.164062 140.683594 100.695312 141.945312 100.695312 C 143.253906 100.695312 144.558594 101.207031 145.511719 102.039062 C 146.410156 102.820312 147.003906 103.882812 147.003906 105.054688 C 147.003906 106.230469 146.507812 107.296875 145.710938 108.066406 C 144.890625 108.859375 143.746094 109.351562 142.46875 109.351562 C 141.171875 109.351562 139.992188 108.847656 139.144531 108.027344 C 138.332031 107.238281 137.828125 106.15625 137.828125 104.96875 C 137.828125 103.777344 138.226562 102.699219 138.941406 101.929688 " fill-opacity="1" fill-rule="nonzero"/><path fill="#431c16" d="M 84.585938 81.089844 C 83.722656 81.089844 83.007812 81.421875 82.5 81.964844 C 81.933594 82.578125 81.613281 83.453125 81.613281 84.429688 C 81.613281 85.359375 81.996094 86.191406 82.613281 86.785156 C 83.199219 87.355469 84.007812 87.707031 84.894531 87.707031 C 85.808594 87.707031 86.640625 87.339844 87.253906 86.746094 C 87.890625 86.136719 88.28125 85.28125 88.28125 84.34375 C 88.28125 83.460938 87.839844 82.660156 87.167969 82.078125 C 86.464844 81.46875 85.523438 81.089844 84.585938 81.089844 Z M 81.476562 81.308594 C 82.191406 80.539062 83.214844 80.066406 84.480469 80.066406 C 85.789062 80.066406 87.09375 80.585938 88.046875 81.414062 C 88.945312 82.191406 89.539062 83.257812 89.539062 84.429688 C 89.539062 85.605469 89.042969 86.671875 88.246094 87.441406 C 87.425781 88.238281 86.277344 88.726562 85 88.726562 C 83.703125 88.726562 82.527344 88.21875 81.683594 87.402344 C 80.867188 86.613281 80.359375 85.53125 80.359375 84.34375 C 80.359375 83.152344 80.761719 82.078125 81.476562 81.308594 " fill-opacity="1" fill-rule="nonzero"/><path fill="#431c16" d="M 58.738281 183.8125 C 57.871094 183.8125 57.15625 184.144531 56.652344 184.6875 C 56.082031 185.296875 55.765625 186.171875 55.765625 187.152344 C 55.765625 188.078125 56.144531 188.910156 56.765625 189.507812 C 57.351562 190.074219 58.15625 190.425781 59.042969 190.425781 C 59.957031 190.425781 60.792969 190.058594 61.402344 189.46875 C 62.039062 188.855469 62.433594 188.003906 62.433594 187.0625 C 62.433594 186.179688 61.988281 185.382812 61.316406 184.796875 C 60.617188 184.191406 59.675781 183.8125 58.738281 183.8125 Z M 55.628906 184.027344 C 56.34375 183.261719 57.367188 182.789062 58.628906 182.789062 C 59.9375 182.789062 61.242188 183.304688 62.195312 184.132812 C 63.09375 184.914062 63.6875 185.976562 63.6875 187.152344 C 63.6875 188.324219 63.195312 189.390625 62.394531 190.164062 C 61.574219 190.957031 60.429688 191.445312 59.152344 191.445312 C 57.855469 191.445312 56.679688 190.941406 55.832031 190.125 C 55.015625 189.335938 54.511719 188.253906 54.511719 187.0625 C 54.511719 185.875 54.910156 184.796875 55.628906 184.027344 " fill-opacity="1" fill-rule="nonzero"/><path fill="#431c16" d="M 167.246094 179 C 166.378906 179 165.667969 179.332031 165.160156 179.875 C 164.589844 180.488281 164.273438 181.363281 164.273438 182.339844 C 164.273438 183.265625 164.65625 184.101562 165.269531 184.695312 C 165.859375 185.265625 166.667969 185.617188 167.550781 185.617188 C 168.464844 185.617188 169.300781 185.25 169.914062 184.65625 C 170.546875 184.042969 170.941406 183.195312 170.941406 182.25 C 170.941406 181.367188 170.496094 180.570312 169.824219 179.988281 C 169.125 179.375 168.183594 179 167.246094 179 Z M 164.136719 179.21875 C 164.851562 178.449219 165.875 177.980469 167.136719 177.980469 C 168.449219 177.980469 169.75 178.492188 170.707031 179.324219 C 171.601562 180.105469 172.195312 181.167969 172.195312 182.339844 C 172.195312 183.515625 171.699219 184.582031 170.902344 185.351562 C 170.082031 186.148438 168.933594 186.636719 167.660156 186.636719 C 166.363281 186.636719 165.1875 186.132812 164.339844 185.3125 C 163.523438 184.523438 163.019531 183.441406 163.019531 182.25 C 163.019531 181.0625 163.417969 179.988281 164.136719 179.21875 " fill-opacity="1" fill-rule="nonzero"/><path fill="#431c16" d="M 168.140625 196.988281 C 167.433594 196.988281 166.851562 197.261719 166.4375 197.707031 C 165.960938 198.210938 165.699219 198.941406 165.699219 199.757812 C 165.699219 200.527344 166.015625 201.21875 166.523438 201.710938 C 167.003906 202.175781 167.664062 202.460938 168.386719 202.460938 C 169.132812 202.460938 169.824219 202.160156 170.328125 201.667969 C 170.855469 201.160156 171.183594 200.453125 171.183594 199.671875 C 171.183594 198.941406 170.816406 198.28125 170.261719 197.800781 C 169.6875 197.296875 168.910156 196.988281 168.140625 196.988281 Z M 165.410156 197.046875 C 166.035156 196.375 166.929688 195.964844 168.035156 195.964844 C 169.175781 195.964844 170.3125 196.414062 171.140625 197.136719 C 171.921875 197.8125 172.4375 198.738281 172.4375 199.757812 C 172.4375 200.773438 172.011719 201.695312 171.320312 202.367188 C 170.609375 203.058594 169.609375 203.480469 168.496094 203.480469 C 167.359375 203.480469 166.332031 203.042969 165.59375 202.328125 C 164.882812 201.640625 164.441406 200.699219 164.441406 199.671875 C 164.441406 198.640625 164.789062 197.710938 165.410156 197.046875 " fill-opacity="1" fill-rule="nonzero"/><path fill="#431c16" d="M 162.046875 215.078125 C 161.496094 215.078125 161.042969 215.292969 160.71875 215.636719 L 160.703125 215.65625 C 160.335938 216.0625 160.132812 216.636719 160.132812 217.28125 C 160.132812 217.894531 160.382812 218.4375 160.785156 218.828125 C 161.15625 219.1875 161.667969 219.414062 162.230469 219.414062 C 162.816406 219.414062 163.355469 219.175781 163.75 218.789062 C 164.175781 218.382812 164.4375 217.816406 164.4375 217.195312 C 164.4375 216.617188 164.144531 216.097656 163.707031 215.71875 C 163.253906 215.324219 162.644531 215.078125 162.046875 215.078125 Z M 159.695312 214.980469 C 160.226562 214.40625 160.996094 214.058594 161.9375 214.058594 C 162.910156 214.058594 163.878906 214.4375 164.585938 215.054688 C 165.25 215.628906 165.6875 216.414062 165.6875 217.28125 C 165.6875 218.140625 165.328125 218.921875 164.742188 219.484375 C 164.136719 220.070312 163.285156 220.433594 162.335938 220.433594 C 161.363281 220.433594 160.484375 220.058594 159.851562 219.445312 C 159.25 218.863281 158.878906 218.066406 158.878906 217.195312 C 158.878906 216.339844 159.164062 215.5625 159.671875 215.003906 L 159.695312 214.980469 " fill-opacity="1" fill-rule="nonzero"/><path fill="#431c16" d="M 125.347656 99.191406 C 124.957031 99.191406 124.632812 99.34375 124.398438 99.59375 C 124.117188 99.894531 123.960938 100.332031 123.960938 100.828125 C 123.960938 101.277344 124.144531 101.683594 124.441406 101.96875 C 124.707031 102.226562 125.070312 102.386719 125.46875 102.386719 C 125.890625 102.386719 126.28125 102.210938 126.570312 101.929688 C 126.886719 101.625 127.082031 101.203125 127.082031 100.738281 C 127.082031 100.316406 126.871094 99.933594 126.550781 99.65625 C 126.21875 99.371094 125.777344 99.191406 125.347656 99.191406 Z M 123.375 98.933594 C 123.820312 98.457031 124.453125 98.167969 125.238281 98.167969 C 126.042969 98.167969 126.84375 98.484375 127.429688 98.992188 C 127.976562 99.464844 128.335938 100.113281 128.335938 100.828125 C 128.335938 101.527344 128.039062 102.164062 127.5625 102.625 C 127.0625 103.109375 126.359375 103.410156 125.578125 103.410156 C 124.765625 103.410156 124.035156 103.09375 123.511719 102.585938 C 123.015625 102.109375 122.707031 101.453125 122.707031 100.738281 C 122.707031 100.035156 122.945312 99.394531 123.375 98.933594 " fill-opacity="1" fill-rule="nonzero"/><path fill="#431c16" d="M 75.390625 84.550781 C 76.355469 84.550781 77.140625 84.910156 77.691406 85.503906 C 78.226562 86.074219 78.523438 86.867188 78.523438 87.730469 C 78.523438 88.578125 78.164062 89.347656 77.589844 89.902344 C 76.988281 90.480469 76.152344 90.839844 75.214844 90.839844 C 74.253906 90.839844 73.386719 90.46875 72.761719 89.863281 C 72.167969 89.289062 71.800781 88.503906 71.800781 87.644531 C 71.800781 86.804688 72.21875 86.050781 72.851562 85.5 C 73.523438 84.910156 74.453125 84.550781 75.390625 84.550781 Z M 76.714844 86.074219 C 76.421875 85.761719 76.007812 85.570312 75.5 85.570312 C 74.890625 85.570312 74.269531 85.824219 73.800781 86.230469 C 73.351562 86.621094 73.054688 87.148438 73.054688 87.730469 C 73.054688 88.328125 73.296875 88.863281 73.691406 89.246094 C 74.058594 89.601562 74.558594 89.820312 75.105469 89.820312 C 75.679688 89.820312 76.210938 89.585938 76.597656 89.210938 C 77.011719 88.808594 77.265625 88.253906 77.265625 87.644531 C 77.265625 87.011719 77.070312 86.453125 76.714844 86.074219 " fill-opacity="1" fill-rule="nonzero"/><path fill="#431c16" d="M 117.679688 200.382812 C 118.640625 200.382812 119.425781 200.746094 119.980469 201.339844 C 120.511719 201.914062 120.808594 202.703125 120.808594 203.566406 C 120.808594 204.414062 120.449219 205.183594 119.875 205.738281 C 119.277344 206.316406 118.4375 206.675781 117.5 206.675781 C 116.539062 206.675781 115.671875 206.304688 115.050781 205.699219 C 114.457031 205.128906 114.085938 204.339844 114.085938 203.480469 C 114.085938 202.640625 114.503906 201.886719 115.136719 201.335938 C 115.8125 200.746094 116.742188 200.382812 117.679688 200.382812 Z M 119 201.910156 C 118.707031 201.597656 118.292969 201.40625 117.789062 201.40625 C 117.175781 201.40625 116.554688 201.660156 116.089844 202.066406 C 115.636719 202.457031 115.339844 202.984375 115.339844 203.566406 C 115.339844 204.164062 115.585938 204.703125 115.980469 205.082031 C 116.34375 205.4375 116.84375 205.652344 117.394531 205.652344 C 117.964844 205.652344 118.496094 205.421875 118.882812 205.042969 C 119.296875 204.644531 119.554688 204.089844 119.554688 203.480469 C 119.554688 202.847656 119.355469 202.292969 119 201.910156 " fill-opacity="1" fill-rule="nonzero"/><path fill="#431c16" d="M 99.515625 165.898438 C 100.480469 165.898438 101.265625 166.257812 101.8125 166.851562 C 102.347656 167.425781 102.644531 168.214844 102.644531 169.078125 C 102.644531 169.929688 102.289062 170.695312 101.714844 171.25 C 101.113281 171.828125 100.273438 172.1875 99.335938 172.1875 C 98.375 172.1875 97.507812 171.816406 96.882812 171.210938 C 96.289062 170.640625 95.921875 169.851562 95.921875 168.992188 C 95.921875 168.152344 96.34375 167.398438 96.976562 166.847656 C 97.648438 166.261719 98.578125 165.898438 99.515625 165.898438 Z M 100.835938 167.421875 C 100.546875 167.109375 100.128906 166.917969 99.621094 166.917969 C 99.011719 166.917969 98.390625 167.171875 97.925781 167.578125 C 97.476562 167.96875 97.175781 168.5 97.175781 169.078125 C 97.175781 169.675781 97.421875 170.214844 97.816406 170.59375 C 98.183594 170.949219 98.683594 171.167969 99.226562 171.167969 C 99.800781 171.167969 100.332031 170.933594 100.722656 170.558594 C 101.132812 170.160156 101.390625 169.605469 101.390625 168.992188 C 101.390625 168.363281 101.191406 167.804688 100.835938 167.421875 " fill-opacity="1" fill-rule="nonzero"/><path fill="#431c16" d="M 43.535156 95.257812 C 44.5 95.257812 45.285156 95.617188 45.835938 96.210938 C 46.371094 96.785156 46.667969 97.574219 46.667969 98.4375 C 46.667969 99.285156 46.308594 100.054688 45.734375 100.609375 C 45.136719 101.1875 44.296875 101.546875 43.359375 101.546875 C 42.398438 101.546875 41.53125 101.175781 40.90625 100.570312 C 40.3125 99.996094 39.945312 99.210938 39.945312 98.351562 C 39.945312 97.511719 40.363281 96.757812 40.996094 96.207031 C 41.671875 95.617188 42.601562 95.257812 43.535156 95.257812 Z M 44.859375 96.78125 C 44.570312 96.46875 44.152344 96.277344 43.644531 96.277344 C 43.035156 96.277344 42.414062 96.53125 41.945312 96.9375 C 41.496094 97.328125 41.199219 97.855469 41.199219 98.4375 C 41.199219 99.035156 41.445312 99.574219 41.835938 99.953125 C 42.203125 100.308594 42.703125 100.527344 43.25 100.527344 C 43.824219 100.527344 44.355469 100.292969 44.742188 99.914062 C 45.15625 99.515625 45.414062 98.960938 45.414062 98.351562 C 45.414062 97.71875 45.214844 97.164062 44.859375 96.78125 " fill-opacity="1" fill-rule="nonzero"/><path fill="#431c16" d="M 27.597656 101.171875 C 28.921875 101.171875 30.347656 100.597656 31.429688 99.699219 C 32.429688 98.859375 33.117188 97.738281 33.117188 96.539062 C 33.117188 95.335938 32.511719 94.253906 31.59375 93.457031 C 30.640625 92.625 29.351562 92.109375 28.070312 92.109375 C 27.636719 92.109375 27.230469 92.167969 26.863281 92.277344 C 26.480469 92.390625 26.128906 92.5625 25.8125 92.777344 L 24.953125 91.976562 C 25.363281 91.691406 25.835938 91.464844 26.351562 91.3125 C 26.847656 91.167969 27.390625 91.089844 27.960938 91.089844 C 29.613281 91.089844 31.269531 91.738281 32.476562 92.792969 C 33.617188 93.785156 34.371094 95.136719 34.371094 96.628906 C 34.371094 98.097656 33.554688 99.445312 32.363281 100.441406 C 31.082031 101.511719 29.347656 102.191406 27.707031 102.191406 L 27.597656 101.171875 " fill-opacity="1" fill-rule="nonzero"/><path fill="#431c16" d="M 85.140625 160.023438 C 84.335938 160.023438 83.675781 160.335938 83.203125 160.839844 C 82.671875 161.410156 82.375 162.226562 82.375 163.140625 C 82.375 164.003906 82.730469 164.78125 83.308594 165.335938 C 83.851562 165.859375 84.601562 166.1875 85.421875 166.1875 C 86.265625 166.1875 87.046875 165.847656 87.613281 165.296875 C 88.207031 164.726562 88.574219 163.929688 88.574219 163.050781 C 88.574219 162.230469 88.160156 161.484375 87.53125 160.941406 C 86.882812 160.375 86.007812 160.023438 85.140625 160.023438 Z M 82.179688 160.179688 C 82.859375 159.449219 83.832031 159.003906 85.03125 159.003906 C 86.273438 159.003906 87.507812 159.492188 88.414062 160.28125 C 89.265625 161.019531 89.828125 162.027344 89.828125 163.140625 C 89.828125 164.253906 89.359375 165.261719 88.605469 165.992188 C 87.828125 166.742188 86.738281 167.210938 85.53125 167.210938 C 84.292969 167.210938 83.175781 166.730469 82.375 165.953125 C 81.601562 165.203125 81.121094 164.179688 81.121094 163.050781 C 81.121094 161.925781 81.5 160.90625 82.179688 160.179688 " fill-opacity="1" fill-rule="nonzero"/><path fill="#431c16" d="M 133.003906 187.152344 C 132.59375 187.152344 132.25 187.316406 132.007812 187.578125 C 131.710938 187.894531 131.550781 188.347656 131.550781 188.863281 C 131.550781 189.339844 131.742188 189.761719 132.050781 190.058594 C 132.332031 190.332031 132.714844 190.5 133.132812 190.5 C 133.578125 190.5 133.988281 190.316406 134.292969 190.023438 C 134.621094 189.707031 134.828125 189.261719 134.828125 188.777344 C 134.828125 188.332031 134.601562 187.933594 134.269531 187.640625 C 133.921875 187.339844 133.457031 187.152344 133.003906 187.152344 Z M 130.984375 186.917969 C 131.4375 186.429688 132.089844 186.132812 132.894531 186.132812 C 133.722656 186.132812 134.546875 186.453125 135.148438 186.976562 C 135.707031 187.464844 136.082031 188.132812 136.082031 188.863281 C 136.082031 189.585938 135.777344 190.242188 135.285156 190.714844 C 134.773438 191.214844 134.046875 191.523438 133.242188 191.523438 C 132.410156 191.519531 131.65625 191.199219 131.117188 190.675781 C 130.609375 190.183594 130.296875 189.515625 130.296875 188.777344 C 130.296875 188.050781 130.539062 187.390625 130.984375 186.917969 " fill-opacity="1" fill-rule="nonzero"/><path fill="#431c16" d="M 177.511719 197.546875 C 177.140625 197.546875 176.832031 197.691406 176.605469 197.933594 C 176.339844 198.222656 176.183594 198.640625 176.183594 199.121094 C 176.183594 199.550781 176.363281 199.941406 176.644531 200.214844 C 176.898438 200.460938 177.246094 200.613281 177.625 200.613281 C 178.03125 200.613281 178.40625 200.449219 178.683594 200.175781 C 178.988281 199.882812 179.175781 199.480469 179.175781 199.027344 C 179.175781 198.621094 178.972656 198.257812 178.664062 197.992188 C 178.347656 197.714844 177.925781 197.546875 177.511719 197.546875 Z M 175.585938 197.269531 C 176.015625 196.808594 176.636719 196.523438 177.40625 196.523438 C 178.191406 196.523438 178.972656 196.832031 179.542969 197.328125 C 180.078125 197.792969 180.429688 198.421875 180.429688 199.121094 C 180.429688 199.804688 180.140625 200.421875 179.675781 200.871094 C 179.1875 201.34375 178.503906 201.636719 177.734375 201.636719 C 176.941406 201.636719 176.226562 201.332031 175.714844 200.832031 C 175.230469 200.367188 174.933594 199.726562 174.933594 199.027344 C 174.933594 198.34375 175.164062 197.71875 175.585938 197.269531 " fill-opacity="1" fill-rule="nonzero"/><path fill="#431c16" d="M 111.382812 177.421875 C 111.464844 177.421875 111.550781 177.417969 111.628906 177.40625 C 111.578125 177.75 111.53125 178.097656 111.484375 178.441406 C 109.71875 178.441406 107.726562 177.101562 107.726562 175.207031 C 107.726562 172.816406 110.277344 171.476562 112.382812 172.273438 C 112.292969 172.535156 112.238281 172.882812 112.230469 173.335938 C 110.777344 172.503906 108.980469 173.652344 108.980469 175.292969 C 108.980469 176.507812 110.238281 177.421875 111.382812 177.421875 " fill-opacity="1" fill-rule="nonzero"/><path fill="#431c16" d="M 135.820312 115.988281 C 137.660156 115.988281 139.164062 115.292969 140.226562 114.152344 C 141.382812 112.910156 142.023438 111.152344 142.023438 109.183594 C 142.023438 107.296875 141.238281 105.589844 139.972656 104.363281 C 138.734375 103.164062 137.023438 102.421875 135.140625 102.421875 C 133.234375 102.421875 131.496094 103.175781 130.234375 104.402344 C 128.945312 105.648438 128.148438 107.371094 128.148438 109.277344 C 128.148438 111.09375 129.0625 112.738281 130.449219 113.945312 C 131.902344 115.207031 133.867188 115.988281 135.820312 115.988281 Z M 141.25 114.8125 C 139.980469 116.175781 138.164062 117.011719 135.929688 117.011719 C 133.601562 117.011719 131.277344 116.089844 129.570312 114.605469 C 127.957031 113.207031 126.890625 111.296875 126.890625 109.183594 C 126.890625 107.046875 127.789062 105.109375 129.242188 103.707031 C 130.714844 102.28125 132.761719 101.398438 135.035156 101.398438 C 137.332031 101.398438 139.40625 102.296875 140.902344 103.746094 C 142.371094 105.167969 143.277344 107.125 143.277344 109.277344 C 143.277344 111.449219 142.554688 113.414062 141.25 114.8125 " fill-opacity="1" fill-rule="nonzero"/><path fill="#431c16" d="M 185.707031 104.210938 C 186.769531 104.210938 187.640625 103.808594 188.257812 103.144531 C 188.945312 102.40625 189.328125 101.359375 189.328125 100.183594 C 189.328125 99.0625 188.867188 98.054688 188.117188 97.332031 C 187.402344 96.636719 186.414062 96.207031 185.328125 96.207031 C 184.21875 96.207031 183.203125 96.652344 182.460938 97.371094 C 181.695312 98.113281 181.222656 99.140625 181.222656 100.273438 C 181.222656 101.339844 181.757812 102.308594 182.574219 103.015625 C 183.421875 103.753906 184.570312 104.210938 185.707031 104.210938 Z M 189.28125 103.804688 C 188.453125 104.691406 187.273438 105.234375 185.816406 105.234375 C 184.300781 105.234375 182.796875 104.636719 181.695312 103.679688 C 180.65625 102.773438 179.964844 101.542969 179.964844 100.183594 C 179.964844 98.816406 180.542969 97.574219 181.46875 96.679688 C 182.417969 95.757812 183.746094 95.1875 185.222656 95.1875 C 186.722656 95.1875 188.074219 95.773438 189.050781 96.714844 C 189.996094 97.632812 190.582031 98.890625 190.582031 100.273438 C 190.582031 101.65625 190.117188 102.910156 189.28125 103.804688 " fill-opacity="1" fill-rule="nonzero"/><path fill="#431c16" d="M 189.738281 100.765625 C 188.527344 100.765625 187.535156 101.226562 186.835938 101.980469 C 186.058594 102.8125 185.625 104 185.625 105.328125 C 185.625 106.59375 186.148438 107.734375 186.996094 108.554688 C 187.8125 109.34375 188.9375 109.835938 190.171875 109.835938 C 191.4375 109.835938 192.589844 109.332031 193.433594 108.515625 C 194.296875 107.679688 194.835938 106.515625 194.835938 105.238281 C 194.835938 104.027344 194.222656 102.929688 193.296875 102.125 C 192.335938 101.285156 191.03125 100.765625 189.738281 100.765625 Z M 185.808594 101.320312 C 186.722656 100.34375 188.027344 99.746094 189.628906 99.746094 C 191.300781 99.746094 192.960938 100.402344 194.179688 101.464844 C 195.328125 102.460938 196.089844 103.824219 196.089844 105.328125 C 196.089844 106.84375 195.453125 108.214844 194.425781 109.210938 C 193.371094 110.226562 191.910156 110.855469 190.28125 110.855469 C 188.632812 110.855469 187.140625 110.210938 186.0625 109.171875 C 185.015625 108.15625 184.371094 106.765625 184.371094 105.238281 C 184.371094 103.703125 184.882812 102.3125 185.808594 101.320312 " fill-opacity="1" fill-rule="nonzero"/><path fill="#431c16" d="M 149.632812 95.085938 C 149.035156 95.085938 148.535156 95.316406 148.183594 95.699219 C 147.777344 96.136719 147.546875 96.765625 147.546875 97.472656 C 147.546875 98.136719 147.816406 98.730469 148.257812 99.152344 C 148.664062 99.546875 149.222656 99.792969 149.835938 99.792969 C 150.476562 99.792969 151.0625 99.53125 151.496094 99.113281 C 151.953125 98.675781 152.234375 98.0625 152.234375 97.386719 C 152.234375 96.761719 151.921875 96.191406 151.441406 95.78125 C 150.953125 95.351562 150.289062 95.085938 149.632812 95.085938 Z M 147.160156 95.039062 C 147.722656 94.433594 148.527344 94.0625 149.527344 94.0625 C 150.554688 94.0625 151.578125 94.46875 152.324219 95.117188 C 153.027344 95.726562 153.488281 96.558594 153.488281 97.472656 C 153.488281 98.382812 153.105469 99.210938 152.488281 99.808594 C 151.847656 100.429688 150.949219 100.8125 149.945312 100.8125 C 148.917969 100.8125 147.992188 100.414062 147.324219 99.769531 C 146.6875 99.152344 146.292969 98.3125 146.292969 97.386719 C 146.292969 96.46875 146.601562 95.636719 147.160156 95.039062 " fill-opacity="1" fill-rule="nonzero"/><path fill="#431c16" d="M 93.382812 87.484375 C 91.769531 87.484375 90.449219 88.101562 89.515625 89.101562 C 88.496094 90.199219 87.925781 91.753906 87.925781 93.496094 C 87.925781 95.164062 88.617188 96.664062 89.738281 97.746094 C 90.828125 98.800781 92.332031 99.453125 93.984375 99.453125 C 95.664062 99.453125 97.191406 98.785156 98.304688 97.707031 C 99.441406 96.609375 100.148438 95.085938 100.148438 93.40625 C 100.148438 91.800781 99.339844 90.351562 98.117188 89.289062 C 96.835938 88.175781 95.105469 87.484375 93.382812 87.484375 Z M 88.492188 88.445312 C 89.632812 87.214844 91.265625 86.464844 93.277344 86.464844 C 95.371094 86.464844 97.460938 87.289062 98.996094 88.625 C 100.445312 89.886719 101.402344 91.597656 101.402344 93.496094 C 101.402344 95.410156 100.59375 97.148438 99.296875 98.402344 C 97.972656 99.683594 96.132812 100.476562 94.089844 100.476562 C 92.023438 100.476562 90.15625 99.667969 88.808594 98.363281 C 87.488281 97.089844 86.671875 95.335938 86.671875 93.40625 C 86.671875 91.457031 87.324219 89.699219 88.492188 88.445312 " fill-opacity="1" fill-rule="nonzero"/><path fill="#431c16" d="M 167.679688 81.417969 C 171.097656 81.746094 174.386719 82.332031 177.550781 83.171875 C 181.296875 84.171875 185.296875 85.300781 188.285156 87.835938 C 185.449219 86.515625 180.34375 84.964844 177.253906 84.144531 C 174.164062 83.320312 167.546875 82.035156 164.230469 81.71875 L 167.679688 81.417969 " fill-opacity="1" fill-rule="nonzero"/><path fill="#431c16" d="M 207.023438 94.847656 L 207.058594 94.878906 C 208.5 96.046875 209.84375 97.261719 211.085938 98.519531 L 210.132812 99.113281 C 208.917969 97.886719 207.609375 96.703125 206.214844 95.570312 L 206.175781 95.542969 C 204.757812 94.394531 203.246094 93.296875 201.644531 92.25 C 202.980469 92.304688 205.71875 93.792969 207.023438 94.847656 " fill-opacity="1" fill-rule="nonzero"/><path fill="#431c16" d="M 116.472656 81.679688 C 119.386719 80.003906 123.03125 78.820312 127.40625 78.121094 C 132.59375 77.296875 139.285156 77.019531 144.503906 77.757812 C 138.820312 77.492188 131.992188 78.449219 127.746094 79.125 C 123.535156 79.796875 120.039062 80.929688 117.253906 82.53125 L 116.472656 81.679688 " fill-opacity="1" fill-rule="nonzero"/><path fill="#431c16" d="M 19.613281 66.890625 C 23.625 68.394531 28.226562 69.414062 33.414062 69.945312 C 38.625 70.480469 46.003906 70.886719 52.386719 70.441406 C 48.679688 72.226562 37.726562 71.410156 33.359375 70.960938 C 28.046875 70.414062 23.316406 69.363281 19.171875 67.8125 L 19.613281 66.890625 " fill-opacity="1" fill-rule="nonzero"/><path fill="#431c16" d="M 25.570312 76.636719 L 34.820312 71.800781 C 35 71.710938 35.21875 71.707031 35.414062 71.78125 L 46.320312 75.90625 L 45.875 76.824219 L 35.285156 72.816406 L 26.308594 77.511719 L 25.570312 76.636719 " fill-opacity="1" fill-rule="nonzero"/><path fill="#431c16" d="M 22.652344 79.464844 L 30.921875 82.730469 C 31.1875 82.835938 31.339844 83.0625 31.316406 83.277344 L 30.386719 91.957031 L 29.136719 91.777344 L 30.023438 83.472656 L 22.183594 80.375 L 22.652344 79.464844 " fill-opacity="1" fill-rule="nonzero"/><path fill="#431c16" d="M 47.84375 82.179688 L 53.953125 92.132812 C 54.03125 92.277344 54.023438 92.433594 53.949219 92.554688 L 49.65625 99.003906 L 52.695312 92.261719 L 47.84375 82.179688 " fill-opacity="1" fill-rule="nonzero"/><path fill="#431c16" d="M 53.039062 91.851562 L 62.007812 87.683594 L 53.71875 92.753906 Z M 53.039062 91.851562 " fill-opacity="1" fill-rule="nonzero"/><path fill="#431c16" d="M 74.21875 94.710938 L 81.925781 101.550781 L 93.476562 92.738281 L 91.308594 89.542969 L 94.789062 92.636719 C 94.941406 92.839844 94.917969 93.101562 94.710938 93.257812 L 82.308594 102.714844 C 82.046875 102.878906 81.652344 102.828125 81.425781 102.601562 L 74.21875 94.710938 " fill-opacity="1" fill-rule="nonzero"/><path fill="#431c16" d="M 107.207031 75.089844 C 104.441406 73.367188 102.023438 71.898438 99.957031 70.6875 C 98.109375 69.601562 96.535156 68.714844 95.234375 68.027344 C 94.472656 68.730469 93.65625 69.507812 92.796875 70.363281 C 91.796875 71.351562 90.738281 72.429688 89.625 73.601562 L 88.609375 72.933594 C 89.746094 71.742188 90.808594 70.652344 91.796875 69.675781 C 92.792969 68.6875 93.730469 67.796875 94.597656 67.007812 C 94.789062 66.835938 95.117188 66.804688 95.382812 66.941406 C 96.789062 67.671875 98.539062 68.648438 100.628906 69.878906 C 102.722656 71.105469 105.152344 72.578125 107.910156 74.296875 L 107.207031 75.089844 " fill-opacity="1" fill-rule="nonzero"/><path fill="#431c16" d="M 102.925781 60.316406 C 105.375 59.980469 108.082031 60.011719 111.039062 60.40625 L 110.941406 61.414062 C 108.113281 61.035156 105.542969 61.007812 103.238281 61.324219 C 100.949219 61.636719 98.910156 62.296875 97.117188 63.300781 C 98.714844 61.1875 101.433594 60.523438 102.925781 60.316406 " fill-opacity="1" fill-rule="nonzero"/><path fill="#431c16" d="M 110.398438 60.425781 C 113.226562 60.226562 115.917969 60.820312 118.460938 62.203125 L 117.832031 63.035156 C 115.550781 61.796875 113.144531 61.265625 110.609375 61.445312 C 108.03125 61.628906 105.308594 62.542969 102.445312 64.183594 C 104.078125 61.691406 108.863281 60.535156 110.398438 60.425781 " fill-opacity="1" fill-rule="nonzero"/><path fill="#431c16" d="M 74.105469 65.921875 C 76.535156 65.859375 89.417969 63.179688 91.511719 62.28125 C 86.21875 64.785156 80.015625 66.851562 74.105469 65.921875 " fill-opacity="1" fill-rule="nonzero"/><path fill="#431c16" d="M 63.65625 75.539062 L 56.125 69.152344 C 55.722656 69.71875 55.242188 70.398438 54.691406 71.191406 C 53.980469 72.207031 53.09375 73.492188 52.027344 75.050781 L 50.914062 74.496094 C 51.90625 73.050781 52.796875 71.761719 53.585938 70.628906 C 54.335938 69.554688 54.941406 68.695312 55.40625 68.054688 C 55.433594 68.011719 55.472656 67.964844 55.519531 67.929688 C 55.761719 67.746094 56.160156 67.765625 56.410156 67.980469 L 64.527344 74.871094 L 63.65625 75.539062 " fill-opacity="1" fill-rule="nonzero"/><path fill="#431c16" d="M 38.992188 70.460938 L 45.011719 66.027344 C 45.183594 65.902344 45.429688 65.875 45.644531 65.945312 L 55.238281 69.148438 L 54.851562 70.085938 L 45.621094 67.007812 L 39.871094 71.242188 L 38.992188 70.460938 " fill-opacity="1" fill-rule="nonzero"/><path fill="#431c16" d="M 147.480469 204.191406 C 148.070312 205.5 149.011719 206.496094 150.300781 207.171875 C 151.613281 207.867188 153.3125 208.25 155.386719 208.3125 C 154.207031 209.378906 150.945312 208.683594 149.683594 208.019531 C 148.609375 207.453125 146.996094 205.292969 147.480469 204.191406 " fill-opacity="1" fill-rule="nonzero"/><path fill="#431c16" d="M 162.234375 192.066406 C 160.40625 192.511719 159.304688 193.605469 158.871094 194.851562 C 158.664062 195.457031 158.605469 196.097656 158.699219 196.714844 C 158.792969 197.320312 159.03125 197.910156 159.40625 198.417969 C 160.167969 199.453125 161.53125 200.164062 163.429688 200.054688 C 161.671875 201.03125 159.175781 200.015625 158.34375 198.886719 C 157.871094 198.25 157.570312 197.511719 157.457031 196.753906 C 157.339844 196 157.40625 195.226562 157.664062 194.496094 C 158.148438 193.09375 160.03125 191.636719 162.234375 192.066406 " fill-opacity="1" fill-rule="nonzero"/><path fill="#431c16" d="M 151.90625 181.015625 C 153.074219 181.015625 154.03125 181.457031 154.699219 182.179688 C 155.359375 182.882812 155.726562 183.863281 155.726562 184.941406 C 155.726562 185.996094 155.28125 186.953125 154.566406 187.640625 C 153.828125 188.355469 152.792969 188.796875 151.648438 188.796875 C 150.472656 188.796875 149.410156 188.339844 148.648438 187.605469 C 147.914062 186.894531 147.457031 185.921875 147.457031 184.855469 C 147.457031 183.8125 147.976562 182.878906 148.765625 182.195312 C 149.601562 181.46875 150.75 181.015625 151.90625 181.015625 Z M 153.722656 182.75 C 153.3125 182.308594 152.726562 182.039062 152.015625 182.039062 C 151.183594 182.039062 150.34375 182.378906 149.714844 182.921875 C 149.109375 183.449219 148.710938 184.160156 148.710938 184.941406 C 148.710938 185.746094 149.042969 186.46875 149.578125 186.984375 C 150.082031 187.476562 150.777344 187.777344 151.539062 187.777344 C 152.324219 187.777344 153.046875 187.460938 153.574219 186.949219 C 154.128906 186.414062 154.472656 185.671875 154.472656 184.855469 C 154.472656 184.011719 154.203125 183.265625 153.722656 182.75 " fill-opacity="1" fill-rule="nonzero"/><path fill="#431c16" d="M 174.25 159.90625 C 175.03125 159.90625 175.664062 160.199219 176.113281 160.675781 C 176.53125 161.128906 176.765625 161.75 176.765625 162.429688 C 176.765625 163.09375 176.484375 163.695312 176.035156 164.132812 C 175.558594 164.59375 174.890625 164.878906 174.144531 164.878906 C 173.371094 164.878906 172.671875 164.578125 172.175781 164.09375 C 171.707031 163.640625 171.414062 163.019531 171.414062 162.339844 C 171.414062 161.679688 171.742188 161.085938 172.238281 160.652344 C 172.773438 160.191406 173.507812 159.90625 174.25 159.90625 Z M 175.132812 161.246094 C 174.945312 161.046875 174.683594 160.925781 174.359375 160.925781 C 173.941406 160.925781 173.511719 161.101562 173.191406 161.382812 C 172.875 161.65625 172.667969 162.027344 172.667969 162.429688 C 172.667969 162.847656 172.835938 163.214844 173.105469 163.476562 C 173.347656 163.710938 173.675781 163.855469 174.035156 163.855469 C 174.417969 163.855469 174.777344 163.695312 175.046875 163.4375 C 175.332031 163.15625 175.511719 162.769531 175.511719 162.339844 C 175.511719 161.898438 175.378906 161.511719 175.132812 161.246094 " fill-opacity="1" fill-rule="nonzero"/><path fill="#431c16" d="M 134.859375 163.769531 C 135.128906 164.941406 135.613281 165.8125 136.3125 166.382812 C 136.984375 166.929688 137.886719 167.214844 139.019531 167.234375 C 137.847656 168.8125 132.710938 166.941406 134.859375 163.769531 " fill-opacity="1" fill-rule="nonzero"/><path fill="#431c16" d="M 140.367188 180.132812 C 139.226562 180.417969 138.453125 181.210938 138.082031 182.160156 L 138.078125 182.171875 C 137.867188 182.710938 137.789062 183.296875 137.84375 183.867188 C 137.898438 184.429688 138.085938 184.980469 138.414062 185.457031 L 138.433594 185.488281 C 138.992188 186.28125 139.964844 186.859375 141.386719 186.917969 C 139.992188 187.714844 137.996094 186.84375 137.355469 185.933594 L 137.328125 185.894531 C 136.90625 185.277344 136.664062 184.574219 136.59375 183.859375 C 136.527344 183.160156 136.621094 182.445312 136.875 181.789062 L 136.878906 181.777344 C 137.347656 180.585938 139.113281 179.449219 140.367188 180.132812 " fill-opacity="1" fill-rule="nonzero"/><path fill="#431c16" d="M 122.785156 187.734375 C 123.941406 188.636719 124.804688 189.886719 125.222656 191.222656 C 125.636719 192.558594 125.617188 193.992188 125.011719 195.265625 C 124.132812 197.117188 120.359375 199.085938 117.109375 198.058594 C 120.949219 197.894531 123.023438 196.53125 123.832031 194.828125 C 124.34375 193.75 124.363281 192.53125 124.003906 191.390625 C 123.652344 190.25 122.925781 189.195312 121.960938 188.445312 C 120.40625 187.234375 118.175781 186.824219 115.808594 188.171875 C 117.917969 186.089844 120.75 186.15625 122.785156 187.734375 " fill-opacity="1" fill-rule="nonzero"/><path fill="#431c16" d="M 180.285156 192.535156 C 180.742188 193.046875 181.0625 193.640625 181.226562 194.246094 C 181.390625 194.855469 181.402344 195.480469 181.242188 196.054688 C 181 196.898438 180.394531 197.636719 179.363281 198.066406 L 178.71875 197.144531 C 179.425781 196.851562 179.847656 196.335938 180.015625 195.746094 C 180.136719 195.316406 180.128906 194.84375 180.003906 194.382812 C 179.878906 193.921875 179.636719 193.472656 179.289062 193.089844 C 178.671875 192.394531 177.703125 191.910156 176.476562 191.957031 C 177.578125 191.359375 179.597656 191.765625 180.285156 192.535156 " fill-opacity="1" fill-rule="nonzero"/><path fill="#431c16" d="M 185.050781 182.875 C 185.136719 182.125 185.023438 181.453125 184.71875 180.863281 C 184.417969 180.28125 183.914062 179.761719 183.21875 179.304688 C 185.269531 179.039062 187 182.230469 185.050781 182.875 " fill-opacity="1" fill-rule="nonzero"/><path fill="#431c16" d="M 144.949219 150.207031 C 144.515625 149.996094 143.136719 149.554688 142.636719 149.507812 C 142.125 149.464844 141.570312 149.503906 140.976562 149.632812 C 141.0625 148.011719 145.078125 148.414062 144.949219 150.207031 " fill-opacity="1" fill-rule="nonzero"/><path fill="#431c16" d="M 193.765625 144.554688 C 193.839844 143.855469 193.773438 143.242188 193.558594 142.710938 C 193.351562 142.199219 192.210938 140.414062 191.734375 140.046875 C 193.507812 140.433594 195.851562 144.0625 193.765625 144.554688 " fill-opacity="1" fill-rule="nonzero"/><path fill="#431c16" d="M 196.785156 111.917969 C 195.003906 111.109375 193.625 111.378906 192.777344 112.085938 C 192.242188 112.535156 191.898438 113.152344 191.785156 113.789062 C 191.671875 114.410156 191.773438 115.039062 192.117188 115.53125 C 192.597656 116.210938 193.601562 116.644531 195.246094 116.414062 C 193.164062 117.355469 191.800781 117.066406 191.039062 115.976562 C 190.539062 115.265625 190.390625 114.394531 190.542969 113.554688 C 190.691406 112.730469 191.140625 111.929688 191.839844 111.34375 C 193.042969 110.339844 195.289062 109.933594 196.785156 111.917969 " fill-opacity="1" fill-rule="nonzero"/><path fill="#431c16" d="M 157.019531 116.4375 C 157.839844 113.863281 157.167969 112.039062 155.882812 110.96875 C 155.070312 110.289062 154 109.902344 152.914062 109.816406 C 151.820312 109.730469 150.710938 109.945312 149.828125 110.464844 C 148.558594 111.21875 147.75 112.617188 148.109375 114.675781 C 146.675781 112.996094 147.453125 110.554688 149.035156 109.625 C 150.148438 108.964844 151.550781 108.691406 152.929688 108.800781 C 154.316406 108.914062 155.691406 109.410156 156.746094 110.289062 C 158.269531 111.5625 158.769531 114.996094 157.019531 116.4375 " fill-opacity="1" fill-rule="nonzero"/><path fill="#431c16" d="M 121.945312 103.742188 C 122.664062 103.800781 123.335938 104.070312 123.929688 104.484375 C 124.484375 104.871094 124.96875 105.382812 125.359375 105.972656 C 126.417969 107.582031 126.765625 109.792969 125.800781 111.394531 C 124.21875 114.023438 119.625 113.386719 119.042969 111.714844 C 120.300781 112.222656 121.492188 112.363281 122.46875 112.207031 C 123.457031 112.046875 124.242188 111.582031 124.660156 110.886719 C 125.453125 109.574219 125.152344 107.738281 124.265625 106.390625 C 123.957031 105.925781 123.578125 105.523438 123.160156 105.234375 C 122.777344 104.96875 122.359375 104.792969 121.917969 104.757812 C 120.882812 104.667969 119.671875 105.316406 118.480469 107.179688 C 118.234375 105.238281 120.453125 103.617188 121.945312 103.742188 " fill-opacity="1" fill-rule="nonzero"/><path fill="#431c16" d="M 108.152344 78.738281 C 108.226562 79.839844 108.53125 80.679688 109.058594 81.25 C 109.550781 81.789062 110.277344 82.105469 111.226562 82.203125 C 109.246094 83.640625 105.941406 81.011719 108.152344 78.738281 " fill-opacity="1" fill-rule="nonzero"/><path fill="#431c16" d="M 71.140625 86.230469 C 70.40625 85.351562 69.488281 84.789062 68.558594 84.535156 C 67.605469 84.273438 66.636719 84.34375 65.863281 84.730469 C 64.679688 85.328125 64.144531 86.558594 64.191406 87.851562 C 64.210938 88.464844 64.367188 89.09375 64.640625 89.671875 C 64.914062 90.242188 65.308594 90.761719 65.804688 91.179688 C 67.003906 92.175781 68.894531 92.578125 71.398438 91.582031 C 69.425781 93.84375 66.351562 93.03125 64.949219 91.859375 C 64.308594 91.328125 63.816406 90.671875 63.476562 89.96875 C 63.144531 89.273438 62.960938 88.523438 62.9375 87.789062 C 62.878906 86.179688 63.582031 84.632812 65.136719 83.847656 C 66.214844 83.308594 67.554688 83.207031 68.867188 83.566406 C 70 83.878906 71.046875 85.046875 71.140625 86.230469 " fill-opacity="1" fill-rule="nonzero"/><path fill="#431c16" d="M 57.195312 94.941406 C 58.929688 97.207031 63.6875 98.058594 66.257812 97.015625 C 64.695312 98.164062 63.023438 98.707031 61.054688 98.257812 C 59.769531 97.964844 58.667969 97.21875 57.75 96.019531 L 57.195312 94.941406 " fill-opacity="1" fill-rule="nonzero"/><path fill="#431c16" d="M 83.121094 184.765625 C 82.308594 184.21875 81.3125 184.003906 80.324219 184.078125 C 79.582031 184.132812 78.835938 184.351562 78.175781 184.707031 C 77.511719 185.070312 76.925781 185.570312 76.503906 186.191406 C 76.015625 186.917969 75.742188 187.8125 75.820312 188.832031 C 74.558594 187.191406 75.765625 184.734375 77.421875 183.84375 C 79.308594 182.824219 82.351562 183.1875 83.121094 184.765625 " fill-opacity="1" fill-rule="nonzero"/><path fill="#431c16" d="M 83.753906 192.59375 C 84.511719 191.949219 84.9375 191.160156 85.03125 190.230469 C 85.128906 189.269531 84.875 188.148438 84.273438 186.871094 C 86.621094 187.746094 86.945312 192.734375 83.753906 192.59375 " fill-opacity="1" fill-rule="nonzero"/><path fill="#431c16" d="M 54.222656 176.03125 C 53.496094 174.800781 52.621094 173.835938 51.59375 173.144531 C 50.582031 172.460938 49.410156 172.03125 48.082031 171.851562 C 50.605469 170.480469 55.394531 173.832031 54.222656 176.03125 " fill-opacity="1" fill-rule="nonzero"/><path fill="#431c16" d="M 71.074219 173.109375 C 72.433594 174.011719 75.203125 174.699219 76.617188 174.765625 C 78.039062 174.832031 79.515625 174.476562 81.039062 173.695312 C 80.320312 175.367188 77.894531 175.84375 76.648438 175.785156 C 74.511719 175.679688 72.285156 174.929688 71.074219 173.109375 " fill-opacity="1" fill-rule="nonzero"/><path fill="#431c16" d="M 63.335938 161.035156 C 63.445312 162.214844 63.761719 163.152344 64.289062 163.84375 C 64.777344 164.492188 65.460938 164.933594 66.339844 165.164062 C 64.722656 166.816406 61.4375 163.457031 63.335938 161.035156 " fill-opacity="1" fill-rule="nonzero"/><path fill="#431c16" d="M 109.289062 191.074219 C 108.410156 188.519531 106.859375 187.132812 105.113281 186.609375 C 104.011719 186.277344 102.8125 186.28125 101.648438 186.535156 C 100.441406 186.800781 99.269531 187.335938 98.257812 188.054688 C 96.363281 189.402344 95.042969 191.394531 95.128906 193.507812 L 93.871094 193.449219 C 93.777344 191.039062 95.257812 188.777344 97.386719 187.261719 C 98.527344 186.453125 99.851562 185.847656 101.222656 185.546875 C 102.628906 185.238281 104.089844 185.246094 105.457031 185.652344 C 107.601562 186.296875 109.476562 187.921875 110.496094 190.882812 L 109.289062 191.074219 " fill-opacity="1" fill-rule="nonzero"/><path fill="#431c16" d="M 90.257812 122.855469 C 91.027344 124.070312 91.941406 124.875 92.996094 125.265625 C 94.042969 125.648438 95.269531 125.636719 96.679688 125.230469 C 96.1875 126.273438 93.578125 126.5625 92.5625 126.1875 C 91.507812 125.800781 89.617188 124.144531 90.257812 122.855469 " fill-opacity="1" fill-rule="nonzero"/><path fill="#431c16" d="M 105.671875 140.273438 C 105.761719 141.226562 106.007812 142.007812 106.40625 142.609375 C 106.777344 143.179688 107.296875 143.601562 107.953125 143.871094 C 106.167969 144.9375 103.980469 142.390625 105.671875 140.273438 " fill-opacity="1" fill-rule="nonzero"/><path fill="#431c16" d="M 105.988281 160.476562 C 105.867188 161.972656 106.421875 162.929688 107.652344 163.347656 C 106.003906 164.511719 103.671875 161.441406 105.988281 160.476562 " fill-opacity="1" fill-rule="nonzero"/><path fill="#431c16" d="M 43.75 102.945312 C 44.449219 104.003906 48.425781 105.949219 49.882812 105.734375 C 48.546875 106.117188 47.519531 106.320312 46.15625 105.714844 C 44.769531 105.101562 44.273438 104.246094 43.75 102.945312 " fill-opacity="1" fill-rule="nonzero"/><path fill="#431c16" d="M 167.460938 97.632812 C 167.726562 98.90625 168.328125 99.921875 169.253906 100.679688 C 170.191406 101.441406 171.484375 101.960938 173.128906 102.242188 C 170.371094 103.410156 165.5625 100.417969 167.460938 97.632812 " fill-opacity="1" fill-rule="nonzero"/><path fill="#431c16" d="M 165.128906 83.371094 C 167.820312 83.558594 170.367188 83.898438 172.765625 84.390625 C 175.171875 84.886719 177.4375 85.53125 179.550781 86.328125 L 181.441406 87.605469 C 179.402344 86.835938 174.886719 85.855469 172.5625 85.378906 C 170.226562 84.902344 164.226562 83.699219 161.605469 83.515625 L 165.128906 83.371094 " fill-opacity="1" fill-rule="nonzero"/><path fill="#431c16" d="M 119.832031 145.285156 C 119.136719 146.867188 118.894531 148.3125 119.101562 149.613281 C 117.328125 148.964844 117.785156 144.570312 119.832031 145.285156 " fill-opacity="1" fill-rule="nonzero"/><path fill="#431c16" d="M 156.152344 126.933594 C 156.066406 126.652344 155.875 126.414062 155.574219 126.21875 C 155.230469 126 154.746094 125.824219 154.128906 125.703125 C 154.847656 124.726562 157.046875 125.851562 156.152344 126.933594 " fill-opacity="1" fill-rule="nonzero"/><path fill="#431c16" d="M 65.863281 120.273438 C 66.046875 122.027344 66.933594 122.953125 68.527344 123.050781 C 67.460938 124.777344 64.234375 122.277344 65.863281 120.273438 " fill-opacity="1" fill-rule="nonzero"/><path fill="#431c16" d="M 48.109375 127.554688 C 48.402344 128.773438 48.980469 129.300781 49.835938 129.140625 C 49.101562 130.347656 46.746094 129.398438 48.109375 127.554688 " fill-opacity="1" fill-rule="nonzero"/></svg>