<svg xmlns="http://www.w3.org/2000/svg" xmlns:xlink="http://www.w3.org/1999/xlink" width="300" zoomAndPan="magnify" viewBox="0 0 224.87999 225" height="300" preserveAspectRatio="xMidYMid meet" version="1.0"><defs><clipPath id="id1"><path d="M 148 0.0585938 L 170 0.0585938 L 170 29 L 148 29 Z M 148 0.0585938 " clip-rule="nonzero"/></clipPath><clipPath id="id2"><path d="M 140.140625 31 L 157 31 L 157 54 L 140.140625 54 Z M 140.140625 31 " clip-rule="nonzero"/></clipPath><clipPath id="id3"><path d="M 22 190 L 204 190 L 204 224.9375 L 22 224.9375 Z M 22 190 " clip-rule="nonzero"/></clipPath><clipPath id="id4"><path d="M 67 201 L 161 201 L 161 224.9375 L 67 224.9375 Z M 67 201 " clip-rule="nonzero"/></clipPath></defs><g clip-path="url(#id1)"><path fill="#bb2400" d="M 159.597656 0.3125 C 159.703125 0.46875 159.78125 0.640625 159.832031 0.824219 C 159.945312 1.25 160.023438 1.683594 160.066406 2.125 C 160.296875 6.972656 164.496094 12.695312 168.59375 15.230469 C 168.847656 15.371094 169.070312 15.550781 169.253906 15.777344 C 169.34375 15.890625 169.402344 16.019531 169.429688 16.160156 C 169.457031 16.304688 169.449219 16.445312 169.40625 16.582031 C 169.363281 16.722656 169.292969 16.84375 169.191406 16.945312 C 169.085938 17.050781 168.964844 17.125 168.828125 17.171875 C 168.515625 17.25 168.199219 17.289062 167.875 17.289062 C 164.382812 17.417969 162.21875 20.1875 161.230469 23.472656 C 160.375 26.304688 160.835938 25.46875 159.773438 27.566406 C 159.628906 27.90625 159.367188 28.089844 158.988281 28.113281 C 158.609375 28.136719 158.328125 27.988281 158.136719 27.667969 C 156.988281 26.054688 157.203125 21.789062 153.726562 19.027344 C 151.921875 17.597656 150.203125 17.863281 149.503906 17.734375 C 149.296875 17.710938 149.113281 17.628906 148.960938 17.492188 C 148.804688 17.355469 148.703125 17.1875 148.660156 16.988281 C 148.613281 16.785156 148.632812 16.59375 148.714844 16.402344 C 148.796875 16.214844 148.929688 16.066406 149.105469 15.960938 C 149.425781 15.71875 154.015625 13.335938 156.933594 6.964844 C 158.542969 3.5 157.675781 1.441406 158.777344 0.261719 C 158.886719 0.144531 159.445312 0.0507812 159.597656 0.3125 Z M 159.597656 0.3125 " fill-opacity="1" fill-rule="nonzero"/></g><path fill="#bb2400" d="M 174.5625 46.824219 C 174.011719 46.097656 173.980469 45.472656 173.445312 43.617188 C 172.414062 40.011719 170.234375 36.992188 166.480469 36.949219 C 164.960938 36.949219 164.800781 35.914062 165.375 35.328125 C 166.058594 34.632812 168.46875 33.976562 171.984375 28.707031 C 172.800781 27.484375 173.4375 26.183594 173.90625 24.796875 C 174.757812 22.277344 174.136719 22.066406 174.820312 20.179688 C 174.957031 19.796875 175.082031 19.316406 175.585938 19.316406 C 176.085938 19.316406 176.195312 19.8125 176.273438 20.203125 C 176.792969 22.613281 176.296875 22.949219 177.777344 26.132812 C 179.054688 28.871094 181.910156 32.589844 185.078125 34.5 C 185.300781 34.625 185.496094 34.785156 185.660156 34.976562 C 186.148438 35.597656 185.832031 36.535156 184.308594 36.53125 C 180.832031 36.53125 178.582031 39.46875 177.617188 42.753906 C 176.886719 45.269531 177.054688 45.269531 176.148438 46.835938 C 176.046875 46.945312 175.925781 47.03125 175.785156 47.089844 C 175.648438 47.152344 175.503906 47.179688 175.351562 47.179688 C 175.199219 47.175781 175.054688 47.144531 174.917969 47.085938 C 174.78125 47.023438 174.660156 46.9375 174.5625 46.824219 Z M 174.5625 46.824219 " fill-opacity="1" fill-rule="nonzero"/><path fill="#bb2400" d="M 164.957031 45.695312 C 165.195312 45.671875 165.371094 45.765625 165.480469 45.980469 C 166.308594 47.402344 165.15625 48.917969 167.890625 53.382812 C 169.425781 55.921875 171.449219 57.996094 173.960938 59.617188 C 174.234375 59.839844 174.332031 60.121094 174.246094 60.464844 C 174.160156 60.804688 173.941406 61.011719 173.59375 61.085938 C 172.8125 61.320312 170.183594 60.710938 167.972656 64.273438 C 166.742188 66.261719 166.761719 68.050781 165.730469 70.191406 C 165.339844 71.03125 164.421875 71.058594 163.957031 70.214844 C 163.070312 68.613281 163.160156 65.394531 160.457031 62.972656 C 158.703125 61.398438 156.921875 61.625 156.398438 61.539062 C 156.210938 61.53125 156.042969 61.472656 155.894531 61.359375 C 155.746094 61.242188 155.648438 61.097656 155.597656 60.917969 C 155.546875 60.738281 155.558594 60.5625 155.628906 60.390625 C 155.695312 60.21875 155.8125 60.082031 155.972656 59.984375 C 156.542969 59.496094 158.933594 58.609375 161.992188 53.84375 C 163.1875 52.066406 163.863281 50.113281 164.015625 47.988281 C 164.050781 47.425781 164.257812 46.261719 164.6875 45.851562 C 164.769531 45.789062 164.859375 45.734375 164.957031 45.695312 Z M 164.957031 45.695312 " fill-opacity="1" fill-rule="nonzero"/><g clip-path="url(#id2)"><path fill="#bb2400" d="M 148.25 31.800781 C 148.488281 31.773438 148.609375 31.824219 148.675781 31.933594 C 148.773438 32.0625 148.847656 32.199219 148.894531 32.355469 C 148.992188 32.65625 149.050781 32.964844 149.078125 33.28125 C 149.167969 36.164062 151.046875 39.070312 153.003906 41.210938 C 154.394531 42.730469 155.253906 43.035156 155.960938 43.613281 C 156.222656 43.808594 156.3125 44.0625 156.226562 44.375 C 156.140625 44.691406 155.933594 44.867188 155.605469 44.902344 C 154.472656 45.109375 152.898438 44.871094 151.179688 47.167969 C 149.839844 48.949219 150.015625 50.605469 148.953125 52.679688 C 148.589844 53.382812 147.796875 53.425781 147.414062 52.636719 C 147.097656 51.976562 146.6875 50.34375 146.324219 49.3125 C 144.839844 45.078125 141.328125 45.359375 140.898438 45.253906 C 140.617188 45.207031 140.433594 45.046875 140.347656 44.777344 C 140.261719 44.507812 140.320312 44.273438 140.523438 44.074219 C 141.148438 43.402344 144.265625 42.152344 146.75 36.792969 C 147.816406 34.488281 147.148438 33.523438 147.90625 32.136719 C 147.976562 31.980469 148.089844 31.867188 148.25 31.800781 Z M 148.25 31.800781 " fill-opacity="1" fill-rule="nonzero"/></g><path fill="#eeaa94" d="M 133.273438 135.527344 C 137.851562 133.957031 152.101562 132.265625 156.554688 133.28125 C 156.554688 133.28125 157.40625 138.488281 158.550781 142.894531 C 158.632812 147.976562 154.011719 158.945312 139.039062 155.472656 C 135.773438 153.015625 133.484375 138.914062 133.273438 135.527344 Z M 133.273438 135.527344 " fill-opacity="1" fill-rule="nonzero"/><path fill="#bb2400" d="M 98.707031 86.828125 C 78.644531 87.589844 74.871094 78.652344 74.871094 78.652344 C 82.25 74.417969 78.730469 69.082031 74.277344 48.035156 C 69.3125 24.746094 86.066406 12.210938 98.707031 15.132812 C 104.941406 10.21875 122.457031 13.226562 127.332031 40.667969 C 130.515625 58.453125 112.40625 71.285156 119.613281 82.167969 C 126.824219 93.050781 98.707031 86.828125 98.707031 86.828125 Z M 98.707031 86.828125 " fill-opacity="1" fill-rule="nonzero"/><path fill="#d76249" d="M 135.222656 139.84375 C 135.222656 139.84375 131.277344 157.546875 131.277344 157.546875 C 130.8125 157.460938 63.417969 162.289062 60.320312 158.351562 C 58.199219 155.640625 59.175781 148.101562 59.980469 143.53125 C 60.363281 141.410156 49.464844 141.15625 49.464844 141.15625 L 37.039062 124.050781 L 35.976562 123.328125 C 35.976562 123.328125 51.628906 92.289062 59.261719 86.785156 C 63.671875 83.566406 83.480469 79.246094 83.480469 79.246094 L 116.390625 78.652344 C 116.390625 78.652344 136.496094 87.292969 141.246094 92.542969 C 146.378906 98.175781 158.335938 132.519531 158.335938 132.519531 C 158.335938 132.519531 142.984375 139.84375 135.222656 139.84375 Z M 135.222656 139.84375 " fill-opacity="1" fill-rule="nonzero"/><path fill="#ffcc00" d="M 51.667969 191.933594 C 51.667969 191.933594 52.179688 171.773438 57.183594 165.71875 C 54.425781 162.375 56.335938 152.804688 59.429688 146.789062 C 59.429688 146.789062 65.367188 147.550781 70.332031 141.667969 C 74.613281 136.585938 74.445312 98.851562 74.445312 98.851562 C 74.445312 98.851562 75.546875 84.199219 77.796875 80.515625 L 83.394531 79.203125 C 83.394531 79.203125 79.027344 90.003906 80.339844 99.277344 C 80.339844 99.320312 80.339844 99.320312 80.339844 99.359375 C 89.035156 100.039062 105.320312 101.140625 115.96875 100.378906 C 116.007812 98.851562 116.179688 81.449219 114.1875 77.679688 L 120.421875 80.433594 C 120.421875 80.433594 121.394531 91.144531 122.160156 99.53125 C 122.160156 99.699219 122.160156 99.871094 122.160156 100.039062 C 122.328125 104.0625 123.984375 130.996094 138.105469 138.488281 C 138.105469 138.488281 139.167969 153.3125 138.996094 155.726562 C 138.828125 158.140625 137.597656 159.875 137.597656 159.875 C 140.015625 165.042969 143.28125 183.800781 143.28125 191.933594 Z M 51.667969 191.933594 " fill-opacity="1" fill-rule="nonzero"/><g clip-path="url(#id3)"><path fill="#eeaa94" d="M 194.726562 224.921875 L 30.589844 224.921875 C 24.398438 224.921875 20.285156 218.484375 22.914062 212.894531 L 30.972656 195.742188 C 32.371094 192.777344 35.339844 190.875 38.648438 190.875 L 187.433594 190.875 C 190.824219 190.875 193.921875 192.90625 195.238281 196.039062 L 202.53125 213.191406 C 204.90625 218.738281 200.792969 224.921875 194.726562 224.921875 Z M 194.726562 224.921875 " fill-opacity="1" fill-rule="nonzero"/></g><g clip-path="url(#id4)"><path fill="#d76249" d="M 160.414062 208.617188 L 132.976562 208.617188 L 148.371094 216.410156 L 148.371094 224.921875 L 130.769531 215.519531 C 129.113281 217.59375 122.796875 219.203125 115.117188 219.375 L 115.117188 224.921875 L 112.363281 224.921875 L 112.363281 219.332031 C 103.964844 219.160156 97.222656 217.253906 96.371094 214.882812 L 77.667969 224.921875 L 77.667969 216.410156 L 93.0625 208.617188 L 67.109375 208.617188 L 67.109375 201.332031 L 94.84375 201.332031 L 94.84375 207.683594 L 96.289062 206.964844 L 96.289062 205.738281 L 112.363281 205.738281 L 112.363281 203.917969 L 115.117188 203.917969 L 115.117188 205.738281 L 131.191406 205.738281 L 131.191406 207.726562 L 132.636719 208.449219 L 132.636719 201.332031 L 160.375 201.332031 L 160.375 208.617188 Z M 160.414062 208.617188 " fill-opacity="1" fill-rule="nonzero"/></g><path fill="#f5d6c3" d="M 171.484375 166.949219 C 162.875 168.851562 151.507812 173.511719 146.378906 181.304688 C 146.378906 181.304688 152.484375 183.082031 152.992188 188.246094 C 153.460938 193.414062 143.621094 202.644531 137.640625 204.425781 C 137.640625 204.425781 118.214844 213.910156 89.882812 204.425781 C 89.882812 204.425781 77.625 196.503906 77.074219 188.503906 C 76.523438 180.5 101.503906 176.6875 117.832031 176.558594 C 134.164062 176.433594 135.773438 177.660156 139.335938 178.550781 C 142.09375 174.0625 146.886719 169.65625 150.152344 167.625 C 156.175781 163.898438 165.125 159.917969 170.296875 159.917969 C 175.34375 159.917969 178.992188 165.296875 171.484375 166.949219 Z M 171.484375 166.949219 " fill-opacity="1" fill-rule="nonzero"/><path fill="#ffcc00" d="M 86.828125 190.832031 C 90.648438 191.933594 93.914062 190.195312 93.914062 190.195312 C 93.914062 190.195312 95.398438 188.882812 98.917969 187.953125 C 102.4375 187.019531 105.914062 188.757812 108.714844 188.585938 C 111.472656 188.375 111.554688 185.917969 115.96875 185.410156 C 120.421875 184.902344 133.738281 187.992188 135.179688 190.875 C 136.070312 192.652344 136.539062 195.40625 136.792969 197.226562 C 132.890625 198.074219 128.011719 198.878906 121.863281 199.554688 C 103.921875 201.460938 90.945312 197.777344 84.371094 195.152344 C 83.777344 194.769531 83.054688 189.730469 86.828125 190.832031 Z M 86.828125 190.832031 " fill-opacity="1" fill-rule="nonzero"/><path fill="#eeaa94" d="M 114.441406 41.683594 C 120.886719 41.683594 119.316406 50.070312 113.972656 50.070312 C 113.929688 50.070312 113.847656 50.070312 113.804688 50.070312 C 112.742188 55.152344 110.15625 61.757812 106.253906 64.042969 C 106.253906 67.644531 105.449219 71.496094 107.144531 73.867188 C 108.207031 75.394531 113.167969 77.171875 116.390625 78.609375 C 116.644531 88.945312 83.308594 87.25 83.480469 79.203125 C 86.066406 78.484375 88.484375 77.890625 90.308594 75.5625 C 92.132812 73.277344 92.726562 67.855469 92.726562 64.636719 C 88.230469 62.054688 84.75 56.589844 83.394531 49.816406 C 76.523438 48.460938 78.09375 42.191406 82.800781 41.683594 C 88.527344 40.667969 89.332031 34.570312 90.648438 28.386719 C 91.75 23.222656 107.101562 22.246094 108.585938 28.980469 C 110.070312 35.714844 109.351562 41.007812 114.441406 41.683594 Z M 36.996094 124.050781 C 36.996094 124.050781 27.199219 141.667969 30.421875 152.421875 C 33.644531 163.179688 51.203125 159.367188 58.582031 142.980469 C 58.582031 142.980469 63.671875 145.605469 66.851562 142.851562 C 66.851562 142.851562 69.738281 143.445312 71.644531 141.285156 C 71.644531 141.285156 75.71875 142.429688 76.015625 137.644531 C 76.015625 137.644531 80.085938 141.117188 81.953125 138.957031 C 83.859375 136.796875 81.0625 133.28125 81.0625 133.28125 C 81.0625 133.28125 82.671875 133.410156 83.222656 130.824219 C 83.816406 128.199219 84.117188 125.152344 82.503906 124.09375 C 80.890625 123.035156 67.234375 118.25 64.054688 118.25 C 60.875 118.25 54.042969 125.660156 54.042969 125.660156 L 46.917969 130.78125 Z M 36.996094 124.050781 " fill-opacity="1" fill-rule="nonzero"/><path fill="#bb2400" d="M 61.382812 102.539062 L 65.835938 100.632812 C 66.769531 100.25 67.828125 100.675781 68.210938 101.648438 L 81.019531 134.46875 L 67.617188 119.265625 C 67.617188 119.265625 62.527344 109.101562 60.492188 104.992188 C 60.023438 104.0625 60.449219 102.960938 61.382812 102.539062 Z M 110.242188 187.953125 C 105.914062 175.753906 98.832031 168.007812 94.675781 163.515625 C 90.519531 159.027344 82.503906 137.941406 82.503906 137.941406 C 79.492188 141.921875 72.960938 134.507812 72.960938 134.507812 C 72.960938 134.507812 81.699219 159.199219 82.417969 163.601562 C 83.140625 168.007812 80.933594 182.53125 84.074219 191.972656 C 84.539062 193.328125 86.703125 193.328125 88.101562 193.289062 C 95.058594 193.074219 102.011719 192.101562 108.882812 190.914062 C 109.5625 190.789062 110.367188 190.621094 110.75 190.070312 C 111.175781 189.433594 110.921875 187.867188 110.242188 187.953125 Z M 134.203125 195.445312 L 139.84375 190.152344 L 139.335938 188.332031 L 133.273438 194.132812 Z M 134.203125 195.445312 " fill-opacity="1" fill-rule="nonzero"/><path fill="#d76249" d="M 138.320312 197.269531 C 138.320312 197.269531 143.195312 195.066406 144.976562 194.386719 C 150.277344 192.398438 152.101562 191.042969 152.101562 191.042969 C 152.019531 191.171875 150.152344 194.429688 138.320312 197.269531 Z M 83.902344 194.429688 C 81.230469 193.328125 79.324219 193.160156 79.324219 193.160156 C 79.363281 193.203125 80.808594 194.050781 83.605469 195.191406 Z M 61.636719 169.023438 L 64.394531 169.488281 C 64.351562 169.488281 57.183594 165.761719 57.183594 165.761719 C 57.183594 165.761719 61.507812 168.9375 61.636719 169.023438 Z M 89.628906 141.285156 C 89.628906 141.285156 97.007812 140.183594 100.65625 140.015625 C 104.558594 139.804688 112.488281 140.3125 112.488281 140.3125 C 105.023438 138.40625 96.925781 138.746094 89.628906 141.285156 Z M 93.191406 169.742188 C 91.917969 169.402344 90.6875 169.574219 89.542969 170.25 C 83.945312 173.636719 85.261719 183.886719 85.304688 184.308594 C 85.304688 184.308594 84.835938 174.105469 89.96875 170.96875 C 90.902344 170.417969 91.875 170.25 92.9375 170.546875 C 96.964844 171.648438 101.417969 178.085938 101.417969 178.085938 C 101.292969 177.832031 97.601562 170.96875 93.191406 169.742188 Z M 117.832031 191.085938 C 118.46875 192.523438 120.125 193.035156 121.058594 194.21875 C 121.3125 194.515625 121.523438 194.898438 121.820312 195.152344 C 122.753906 195.914062 124.238281 195.234375 124.875 194.175781 C 125.511719 193.160156 125.636719 191.890625 126.0625 190.789062 C 126.273438 190.238281 126.570312 189.6875 126.699219 189.136719 C 126.824219 188.542969 126.824219 187.910156 126.441406 187.445312 C 126.1875 187.105469 125.808594 186.933594 125.46875 186.722656 C 123.898438 185.917969 122.285156 185.113281 120.71875 184.308594 C 120.125 184.011719 119.488281 183.71875 118.851562 183.84375 C 118.257812 183.972656 117.789062 184.4375 117.535156 185.03125 C 117.28125 185.582031 117.28125 186.214844 117.28125 186.851562 C 117.324219 187.992188 117.324219 189.941406 117.832031 191.085938 Z M 109.476562 196.800781 C 110.707031 196.421875 111.472656 194.21875 110.113281 193.457031 C 109.988281 193.371094 109.859375 193.371094 109.691406 193.371094 C 108.25 193.289062 106.804688 193.203125 105.320312 193.117188 C 105.195312 193.117188 105.109375 193.117188 104.980469 193.117188 C 104.769531 193.160156 104.601562 193.328125 104.515625 193.542969 C 104.175781 194.175781 104.429688 194.980469 104.980469 195.488281 C 105.832031 196.335938 108.289062 197.183594 109.476562 196.800781 Z M 97.519531 192.230469 C 97.644531 192.777344 97.6875 193.5 97.941406 194.007812 C 98.367188 194.898438 99.976562 193.921875 100.65625 193.710938 C 100.785156 193.667969 100.910156 193.625 100.953125 193.5 C 101.082031 193.328125 100.953125 193.074219 100.785156 192.90625 C 100.359375 192.523438 99.765625 192.484375 99.300781 192.144531 C 98.832031 191.761719 98.664062 191.171875 98.410156 190.621094 C 98.367188 190.492188 98.28125 190.367188 98.152344 190.28125 C 97.816406 190.027344 97.304688 190.28125 96.882812 190.324219 C 97.136719 190.957031 97.347656 191.59375 97.519531 192.230469 Z M 97.519531 192.230469 " fill-opacity="1" fill-rule="nonzero"/><path fill="#f5d6c3" d="M 112.40625 219.332031 L 111.980469 208.53125 L 112.828125 208.53125 Z M 115.628906 208.617188 L 114.78125 208.617188 L 115.203125 219.117188 Z M 100.953125 212.808594 L 100.953125 207.21875 L 100.105469 212.300781 L 96.414062 214.925781 Z M 127.757812 213.402344 L 126.910156 207.21875 L 126.910156 213.910156 L 130.261719 215.6875 Z M 138.023438 122.523438 C 138.277344 120.449219 137.386719 116.257812 137.386719 116.257812 C 137.640625 121.425781 135.773438 131.882812 135.773438 131.882812 C 136.917969 128.917969 137.683594 125.742188 138.023438 122.523438 Z M 52.347656 131.757812 C 52.347656 131.839844 51.414062 139 56.417969 142.34375 C 57.011719 142.726562 58.582031 142.980469 58.582031 142.980469 C 58.582031 142.980469 57.140625 141.878906 56.503906 141.410156 C 52.179688 138.152344 52.347656 131.757812 52.347656 131.757812 Z M 66.851562 142.808594 C 66.851562 142.808594 64.648438 143.148438 62.992188 142.386719 C 60.703125 141.328125 56.589844 136.371094 56.417969 136.160156 C 56.417969 136.160156 61.210938 140.609375 63.375 141.582031 C 65.453125 142.597656 66.851562 142.808594 66.851562 142.808594 Z M 67.109375 138.363281 C 70.117188 140.4375 71.644531 141.242188 71.644531 141.242188 C 71.644531 141.242188 69.78125 141.242188 66.597656 139.082031 C 63.417969 136.921875 59.089844 131.546875 58.878906 131.292969 C 58.921875 131.292969 64.054688 136.289062 67.109375 138.363281 Z M 72.367188 132.136719 C 72.367188 132.136719 69.90625 131.25 68.039062 129.640625 C 66.429688 128.285156 64.734375 125.53125 64.734375 125.53125 C 66.089844 127.097656 72.28125 132.09375 72.367188 132.136719 Z M 47.171875 130.527344 C 47.171875 130.527344 47.597656 131.078125 44.289062 132.644531 C 42.167969 133.621094 38.183594 134.085938 38.183594 134.085938 C 39.667969 133.664062 41.40625 132.984375 42.890625 132.351562 C 44.925781 131.417969 47.171875 130.527344 47.171875 130.527344 Z M 127.800781 193.878906 C 128.097656 193.835938 128.351562 194.050781 128.4375 194.347656 C 128.519531 194.640625 128.4375 194.9375 128.308594 195.191406 C 128.222656 195.40625 128.097656 195.574219 127.886719 195.699219 C 127.628906 195.785156 127.375 195.742188 127.164062 195.574219 C 126.824219 195.320312 126.65625 194.898438 126.738281 194.515625 C 126.824219 194.132812 127.25 193.835938 127.628906 193.921875 M 113 190.492188 C 114.3125 190.746094 114.355469 192.90625 113 192.566406 C 111.894531 192.355469 111.472656 190.195312 113 190.492188 Z M 102.351562 196.800781 C 102.351562 197.054688 102.269531 197.351562 102.054688 197.523438 C 101.929688 197.605469 101.757812 197.648438 101.589844 197.605469 C 101.417969 197.5625 101.25 197.523438 101.121094 197.4375 C 98.746094 195.871094 102.308594 194.898438 102.351562 196.800781 Z M 90.011719 192.777344 C 90.648438 192.101562 91.324219 192.992188 91.496094 193.582031 C 91.578125 193.796875 91.664062 194.050781 91.578125 194.304688 C 91.496094 194.683594 91.070312 194.898438 90.6875 194.8125 C 89.882812 194.683594 89.417969 193.414062 90.011719 192.777344 Z M 117.578125 195.660156 C 118.722656 196.125 118.597656 197.902344 117.324219 197.988281 C 117.113281 197.988281 116.898438 197.945312 116.730469 197.859375 C 115.96875 197.269531 116.476562 195.191406 117.578125 195.660156 Z M 117.578125 195.660156 " fill-opacity="1" fill-rule="nonzero"/></svg>