<svg xmlns="http://www.w3.org/2000/svg" xmlns:xlink="http://www.w3.org/1999/xlink" width="300" zoomAndPan="magnify" viewBox="0 0 224.87999 225" height="300" preserveAspectRatio="xMidYMid meet" version="1.0"><defs><clipPath id="id1"><path d="M 22 191 L 203 191 L 203 224.9375 L 22 224.9375 Z M 22 191 " clip-rule="nonzero"/></clipPath><clipPath id="id2"><path d="M 67 201 L 161 201 L 161 224.9375 L 67 224.9375 Z M 67 201 " clip-rule="nonzero"/></clipPath><clipPath id="id3"><path d="M 148 0.0585938 L 170 0.0585938 L 170 29 L 148 29 Z M 148 0.0585938 " clip-rule="nonzero"/></clipPath><clipPath id="id4"><path d="M 164 19 L 185.867188 19 L 185.867188 48 L 164 48 Z M 164 19 " clip-rule="nonzero"/></clipPath><clipPath id="id5"><path d="M 155 45 L 174 45 L 174 71.273438 L 155 71.273438 Z M 155 45 " clip-rule="nonzero"/></clipPath><clipPath id="id6"><path d="M 140.140625 31 L 157 31 L 157 54 L 140.140625 54 Z M 140.140625 31 " clip-rule="nonzero"/></clipPath></defs><path fill="#ffd5ba" d="M 133.136719 135.722656 C 137.710938 134.152344 151.945312 132.457031 156.394531 133.472656 C 156.394531 133.472656 157.242188 138.691406 158.382812 143.101562 C 158.46875 148.191406 153.851562 159.175781 138.898438 155.699219 C 135.636719 153.238281 133.347656 139.113281 133.136719 135.722656 Z M 133.136719 135.722656 " fill-opacity="1" fill-rule="nonzero"/><path fill="#bb2400" d="M 98.613281 86.945312 C 78.574219 87.707031 74.804688 78.757812 74.804688 78.757812 C 82.175781 74.515625 78.660156 69.171875 74.210938 48.09375 C 69.253906 24.765625 85.988281 12.210938 98.613281 15.136719 C 104.839844 10.21875 122.335938 13.230469 127.207031 40.714844 C 130.382812 58.527344 112.292969 71.378906 119.496094 82.277344 C 126.699219 93.179688 98.613281 86.945312 98.613281 86.945312 Z M 98.613281 86.945312 " fill-opacity="1" fill-rule="nonzero"/><path fill="#bb2400" d="M 135.085938 140.046875 C 135.085938 140.046875 131.144531 157.777344 131.144531 157.777344 C 130.679688 157.691406 63.367188 162.527344 60.273438 158.582031 C 58.15625 155.867188 59.128906 148.316406 59.933594 143.738281 C 60.316406 141.617188 49.429688 141.363281 49.429688 141.363281 L 37.015625 124.226562 L 35.957031 123.503906 C 35.957031 123.503906 51.589844 92.417969 59.214844 86.902344 C 63.621094 83.679688 83.402344 79.351562 83.402344 79.351562 L 116.277344 78.757812 C 116.277344 78.757812 136.355469 87.410156 141.101562 92.671875 C 146.226562 98.3125 158.171875 132.710938 158.171875 132.710938 C 158.171875 132.710938 142.835938 140.046875 135.085938 140.046875 Z M 135.085938 140.046875 " fill-opacity="1" fill-rule="nonzero"/><path fill="#ffcc00" d="M 51.632812 192.21875 C 51.632812 192.21875 52.140625 172.027344 57.140625 165.960938 C 54.386719 162.613281 56.292969 153.027344 59.382812 147.003906 C 59.382812 147.003906 65.316406 147.765625 70.269531 141.871094 C 74.550781 136.78125 74.378906 98.992188 74.378906 98.992188 C 74.378906 98.992188 75.480469 84.316406 77.726562 80.625 L 83.320312 79.308594 C 83.320312 79.308594 78.957031 90.125 80.269531 99.414062 C 80.269531 99.457031 80.269531 99.457031 80.269531 99.5 C 88.953125 100.179688 105.21875 101.28125 115.851562 100.515625 C 115.894531 98.992188 116.066406 81.558594 114.074219 77.785156 L 120.300781 80.539062 C 120.300781 80.539062 121.273438 91.269531 122.039062 99.667969 C 122.039062 99.839844 122.039062 100.007812 122.039062 100.179688 C 122.207031 104.207031 123.859375 131.183594 137.964844 138.691406 C 137.964844 138.691406 139.023438 153.535156 138.855469 155.953125 C 138.6875 158.371094 137.457031 160.109375 137.457031 160.109375 C 139.871094 165.285156 143.132812 184.074219 143.132812 192.21875 Z M 51.632812 192.21875 " fill-opacity="1" fill-rule="nonzero"/><g clip-path="url(#id1)"><path fill="#ffd5ba" d="M 194.519531 225.257812 L 30.578125 225.257812 C 24.394531 225.257812 20.285156 218.8125 22.910156 213.210938 L 30.960938 196.035156 C 32.355469 193.066406 35.324219 191.15625 38.625 191.15625 L 187.234375 191.15625 C 190.621094 191.15625 193.714844 193.191406 195.027344 196.332031 L 202.3125 213.507812 C 204.6875 219.066406 200.578125 225.257812 194.519531 225.257812 Z M 194.519531 225.257812 " fill-opacity="1" fill-rule="nonzero"/></g><g clip-path="url(#id2)"><path fill="#bb2400" d="M 160.246094 208.929688 L 132.839844 208.929688 L 148.21875 216.734375 L 148.21875 225.257812 L 130.636719 215.84375 C 128.984375 217.921875 122.671875 219.53125 115.003906 219.703125 L 115.003906 225.257812 L 112.25 225.257812 L 112.25 219.660156 C 103.863281 219.488281 97.128906 217.582031 96.28125 215.207031 L 77.601562 225.257812 L 77.601562 216.734375 L 92.976562 208.929688 L 67.050781 208.929688 L 67.050781 201.632812 L 94.757812 201.632812 L 94.757812 207.996094 L 96.195312 207.273438 L 96.195312 206.042969 L 112.25 206.042969 L 112.25 204.21875 L 115.003906 204.21875 L 115.003906 206.042969 L 131.0625 206.042969 L 131.0625 208.039062 L 132.5 208.757812 L 132.5 201.632812 L 160.207031 201.632812 L 160.207031 208.929688 Z M 160.246094 208.929688 " fill-opacity="1" fill-rule="nonzero"/></g><path fill="#d76249" d="M 171.304688 167.191406 C 162.703125 169.101562 151.351562 173.765625 146.226562 181.570312 C 146.226562 181.570312 152.328125 183.351562 152.835938 188.527344 C 153.300781 193.703125 143.472656 202.949219 137.5 204.730469 C 137.5 204.730469 118.097656 214.230469 89.800781 204.730469 C 89.800781 204.730469 77.558594 196.796875 77.007812 188.78125 C 76.457031 180.765625 101.40625 176.949219 117.714844 176.820312 C 134.027344 176.695312 135.636719 177.921875 139.195312 178.8125 C 141.949219 174.316406 146.734375 169.90625 149.996094 167.871094 C 156.011719 164.140625 164.949219 160.152344 170.117188 160.152344 C 175.160156 160.152344 178.800781 165.539062 171.304688 167.191406 Z M 171.304688 167.191406 " fill-opacity="1" fill-rule="nonzero"/><path fill="#ffcc00" d="M 86.75 191.113281 C 90.5625 192.21875 93.824219 190.476562 93.824219 190.476562 C 93.824219 190.476562 95.308594 189.164062 98.824219 188.230469 C 102.339844 187.296875 105.8125 189.035156 108.609375 188.867188 C 111.363281 188.652344 111.445312 186.195312 115.851562 185.683594 C 120.300781 185.175781 133.601562 188.273438 135.042969 191.15625 C 135.933594 192.9375 136.398438 195.695312 136.652344 197.519531 C 132.753906 198.367188 127.882812 199.171875 121.742188 199.851562 C 103.820312 201.761719 90.859375 198.070312 84.292969 195.441406 C 83.699219 195.058594 82.980469 190.011719 86.75 191.113281 Z M 86.75 191.113281 " fill-opacity="1" fill-rule="nonzero"/><path fill="#ffd5ba" d="M 114.328125 41.730469 C 120.765625 41.730469 119.199219 50.128906 113.863281 50.128906 C 113.820312 50.128906 113.734375 50.128906 113.691406 50.128906 C 112.632812 55.21875 110.050781 61.835938 106.152344 64.125 C 106.152344 67.730469 105.347656 71.589844 107.042969 73.964844 C 108.101562 75.492188 113.058594 77.273438 116.277344 78.714844 C 116.53125 89.066406 83.234375 87.367188 83.402344 79.308594 C 85.988281 78.589844 88.402344 77.996094 90.222656 75.664062 C 92.046875 73.371094 92.636719 67.941406 92.636719 64.71875 C 88.148438 62.132812 84.675781 56.660156 83.320312 49.875 C 76.457031 48.515625 78.023438 42.238281 82.726562 41.730469 C 88.445312 40.714844 89.25 34.605469 90.5625 28.414062 C 91.664062 23.238281 107 22.261719 108.480469 29.007812 C 109.964844 35.75 109.246094 41.050781 114.328125 41.730469 Z M 36.976562 124.226562 C 36.976562 124.226562 27.1875 141.871094 30.410156 152.644531 C 33.628906 163.417969 51.164062 159.601562 58.535156 143.1875 C 58.535156 143.1875 63.621094 145.816406 66.796875 143.058594 C 66.796875 143.058594 69.679688 143.652344 71.585938 141.488281 C 71.585938 141.488281 75.652344 142.632812 75.949219 137.84375 C 75.949219 137.84375 80.015625 141.320312 81.878906 139.15625 C 83.785156 136.992188 80.988281 133.472656 80.988281 133.472656 C 80.988281 133.472656 82.597656 133.601562 83.148438 131.011719 C 83.742188 128.382812 84.039062 125.328125 82.429688 124.269531 C 80.820312 123.207031 67.179688 118.417969 64 118.417969 C 60.824219 118.417969 54.003906 125.839844 54.003906 125.839844 L 46.886719 130.972656 Z M 36.976562 124.226562 " fill-opacity="1" fill-rule="nonzero"/><path fill="#bb2400" d="M 61.332031 102.679688 L 65.78125 100.773438 C 66.710938 100.390625 67.773438 100.8125 68.152344 101.789062 L 80.945312 134.660156 L 67.558594 119.433594 C 67.558594 119.433594 62.476562 109.253906 60.441406 105.140625 C 59.976562 104.207031 60.402344 103.105469 61.332031 102.679688 Z M 110.132812 188.230469 C 105.8125 176.015625 98.738281 168.253906 94.585938 163.757812 C 90.433594 159.261719 82.429688 138.140625 82.429688 138.140625 C 79.421875 142.125 72.898438 134.703125 72.898438 134.703125 C 72.898438 134.703125 81.625 159.429688 82.34375 163.84375 C 83.066406 168.253906 80.863281 182.800781 83.996094 192.257812 C 84.460938 193.617188 86.621094 193.617188 88.019531 193.574219 C 94.96875 193.363281 101.914062 192.386719 108.777344 191.199219 C 109.457031 191.070312 110.261719 190.902344 110.640625 190.351562 C 111.066406 189.714844 110.8125 188.144531 110.132812 188.230469 Z M 134.066406 195.738281 L 139.703125 190.4375 L 139.195312 188.613281 L 133.136719 194.421875 Z M 134.066406 195.738281 " fill-opacity="1" fill-rule="nonzero"/><path fill="#bb2400" d="M 138.175781 197.5625 C 138.175781 197.5625 143.050781 195.355469 144.828125 194.675781 C 150.125 192.683594 151.945312 191.328125 151.945312 191.328125 C 151.859375 191.453125 149.996094 194.71875 138.175781 197.5625 Z M 83.828125 194.71875 C 81.160156 193.617188 79.25 193.445312 79.25 193.445312 C 79.292969 193.488281 80.734375 194.335938 83.53125 195.484375 Z M 61.585938 169.269531 L 64.339844 169.738281 C 64.296875 169.738281 57.140625 166.003906 57.140625 166.003906 C 57.140625 166.003906 61.460938 169.1875 61.585938 169.269531 Z M 89.546875 141.488281 C 89.546875 141.488281 96.917969 140.386719 100.558594 140.21875 C 104.457031 140.003906 112.378906 140.515625 112.378906 140.515625 C 104.921875 138.605469 96.832031 138.945312 89.546875 141.488281 Z M 93.105469 169.992188 C 91.832031 169.652344 90.605469 169.824219 89.460938 170.5 C 83.871094 173.894531 85.183594 184.160156 85.226562 184.582031 C 85.226562 184.582031 84.757812 174.359375 89.886719 171.222656 C 90.816406 170.671875 91.792969 170.5 92.851562 170.796875 C 96.875 171.902344 101.324219 178.347656 101.324219 178.347656 C 101.195312 178.09375 97.511719 171.222656 93.105469 169.992188 Z M 117.714844 191.367188 C 118.351562 192.8125 120.003906 193.320312 120.9375 194.507812 C 121.191406 194.804688 121.402344 195.1875 121.699219 195.441406 C 122.628906 196.203125 124.113281 195.523438 124.75 194.464844 C 125.382812 193.445312 125.511719 192.175781 125.933594 191.070312 C 126.148438 190.519531 126.441406 189.96875 126.570312 189.417969 C 126.699219 188.824219 126.699219 188.1875 126.316406 187.722656 C 126.0625 187.382812 125.679688 187.210938 125.339844 187 C 123.773438 186.195312 122.164062 185.386719 120.597656 184.582031 C 120.003906 184.285156 119.367188 183.988281 118.734375 184.117188 C 118.140625 184.242188 117.675781 184.710938 117.421875 185.304688 C 117.164062 185.855469 117.164062 186.492188 117.164062 187.128906 C 117.207031 188.273438 117.207031 190.222656 117.714844 191.367188 Z M 109.371094 197.09375 C 110.601562 196.714844 111.363281 194.507812 110.007812 193.742188 C 109.878906 193.660156 109.753906 193.660156 109.582031 193.660156 C 108.144531 193.574219 106.703125 193.488281 105.21875 193.40625 C 105.09375 193.40625 105.007812 193.40625 104.882812 193.40625 C 104.667969 193.445312 104.5 193.617188 104.414062 193.828125 C 104.074219 194.464844 104.332031 195.269531 104.882812 195.78125 C 105.726562 196.628906 108.183594 197.476562 109.371094 197.09375 Z M 97.425781 192.515625 C 97.550781 193.066406 97.59375 193.785156 97.847656 194.296875 C 98.273438 195.1875 99.882812 194.210938 100.558594 194 C 100.6875 193.957031 100.8125 193.914062 100.855469 193.785156 C 100.984375 193.617188 100.855469 193.363281 100.6875 193.191406 C 100.261719 192.8125 99.671875 192.769531 99.203125 192.429688 C 98.738281 192.046875 98.570312 191.453125 98.316406 190.902344 C 98.273438 190.773438 98.1875 190.648438 98.0625 190.5625 C 97.722656 190.308594 97.214844 190.5625 96.789062 190.605469 C 97.042969 191.242188 97.253906 191.878906 97.425781 192.515625 Z M 97.425781 192.515625 " fill-opacity="1" fill-rule="nonzero"/><path fill="#d76249" d="M 112.292969 219.660156 L 111.871094 208.84375 L 112.71875 208.84375 Z M 115.515625 208.929688 L 114.667969 208.929688 L 115.089844 219.445312 Z M 100.855469 213.128906 L 100.855469 207.527344 L 100.007812 212.617188 L 96.324219 215.246094 Z M 127.628906 213.722656 L 126.78125 207.527344 L 126.78125 214.230469 L 130.128906 216.011719 Z M 137.882812 122.699219 C 138.136719 120.621094 137.246094 116.421875 137.246094 116.421875 C 137.5 121.597656 135.636719 132.074219 135.636719 132.074219 C 136.78125 129.105469 137.542969 125.921875 137.882812 122.699219 Z M 52.308594 131.945312 C 52.308594 132.03125 51.378906 139.199219 56.375 142.550781 C 56.96875 142.929688 58.535156 143.1875 58.535156 143.1875 C 58.535156 143.1875 57.097656 142.082031 56.460938 141.617188 C 52.140625 138.351562 52.308594 131.945312 52.308594 131.945312 Z M 66.796875 143.015625 C 66.796875 143.015625 64.59375 143.355469 62.941406 142.59375 C 60.65625 141.53125 56.546875 136.570312 56.375 136.355469 C 56.375 136.355469 61.164062 140.8125 63.324219 141.785156 C 65.398438 142.804688 66.796875 143.015625 66.796875 143.015625 Z M 67.050781 138.5625 C 70.058594 140.640625 71.585938 141.445312 71.585938 141.445312 C 71.585938 141.445312 69.71875 141.445312 66.542969 139.285156 C 63.367188 137.121094 59.046875 131.734375 58.832031 131.480469 C 58.875 131.480469 64 136.484375 67.050781 138.5625 Z M 72.304688 132.328125 C 72.304688 132.328125 69.847656 131.4375 67.984375 129.824219 C 66.375 128.46875 64.679688 125.710938 64.679688 125.710938 C 66.035156 127.28125 72.21875 132.285156 72.304688 132.328125 Z M 47.140625 130.714844 C 47.140625 130.714844 47.566406 131.269531 44.261719 132.835938 C 42.144531 133.8125 38.160156 134.277344 38.160156 134.277344 C 39.644531 133.855469 41.378906 133.175781 42.863281 132.539062 C 44.894531 131.605469 47.140625 130.714844 47.140625 130.714844 Z M 127.671875 194.167969 C 127.96875 194.125 128.222656 194.335938 128.308594 194.632812 C 128.390625 194.929688 128.308594 195.226562 128.179688 195.484375 C 128.09375 195.695312 127.96875 195.863281 127.757812 195.992188 C 127.503906 196.078125 127.246094 196.035156 127.035156 195.863281 C 126.699219 195.609375 126.527344 195.1875 126.613281 194.804688 C 126.699219 194.421875 127.121094 194.125 127.503906 194.210938 M 112.886719 190.773438 C 114.199219 191.03125 114.242188 193.191406 112.886719 192.851562 C 111.785156 192.640625 111.363281 190.476562 112.886719 190.773438 Z M 102.253906 197.09375 C 102.253906 197.347656 102.167969 197.644531 101.957031 197.816406 C 101.832031 197.902344 101.660156 197.941406 101.492188 197.902344 C 101.324219 197.859375 101.152344 197.816406 101.027344 197.730469 C 98.652344 196.160156 102.210938 195.1875 102.253906 197.09375 Z M 89.925781 193.066406 C 90.5625 192.386719 91.242188 193.277344 91.410156 193.871094 C 91.496094 194.082031 91.578125 194.335938 91.496094 194.59375 C 91.410156 194.972656 90.984375 195.1875 90.605469 195.101562 C 89.800781 194.972656 89.335938 193.703125 89.925781 193.066406 Z M 117.460938 195.949219 C 118.605469 196.417969 118.480469 198.199219 117.207031 198.28125 C 116.996094 198.28125 116.785156 198.238281 116.613281 198.15625 C 115.851562 197.5625 116.359375 195.484375 117.460938 195.949219 Z M 117.460938 195.949219 " fill-opacity="1" fill-rule="nonzero"/><g clip-path="url(#id3)"><path fill="#ffcc00" d="M 159.414062 0.3125 C 159.519531 0.472656 159.597656 0.644531 159.648438 0.824219 C 159.761719 1.253906 159.839844 1.6875 159.878906 2.128906 C 160.109375 6.992188 164.269531 12.734375 168.328125 15.273438 C 168.582031 15.414062 168.796875 15.597656 168.980469 15.820312 C 169.070312 15.9375 169.128906 16.066406 169.15625 16.207031 C 169.183594 16.351562 169.175781 16.492188 169.132812 16.628906 C 169.089844 16.769531 169.019531 16.890625 168.917969 16.996094 C 168.816406 17.097656 168.695312 17.171875 168.558594 17.21875 C 168.25 17.300781 167.9375 17.339844 167.617188 17.335938 C 164.15625 17.46875 162.011719 20.246094 161.03125 23.539062 C 160.1875 26.382812 160.644531 25.539062 159.59375 27.644531 C 159.445312 27.988281 159.1875 28.171875 158.8125 28.195312 C 158.441406 28.21875 158.160156 28.066406 157.972656 27.746094 C 156.832031 26.128906 157.046875 21.851562 153.601562 19.082031 C 151.8125 17.648438 150.113281 17.914062 149.417969 17.78125 C 149.214844 17.761719 149.035156 17.679688 148.878906 17.542969 C 148.726562 17.40625 148.628906 17.238281 148.582031 17.035156 C 148.539062 16.835938 148.558594 16.640625 148.636719 16.449219 C 148.71875 16.261719 148.847656 16.113281 149.027344 16.007812 C 149.34375 15.761719 153.886719 13.371094 156.78125 6.984375 C 158.371094 3.511719 157.515625 1.445312 158.605469 0.261719 C 158.714844 0.144531 159.269531 0.0507812 159.414062 0.3125 Z M 159.414062 0.3125 " fill-opacity="1" fill-rule="nonzero"/></g><g clip-path="url(#id4)"><path fill="#ffcc00" d="M 174.238281 46.957031 C 173.695312 46.230469 173.664062 45.601562 173.132812 43.742188 C 172.109375 40.128906 169.953125 37.097656 166.234375 37.054688 C 164.726562 37.054688 164.570312 36.015625 165.136719 35.429688 C 165.816406 34.730469 168.203125 34.074219 171.6875 28.789062 C 172.492188 27.5625 173.128906 26.257812 173.589844 24.867188 C 174.433594 22.339844 173.816406 22.128906 174.496094 20.238281 C 174.632812 19.855469 174.753906 19.371094 175.253906 19.371094 C 175.75 19.371094 175.855469 19.871094 175.9375 20.261719 C 176.445312 22.679688 175.957031 23.015625 177.421875 26.207031 C 178.691406 28.953125 181.519531 32.683594 184.65625 34.597656 C 184.875 34.722656 185.066406 34.882812 185.230469 35.078125 C 185.71875 35.699219 185.398438 36.636719 183.890625 36.632812 C 180.449219 36.632812 178.222656 39.582031 177.265625 42.875 C 176.539062 45.402344 176.710938 45.402344 175.808594 46.972656 C 175.707031 47.082031 175.589844 47.167969 175.453125 47.226562 C 175.316406 47.285156 175.171875 47.316406 175.019531 47.3125 C 174.871094 47.3125 174.726562 47.28125 174.59375 47.21875 C 174.457031 47.15625 174.335938 47.070312 174.238281 46.957031 Z M 174.238281 46.957031 " fill-opacity="1" fill-rule="nonzero"/></g><g clip-path="url(#id5)"><path fill="#ffcc00" d="M 164.722656 45.824219 C 164.960938 45.800781 165.136719 45.898438 165.242188 46.113281 C 166.0625 47.539062 164.921875 49.058594 167.628906 53.535156 C 169.152344 56.078125 171.15625 58.164062 173.644531 59.785156 C 173.917969 60.011719 174.011719 60.292969 173.925781 60.636719 C 173.839844 60.980469 173.625 61.1875 173.28125 61.257812 C 172.507812 61.496094 169.902344 60.886719 167.714844 64.457031 C 166.492188 66.453125 166.515625 68.246094 165.492188 70.390625 C 165.105469 71.234375 164.195312 71.261719 163.734375 70.417969 C 162.855469 68.808594 162.945312 65.582031 160.269531 63.152344 C 158.53125 61.574219 156.765625 61.800781 156.25 61.714844 C 156.0625 61.710938 155.894531 61.648438 155.746094 61.535156 C 155.601562 61.417969 155.503906 61.273438 155.453125 61.09375 C 155.40625 60.914062 155.417969 60.734375 155.484375 60.5625 C 155.554688 60.390625 155.667969 60.253906 155.824219 60.15625 C 156.390625 59.664062 158.761719 58.777344 161.789062 54 C 162.972656 52.214844 163.644531 50.257812 163.792969 48.125 C 163.828125 47.558594 164.03125 46.394531 164.457031 45.980469 C 164.539062 45.917969 164.628906 45.867188 164.722656 45.824219 Z M 164.722656 45.824219 " fill-opacity="1" fill-rule="nonzero"/></g><g clip-path="url(#id6)"><path fill="#ffcc00" d="M 148.175781 31.890625 C 148.414062 31.867188 148.53125 31.917969 148.601562 32.027344 C 148.695312 32.152344 148.769531 32.292969 148.816406 32.445312 C 148.910156 32.75 148.972656 33.058594 148.996094 33.375 C 149.085938 36.269531 150.949219 39.179688 152.886719 41.328125 C 154.261719 42.855469 155.117188 43.15625 155.8125 43.738281 C 156.074219 43.933594 156.164062 44.1875 156.078125 44.503906 C 155.992188 44.816406 155.789062 44.992188 155.460938 45.03125 C 154.339844 45.238281 152.78125 45 151.078125 47.304688 C 149.753906 49.085938 149.925781 50.75 148.875 52.828125 C 148.515625 53.535156 147.730469 53.578125 147.351562 52.789062 C 147.039062 52.125 146.628906 50.488281 146.269531 49.453125 C 144.800781 45.207031 141.320312 45.488281 140.898438 45.382812 C 140.617188 45.335938 140.4375 45.175781 140.351562 44.90625 C 140.265625 44.636719 140.324219 44.402344 140.527344 44.203125 C 141.140625 43.527344 144.230469 42.273438 146.691406 36.898438 C 147.746094 34.589844 147.089844 33.621094 147.835938 32.226562 C 147.90625 32.070312 148.019531 31.960938 148.175781 31.890625 Z M 148.175781 31.890625 " fill-opacity="1" fill-rule="nonzero"/></g></svg>