<svg xmlns="http://www.w3.org/2000/svg" xmlns:xlink="http://www.w3.org/1999/xlink" width="300" zoomAndPan="magnify" viewBox="0 0 224.87999 225" height="300" preserveAspectRatio="xMidYMid meet" version="1.0"><defs><clipPath id="id1"><path d="M 2.894531 100.910156 L 194.730469 100.910156 L 194.730469 209.105469 L 2.894531 209.105469 Z M 2.894531 100.910156 " clip-rule="nonzero"/></clipPath><clipPath id="id2"><path d="M 44.335938 15.707031 L 224.761719 15.707031 L 224.761719 124.921875 L 44.335938 124.921875 Z M 44.335938 15.707031 " clip-rule="nonzero"/></clipPath></defs><path fill="#3f3f3f" d="M 2.96875 103.859375 C 2.96875 103.859375 12.496094 46.765625 96.023438 46.765625 C 179.550781 46.765625 193.472656 100.929688 193.472656 100.929688 C 193.472656 100.929688 206.660156 160.953125 145.113281 177.058594 C 83.566406 193.164062 0.0390625 171.203125 2.96875 103.859375 " fill-opacity="1" fill-rule="nonzero"/><g clip-path="url(#id1)"><path fill="#232323" d="M 2.96875 103.859375 C 2.96875 103.859375 -0.691406 179.984375 54.257812 200.480469 C 109.210938 220.976562 150.734375 199.75 162.183594 190.179688 C 172.714844 182.914062 200.800781 151.4375 193.472656 100.929688 C 193.472656 100.929688 200.800781 172.667969 98.953125 173.398438 C -2.890625 174.128906 2.96875 103.859375 2.96875 103.859375 " fill-opacity="1" fill-rule="nonzero"/></g><path fill="#1c1b1b" d="M 66.714844 59.9375 C 66.714844 59.9375 16.160156 68.722656 13.226562 102.394531 C 10.296875 136.066406 33.011719 168.273438 106.28125 164.613281 C 179.550781 160.953125 188.34375 111.910156 182.484375 92.144531 C 176.621094 72.382812 137.054688 42.371094 66.714844 59.9375 " fill-opacity="1" fill-rule="nonzero"/><path fill="#731300" d="M 146.578125 94.34375 C 146.578125 94.34375 124.597656 73.117188 103.351562 80.4375 C 103.351562 80.4375 77.707031 74.578125 71.113281 83.363281 C 64.515625 92.148438 82.835938 95.074219 82.835938 95.074219 C 82.835938 95.074219 139.25 105.324219 146.578125 94.34375 " fill-opacity="1" fill-rule="nonzero"/><path fill="#e74000" d="M 172.957031 119.960938 C 170.027344 111.910156 164.898438 109.714844 164.898438 109.714844 C 164.898438 109.714844 165.628906 103.859375 155.371094 96.539062 C 145.113281 89.21875 129.726562 94.34375 129.726562 94.34375 L 114.339844 130.210938 L 143.648438 155.097656 C 143.648438 155.097656 145.933594 155.097656 149.265625 154.835938 C 162.367188 148.554688 170.96875 139.941406 176.328125 130.882812 C 175.710938 127.210938 174.335938 123.75 172.957031 119.960938 " fill-opacity="1" fill-rule="nonzero"/><path fill="#235411" d="M 154.609375 152.007812 C 154.523438 149.9375 153.535156 147.089844 151.707031 142.652344 C 146.582031 130.210938 133.390625 133.871094 133.390625 133.871094 C 125.332031 126.550781 115.804688 134.601562 115.804688 134.601562 C 115.804688 134.601562 105.550781 136.066406 99.6875 141.921875 C 93.824219 147.777344 98.222656 152.902344 98.222656 152.902344 C 98.222656 152.902344 95.988281 160.492188 98.847656 164.863281 C 101.269531 164.820312 103.742188 164.742188 106.28125 164.613281 C 127.3125 163.5625 143.023438 158.769531 154.609375 152.007812 " fill-opacity="1" fill-rule="nonzero"/><path fill="#235411" d="M 28.613281 123.621094 C 28.613281 123.621094 22.019531 111.910156 33.742188 106.054688 C 33.742188 106.054688 36.675781 92.148438 47.664062 94.34375 C 47.664062 94.34375 62.320312 81.167969 75.507812 86.292969 C 88.695312 91.414062 68.914062 108.984375 68.914062 108.984375 C 68.914062 108.984375 38.871094 134.601562 28.613281 123.621094 " fill-opacity="1" fill-rule="nonzero"/><path fill="#ffc573" d="M 50.597656 158.027344 C 50.597656 158.027344 19.089844 147.046875 24.953125 128.015625 C 24.953125 128.015625 28.613281 114.105469 37.40625 120.695312 C 37.40625 120.695312 42.535156 103.125 59.386719 106.054688 C 76.238281 108.984375 73.308594 133.140625 73.308594 133.140625 L 50.597656 158.027344 " fill-opacity="1" fill-rule="nonzero"/><path fill="#731300" d="M 67.449219 136.066406 C 67.449219 136.066406 48.398438 151.4375 50.597656 158.027344 C 50.621094 158.097656 50.652344 158.167969 50.683594 158.238281 C 64.589844 163.28125 82.847656 165.785156 106.28125 164.613281 C 121.667969 155.832031 83.566406 129.476562 67.449219 136.066406 " fill-opacity="1" fill-rule="nonzero"/><path fill="#d33302" d="M 143.8125 119.960938 C 142.914062 115.488281 134.136719 112.898438 122.382812 111.460938 L 114.339844 130.210938 L 121.917969 136.644531 C 121.945312 136.613281 121.96875 136.585938 121.992188 136.554688 C 130.132812 126.792969 146.742188 134.601562 143.8125 119.960938 " fill-opacity="1" fill-rule="nonzero"/><path fill="#1d420d" d="M 121.996094 136.554688 C 124.222656 133.882812 127.085938 132.53125 130.011719 131.671875 C 122.890625 128.621094 115.804688 134.601562 115.804688 134.601562 C 115.804688 134.601562 105.546875 136.066406 99.6875 141.921875 C 95.527344 146.078125 96.535156 149.867188 97.46875 151.714844 C 111.140625 149.664062 115.824219 143.953125 121.996094 136.554688 " fill-opacity="1" fill-rule="nonzero"/><path fill="#edb26b" d="M 53.609375 124.84375 C 61.097656 128.746094 58.167969 128.421875 53.28125 135.253906 C 50.230469 139.519531 51.375 144.929688 59.246094 148.546875 L 73.308594 133.140625 C 73.308594 133.140625 75.140625 117.960938 67.503906 110.210938 C 59.160156 110.503906 53.609375 110.855469 53.609375 110.855469 C 53.609375 110.855469 46.117188 120.9375 53.609375 124.84375 " fill-opacity="1" fill-rule="nonzero"/><path fill="#600f01" d="M 67.449219 136.066406 C 67.449219 136.066406 61.089844 141.199219 56.144531 146.804688 C 60.582031 149.878906 68.601562 152.191406 81.289062 152.496094 C 92.125 152.757812 99.503906 151.8125 104.984375 149.960938 C 96.152344 140.683594 77.515625 131.953125 67.449219 136.066406 " fill-opacity="1" fill-rule="nonzero"/><path fill="#ffffff" d="M 96.023438 87.023438 C 96.023438 87.023438 74.042969 85.558594 60.121094 99.46875 C 46.199219 113.375 54.992188 122.890625 66.714844 125.085938 C 78.4375 127.28125 52.0625 130.210938 57.191406 140.457031 C 62.320312 150.707031 99.6875 155.097656 113.609375 138.996094 C 127.53125 122.890625 145.113281 129.480469 145.113281 114.105469 C 145.113281 98.734375 128.261719 78.238281 96.023438 87.023438 " fill-opacity="1" fill-rule="nonzero"/><path fill="#e2e0de" d="M 85.484375 96.417969 C 85.484375 96.417969 67.9375 100.445312 72.167969 112.804688 C 76.402344 125.167969 83.566406 128.097656 100.828125 128.097656 C 118.085938 128.097656 125.902344 114.105469 121.992188 107.925781 C 118.085938 101.746094 85.484375 96.417969 85.484375 96.417969 " fill-opacity="1" fill-rule="nonzero"/><path fill="#ff9500" d="M 103.777344 94.339844 C 103.777344 94.339844 90.886719 90.660156 80.453125 99.855469 C 70.019531 109.054688 74.929688 123.769531 95.796875 125.609375 C 116.667969 127.449219 122.804688 115.1875 122.804688 109.054688 C 122.804688 102.921875 114.210938 93.113281 103.777344 94.339844 " fill-opacity="1" fill-rule="nonzero"/><path fill="#2c6315" d="M 124.597656 136.066406 C 124.597656 136.066406 130.460938 129.480469 134.125 140.457031 C 134.125 140.457031 137.949219 134.929688 145.113281 141.109375 C 152.277344 147.289062 141.859375 157.375 141.859375 157.375 C 141.859375 157.375 139.578125 158.675781 138.277344 157.699219 C 136.972656 156.726562 145.441406 150.21875 142.835938 144.363281 C 140.230469 138.507812 134.367188 141.761719 133.066406 143.386719 C 131.761719 145.011719 132.414062 135.578125 128.179688 136.554688 C 123.949219 137.53125 124.597656 136.066406 124.597656 136.066406 " fill-opacity="1" fill-rule="nonzero"/><path fill="#2c6315" d="M 118.738281 144.039062 C 118.738281 144.039062 115.804688 150.21875 122.644531 150.21875 C 122.644531 150.21875 120.363281 159.976562 127.53125 159.976562 C 127.53125 159.976562 125.25 162.582031 121.667969 161.28125 C 118.085938 159.976562 120.039062 152.496094 120.039062 152.496094 C 120.039062 152.496094 113.527344 148.589844 115.480469 145.011719 C 117.433594 141.433594 118.738281 144.039062 118.738281 144.039062 " fill-opacity="1" fill-rule="nonzero"/><path fill="#2c6315" d="M 124.925781 146.640625 C 124.925781 146.640625 123.949219 151.195312 129.160156 151.195312 C 129.160156 151.195312 130.785156 155.421875 135.34375 154.449219 C 135.34375 154.449219 133.390625 157.375 131.4375 156.722656 C 129.484375 156.074219 128.832031 152.496094 128.832031 152.496094 C 128.832031 152.496094 122.972656 152.171875 122.644531 148.589844 C 122.320312 145.011719 124.925781 146.640625 124.925781 146.640625 " fill-opacity="1" fill-rule="nonzero"/><path fill="#e84e1f" d="M 138.925781 125.820312 C 138.925781 125.820312 155.859375 134.277344 157.488281 145.011719 C 157.488281 145.011719 159.441406 145.339844 158.792969 142.734375 C 158.140625 140.132812 149.347656 121.265625 138.925781 125.820312 " fill-opacity="1" fill-rule="nonzero"/><path fill="#e84e1f" d="M 147.71875 124.84375 C 147.71875 124.84375 159.769531 125.167969 167.585938 133.953125 C 167.585938 133.953125 168.886719 135.253906 165.957031 135.253906 C 163.027344 135.253906 153.257812 127.121094 148.699219 126.792969 C 144.136719 126.46875 147.71875 124.84375 147.71875 124.84375 " fill-opacity="1" fill-rule="nonzero"/><path fill="#e84e1f" d="M 145.441406 105.972656 C 145.441406 105.972656 153.90625 100.769531 159.117188 105.648438 C 159.117188 105.648438 160.421875 106.296875 159.769531 104.019531 C 159.117188 101.742188 142.511719 99.464844 145.441406 105.972656 " fill-opacity="1" fill-rule="nonzero"/><path fill="#e88105" d="M 121.066406 115.398438 C 111.429688 122.382812 87.136719 120.609375 82.589844 113.132812 C 78.527344 106.449219 82.878906 99.59375 85.484375 96.414062 C 83.785156 97.289062 82.089844 98.414062 80.453125 99.855469 C 70.019531 109.054688 74.929688 123.769531 95.800781 125.609375 C 110.652344 126.917969 118.039062 121.085938 121.066406 115.398438 " fill-opacity="1" fill-rule="nonzero"/><path fill="#fcbe47" d="M 90.730469 96.539062 C 90.730469 96.539062 99.199219 92.960938 103.757812 98.167969 C 103.757812 98.167969 111.246094 96.863281 117.433594 102.394531 C 123.621094 107.925781 118.738281 114.757812 110.921875 114.433594 C 103.105469 114.105469 104.734375 103.371094 111.246094 103.371094 C 117.761719 103.371094 107.664062 97.191406 102.78125 100.769531 C 97.894531 104.347656 105.710938 94.910156 90.730469 96.539062 " fill-opacity="1" fill-rule="nonzero"/><path fill="#fce290" d="M 30.8125 136.796875 C 30.8125 136.796875 29.835938 132.652344 33.742188 129.964844 C 37.652344 127.28125 35.453125 133.140625 34.230469 137.042969 C 33.011719 140.945312 30.570312 141.191406 30.8125 136.796875 " fill-opacity="1" fill-rule="nonzero"/><path fill="#fce290" d="M 39.605469 134.359375 C 39.605469 134.359375 44 128.015625 45.957031 130.210938 C 47.910156 132.40625 37.894531 139.726562 37.40625 137.773438 C 36.917969 135.824219 39.605469 134.359375 39.605469 134.359375 " fill-opacity="1" fill-rule="nonzero"/><path fill="#fce290" d="M 41.804688 121.183594 C 41.804688 121.183594 42.78125 115.082031 44.734375 115.328125 C 46.6875 115.570312 44.488281 122.890625 43.023438 124.355469 C 41.558594 125.816406 41.804688 121.183594 41.804688 121.183594 " fill-opacity="1" fill-rule="nonzero"/><path fill="#fce290" d="M 44.488281 149 C 44.488281 149 44.980469 144.851562 46.933594 142.898438 C 48.886719 140.945312 48.398438 146.558594 46.199219 150.460938 C 44 154.367188 44.488281 149 44.488281 149 " fill-opacity="1" fill-rule="nonzero"/><path fill="#8e4610" d="M 33.742188 22.609375 L 207.394531 134.601562 C 207.394531 134.601562 207.394531 140.457031 201.53125 141.191406 C 195.671875 141.921875 19.089844 18.949219 33.742188 22.609375 " fill-opacity="1" fill-rule="nonzero"/><g clip-path="url(#id2)"><path fill="#8e4610" d="M 45.25 15.761719 L 224.835938 117.988281 C 224.835938 117.988281 225.160156 123.835938 219.347656 124.890625 C 213.535156 125.945312 30.414062 12.917969 45.25 15.761719 " fill-opacity="1" fill-rule="nonzero"/></g></svg>