<svg xmlns="http://www.w3.org/2000/svg" xmlns:xlink="http://www.w3.org/1999/xlink" width="300" zoomAndPan="magnify" viewBox="0 0 224.87999 225" height="300" preserveAspectRatio="xMidYMid meet" version="1.0"><defs><clipPath id="id1"><path d="M 16 0.0585938 L 189 0.0585938 L 189 201 L 16 201 Z M 16 0.0585938 " clip-rule="nonzero"/></clipPath><clipPath id="id2"><path d="M 62 57 L 207 57 L 207 224.9375 L 62 224.9375 Z M 62 57 " clip-rule="nonzero"/></clipPath></defs><g clip-path="url(#id1)"><path fill="#27346a" d="M 178.457031 17.03125 C 168.058594 5.160156 149.273438 0.0703125 125.226562 0.0703125 L 55.460938 0.0703125 C 50.542969 0.0703125 46.363281 3.65625 45.59375 8.511719 L 16.542969 193.089844 C 15.964844 196.726562 18.777344 200.023438 22.460938 200.023438 L 65.535156 200.023438 L 76.351562 131.289062 L 76.015625 133.441406 C 76.785156 128.578125 80.933594 124.996094 85.847656 124.996094 L 106.316406 124.996094 C 146.527344 124.996094 178.011719 108.636719 187.210938 61.304688 C 187.476562 59.90625 187.71875 58.542969 187.917969 57.210938 C 186.761719 56.597656 186.761719 56.597656 187.917969 57.210938 C 190.664062 39.71875 187.902344 27.8125 178.457031 17.03125 " fill-opacity="1" fill-rule="nonzero"/><path fill="#27346a" d="M 92.835938 50.910156 C 93.984375 50.363281 95.261719 50.058594 96.601562 50.058594 L 151.300781 50.058594 C 157.777344 50.058594 163.820312 50.480469 169.34375 51.371094 C 170.921875 51.625 172.460938 51.917969 173.953125 52.253906 C 175.4375 52.582031 176.882812 52.957031 178.285156 53.367188 C 178.988281 53.574219 179.683594 53.785156 180.359375 54.007812 C 183.070312 54.917969 185.597656 55.972656 187.917969 57.210938 C 190.664062 39.710938 187.902344 27.8125 178.457031 17.03125 C 168.058594 5.160156 149.273438 0.0703125 125.226562 0.0703125 L 55.453125 0.0703125 C 50.542969 0.0703125 46.363281 3.65625 45.59375 8.511719 L 16.542969 193.082031 C 15.964844 196.726562 18.777344 200.015625 22.453125 200.015625 L 65.535156 200.015625 L 87.976562 57.441406 C 88.4375 54.519531 90.3125 52.125 92.835938 50.910156 Z M 92.835938 50.910156 " fill-opacity="1" fill-rule="nonzero"/></g><g clip-path="url(#id2)"><path fill="#2790c3" d="M 187.210938 61.304688 C 178.011719 108.628906 146.527344 124.996094 106.316406 124.996094 L 85.839844 124.996094 C 80.929688 124.996094 76.78125 128.574219 76.015625 133.441406 L 62.558594 218.902344 C 62.054688 222.085938 64.515625 224.976562 67.730469 224.976562 L 104.039062 224.976562 C 108.339844 224.976562 111.992188 221.839844 112.664062 217.585938 L 113.023438 215.734375 L 119.863281 172.289062 L 120.304688 169.890625 C 120.976562 165.636719 124.632812 162.503906 128.929688 162.503906 L 134.367188 162.503906 C 169.542969 162.503906 197.078125 148.1875 205.128906 106.789062 C 208.488281 89.488281 206.75 75.042969 197.863281 64.894531 C 195.167969 61.820312 191.820312 59.285156 187.917969 57.210938 C 187.710938 58.550781 187.476562 59.90625 187.210938 61.304688 Z M 187.210938 61.304688 " fill-opacity="1" fill-rule="nonzero"/></g><path fill="#1f264f" d="M 178.292969 53.367188 C 176.890625 52.957031 175.445312 52.582031 173.953125 52.253906 C 172.46875 51.921875 170.921875 51.632812 169.347656 51.375 C 163.820312 50.480469 157.785156 50.058594 151.300781 50.058594 L 96.609375 50.058594 C 95.261719 50.058594 93.984375 50.363281 92.84375 50.917969 C 90.3125 52.128906 88.441406 54.519531 87.984375 57.449219 L 76.355469 131.289062 L 76.023438 133.441406 C 76.785156 128.574219 80.933594 124.996094 85.847656 124.996094 L 106.324219 124.996094 C 146.527344 124.996094 178.019531 108.636719 187.21875 61.304688 C 187.484375 59.90625 187.71875 58.550781 187.925781 57.210938 C 185.597656 55.980469 183.078125 54.917969 180.359375 54.015625 C 179.691406 53.789062 178.996094 53.574219 178.292969 53.367188 " fill-opacity="1" fill-rule="nonzero"/></svg>