<svg xmlns="http://www.w3.org/2000/svg" xmlns:xlink="http://www.w3.org/1999/xlink" width="300" zoomAndPan="magnify" viewBox="0 0 224.87999 225" height="300" preserveAspectRatio="xMidYMid meet" version="1.0"><defs><clipPath id="id1"><path d="M 0 0.0585938 L 158 0.0585938 L 158 158 L 0 158 Z M 0 0.0585938 " clip-rule="nonzero"/></clipPath><clipPath id="id2"><path d="M 141 143 L 223 143 L 223 224.9375 L 141 224.9375 Z M 141 143 " clip-rule="nonzero"/></clipPath></defs><g clip-path="url(#id1)"><path fill="#ffffff" d="M 78.765625 25.949219 C 107.953125 25.949219 131.613281 49.605469 131.613281 78.777344 C 131.613281 107.976562 107.953125 131.652344 78.765625 131.652344 C 49.578125 131.652344 25.921875 107.980469 25.921875 78.777344 C 25.921875 49.605469 49.578125 25.949219 78.765625 25.949219 M 78.765625 0.0585938 C 35.355469 0.0585938 0.03125 35.382812 0.03125 78.78125 C 0.03125 122.207031 35.355469 157.511719 78.765625 157.511719 C 122.179688 157.511719 157.488281 122.203125 157.488281 78.78125 C 157.488281 35.382812 122.179688 0.0585938 78.765625 0.0585938 Z M 78.765625 0.0585938 " fill-opacity="1" fill-rule="nonzero"/></g><g clip-path="url(#id2)"><path fill="#ffffff" d="M 201.171875 224.917969 C 195.640625 224.917969 190.140625 222.820312 185.921875 218.601562 L 147.636719 180.304688 C 139.203125 171.886719 139.203125 158.253906 147.636719 149.804688 C 156.066406 141.382812 169.707031 141.382812 178.136719 149.804688 L 216.425781 188.105469 C 224.855469 196.53125 224.855469 210.175781 216.425781 218.601562 C 212.210938 222.820312 206.707031 224.917969 201.171875 224.917969 Z M 201.171875 224.917969 " fill-opacity="1" fill-rule="nonzero"/></g><path fill="#ffffff" d="M 139.667969 123.5625 L 160.707031 144.589844 L 142.40625 162.902344 L 121.367188 141.875 Z M 139.667969 123.5625 " fill-opacity="1" fill-rule="nonzero"/></svg>