<svg xmlns="http://www.w3.org/2000/svg" xmlns:xlink="http://www.w3.org/1999/xlink" width="300" zoomAndPan="magnify" viewBox="0 0 224.87999 225" height="300" preserveAspectRatio="xMidYMid meet" version="1.0"><defs><clipPath id="id1"><path d="M 0 5.578125 L 224.761719 5.578125 L 224.761719 219.214844 L 0 219.214844 Z M 0 5.578125 " clip-rule="nonzero"/></clipPath></defs><g clip-path="url(#id1)"><path fill="#f4c01e" d="M 112.441406 5.578125 L 141.394531 70.617188 C 142.507812 73.117188 144.257812 75.277344 146.472656 76.882812 C 148.6875 78.492188 151.285156 79.488281 154.007812 79.773438 L 224.867188 87.1875 L 171.902344 134.796875 C 169.867188 136.625 168.351562 138.957031 167.503906 141.558594 C 166.660156 144.15625 166.515625 146.933594 167.085938 149.609375 L 181.925781 219.230469 L 120.234375 183.617188 C 117.863281 182.25 115.175781 181.527344 112.441406 181.527344 C 109.703125 181.527344 107.015625 182.25 104.644531 183.617188 L 42.957031 219.230469 L 57.796875 149.609375 C 58.367188 146.933594 58.21875 144.15625 57.375 141.558594 C 56.527344 138.957031 55.011719 136.625 52.976562 134.796875 L 0.0117188 87.1875 L 70.875 79.773438 C 73.59375 79.488281 76.195312 78.492188 78.40625 76.882812 C 80.621094 75.277344 82.371094 73.117188 83.484375 70.617188 Z M 112.441406 5.578125 " fill-opacity="1" fill-rule="evenodd"/></g></svg>